<svg width="22" height="22" viewBox="0 0 22 22" fill="none" xmlns="http://www.w3.org/2000/svg">
<path opacity="0.2" d="M20.1663 11C20.1663 16.0626 16.0623 20.1667 10.9997 20.1667C5.93706 20.1667 1.83301 16.0626 1.83301 11C1.83301 5.9374 5.93706 1.83334 10.9997 1.83334C16.0623 1.83334 20.1663 5.9374 20.1663 11Z" fill="white"/>
<path d="M11.6875 8.25C11.6875 7.8703 11.3797 7.5625 11 7.5625C10.6203 7.5625 10.3125 7.8703 10.3125 8.25L10.3125 10.3125H8.25C7.8703 10.3125 7.5625 10.6203 7.5625 11C7.5625 11.3797 7.8703 11.6875 8.25 11.6875H10.3125V13.75C10.3125 14.1297 10.6203 14.4375 11 14.4375C11.3797 14.4375 11.6875 14.1297 11.6875 13.75L11.6875 11.6875H13.75C14.1297 11.6875 14.4375 11.3797 14.4375 11C14.4375 10.6203 14.1297 10.3125 13.75 10.3125H11.6875V8.25Z" fill="white"/>
</svg>
