<svg width="26" height="26" viewBox="0 0 26 26" fill="none" xmlns="http://www.w3.org/2000/svg">
<path opacity="0.5" fill-rule="evenodd" clip-rule="evenodd" d="M22.4793 13C22.4793 12.5513 22.1156 12.1875 21.6668 12.1875H11.646V13.8125H21.6668C22.1156 13.8125 22.4793 13.4487 22.4793 13Z" fill="#0F100B"/>
<path d="M11.646 19.5C11.646 19.8286 11.448 20.1249 11.1444 20.2507C10.8408 20.3764 10.4913 20.3069 10.259 20.0745L3.75897 13.5745C3.6066 13.4222 3.521 13.2155 3.521 13C3.521 12.7845 3.6066 12.5779 3.75897 12.4255L10.259 5.9255C10.4913 5.69313 10.8408 5.62361 11.1444 5.74937C11.448 5.87513 11.646 6.1714 11.646 6.50002V19.5Z" fill="#0F100B"/>
</svg>
