<svg width="43" height="60" viewBox="0 0 43 60" fill="none" xmlns="http://www.w3.org/2000/svg">
<g clip-path="url(#clip0_106_19891)">
<mask id="mask0_106_19891" style="mask-type:luminance" maskUnits="userSpaceOnUse" x="-1" y="0" width="43" height="60">
<path d="M-0.359619 0.017334L41.9856 0.020201L41.9815 59.9659L-0.363678 59.963L-0.359619 0.017334Z" fill="white"/>
</mask>
<g mask="url(#mask0_106_19891)">
<path d="M-0.359619 0.017334L42.024 0.0202036L42.0199 59.9659L-0.363678 59.963L-0.359619 0.017334Z" fill="white"/>
<path d="M-0.359619 0.017334L42.024 0.0202036L42.0199 59.9659L-0.363678 59.963L-0.359619 0.017334Z" fill="white"/>
</g>
<mask id="mask1_106_19891" style="mask-type:luminance" maskUnits="userSpaceOnUse" x="11" y="24" width="31" height="36">
<path d="M11.9451 24.5236L41.9838 24.5257L41.9814 59.9659L11.9427 59.9639L11.9451 24.5236Z" fill="white"/>
</mask>
<g mask="url(#mask1_106_19891)">
<path d="M45.9839 24.6862L45.983 38.3861C45.7406 38.5381 45.5046 38.6986 45.275 38.8675C44.4474 39.4757 43.7097 40.1964 43.1047 41.0492C42.0357 42.5557 41.3797 44.4727 41.3796 46.9134C41.3794 50.097 40.5328 51.4694 39.2385 52.0834C36.638 53.3174 32.2284 51.4852 29.2407 55.1181C28.1047 56.4991 27.4904 58.6603 27.1828 60.9841L12.4048 60.9831C12.4048 60.9831 10.6525 48.4348 14.3126 43.9847C18.7873 38.544 26.4511 45.3624 26.4518 35.7797C26.4527 22.4425 45.9839 24.6862 45.9839 24.6862Z" fill="#F8CE4D"/>
<path d="M45.9839 24.6862L45.9838 26.7222C40.6494 26.6562 29.095 27.6964 29.0944 37.9551C29.0937 47.5378 21.4298 40.7194 16.9552 46.1601C14.2449 49.4554 14.5023 57.1902 14.8187 60.9833L12.4048 60.9831C12.4048 60.9831 10.6525 48.4348 14.3126 43.9847C18.7873 38.544 26.4511 45.3624 26.4518 35.7797C26.4527 22.4425 45.9839 24.6862 45.9839 24.6862Z" fill="#DD2A55"/>
</g>
<mask id="mask2_106_19891" style="mask-type:luminance" maskUnits="userSpaceOnUse" x="14" y="26" width="28" height="34">
<path d="M14.5806 26.6609L41.9836 26.6627L41.9813 59.9659L14.5783 59.964L14.5806 26.6609Z" fill="white"/>
</mask>
<g mask="url(#mask2_106_19891)">
<path d="M45.9837 26.7223L45.9836 28.8547C40.2064 29.1086 31.1092 30.9529 31.1086 40.0557C31.1079 49.6384 23.444 42.82 18.9694 48.2607C16.6949 51.026 16.5106 56.9183 16.697 60.9835L14.8187 60.9834C14.5023 57.1903 14.2449 49.4555 16.9551 46.1602C21.4298 40.7195 29.0937 47.5379 29.0943 37.9552C29.095 27.6965 40.6493 26.6563 45.9837 26.7223Z" fill="#F77B28"/>
</g>
<mask id="mask3_106_19891" style="mask-type:luminance" maskUnits="userSpaceOnUse" x="16" y="28" width="26" height="32">
<path d="M16.5752 28.7981L41.9836 28.7998L41.9815 59.9659L16.5731 59.9641L16.5752 28.7981Z" fill="white"/>
</mask>
<g mask="url(#mask3_106_19891)">
<path d="M19.0229 60.9836L16.6971 60.9835C16.5107 56.9182 16.695 51.0259 18.9695 48.2606C23.4441 42.82 31.108 49.6383 31.1087 40.0556C31.1093 30.9529 40.2066 29.1086 45.9837 28.8546L45.9836 30.7174C40.3856 31.3787 33.4849 33.8011 33.4844 41.7287C33.4838 51.3114 25.8199 44.4933 21.3452 49.9337C19.3674 52.3384 18.9703 57.1073 19.0229 60.9836Z" fill="#F8CE4D"/>
</g>
<mask id="mask4_106_19891" style="mask-type:luminance" maskUnits="userSpaceOnUse" x="18" y="30" width="24" height="30">
<path d="M18.9971 30.6505L41.9834 30.652L41.9814 59.9659L18.9951 59.9643L18.9971 30.6505Z" fill="white"/>
</mask>
<g mask="url(#mask4_106_19891)">
<path d="M45.9836 30.7173L45.9834 32.8455C43.137 33.4584 40.2635 34.625 38.3294 36.7881C36.8909 38.3964 35.9717 40.5548 35.9715 43.4469C35.9712 47.095 34.8595 48.3652 33.2366 48.8406C30.5969 49.6138 26.6032 48.2825 23.8323 51.6516C22.1389 53.7107 21.6044 57.5026 21.5184 60.9838L19.0229 60.9836C18.9703 57.1073 19.3674 52.3384 21.3453 49.9337C25.8199 44.4933 33.4838 51.3114 33.4844 41.7287C33.485 33.8011 40.3856 31.3787 45.9836 30.7173Z" fill="#4D9F54"/>
</g>
<mask id="mask5_106_19891" style="mask-type:luminance" maskUnits="userSpaceOnUse" x="21" y="32" width="21" height="28">
<path d="M21.4902 32.7877L41.9833 32.7891L41.9815 59.9659L21.4884 59.9645L21.4902 32.7877Z" fill="white"/>
</mask>
<g mask="url(#mask5_106_19891)">
<path d="M45.9834 32.8456L45.9832 35.0731C44.8156 35.4815 43.6939 36.011 42.6873 36.6924C41.7164 37.3496 40.8545 38.1496 40.1644 39.121C39.0938 40.628 38.4364 42.5463 38.4362 44.9895C38.4361 46.4502 38.2571 47.5282 37.9393 48.3282C36.1725 52.7767 30.0896 48.5831 26.297 53.1943C24.8516 54.9517 24.2506 57.9723 24.0523 60.984L21.5184 60.9838C21.6043 57.5027 22.1388 53.7108 23.8322 51.6517C26.6032 48.2826 30.5968 49.6138 33.2365 48.8407C34.8594 48.3652 35.9712 47.095 35.9714 43.4469C35.9716 40.5549 36.8909 38.3964 38.3293 36.7881C40.2635 34.625 43.1369 33.4584 45.9834 32.8456Z" fill="#3D81DB"/>
</g>
<mask id="mask6_106_19891" style="mask-type:luminance" maskUnits="userSpaceOnUse" x="23" y="35" width="19" height="25">
<path d="M23.9834 35.0674L41.9832 35.0687L41.9815 59.9659L23.9817 59.9647L23.9834 35.0674Z" fill="white"/>
</mask>
<g mask="url(#mask6_106_19891)">
<path d="M45.9832 35.0731L45.9829 38.3862C45.7406 38.5381 45.5046 38.6987 45.275 38.8676C44.4474 39.4758 43.7096 40.1965 43.1046 41.0493C42.0357 42.5558 41.3797 44.4727 41.3795 46.9134C41.3793 50.0971 40.5327 51.4694 39.2387 52.0835C36.638 53.3174 32.2284 51.4853 29.2406 55.1182C28.1046 56.4991 27.4904 58.6604 27.1827 60.9842L24.0522 60.984C24.2505 57.9723 24.8515 54.9517 26.297 53.1943C30.0898 48.5831 36.1725 52.7767 37.9392 48.3282C38.257 47.5282 38.436 46.4502 38.4361 44.9896C38.4363 42.5464 39.0937 40.628 40.1643 39.121C40.8545 38.1496 41.7163 37.3496 42.6872 36.6924C43.6938 36.011 44.8155 35.4816 45.9832 35.0731Z" fill="#B07ACC"/>
</g>
<mask id="mask7_106_19891" style="mask-type:luminance" maskUnits="userSpaceOnUse" x="-1" y="35" width="2" height="4">
<path d="M-0.0236816 35.6357L0.54649 35.6357L0.546303 38.4028L-0.023869 38.4028L-0.0236816 35.6357Z" fill="white"/>
</mask>
<g mask="url(#mask7_106_19891)">
<path d="M0.526773 37.0304C0.52677 37.076 0.524541 37.1214 0.520086 37.1667C0.51563 37.2121 0.508949 37.2569 0.50032 37.3017C0.491412 37.3462 0.480278 37.3902 0.466918 37.4339C0.453837 37.4773 0.438529 37.5201 0.420995 37.5622C0.40374 37.6042 0.384258 37.6454 0.362829 37.6854C0.3414 37.7258 0.318022 37.7647 0.292697 37.8026C0.267372 37.8404 0.240378 37.8769 0.211436 37.9119C0.182493 37.9473 0.15216 37.9809 0.119879 38.0129C0.0875974 38.0452 0.0539249 38.0758 0.0188611 38.1047C-0.0164809 38.1334 -0.052936 38.1607 -0.0907821 38.1857C-0.128628 38.211 -0.167587 38.2344 -0.207659 38.2558C-0.247732 38.2773 -0.288917 38.2967 -0.330936 38.3143C-0.372956 38.3315 -0.41581 38.3471 -0.459499 38.3602C-0.50291 38.3732 -0.547155 38.3844 -0.591679 38.3933C-0.636202 38.4022 -0.681282 38.4088 -0.72664 38.4133C-0.77172 38.4177 -0.817356 38.42 -0.862714 38.42C-0.90835 38.42 -0.953708 38.4177 -0.999065 38.4133C-1.04414 38.4088 -1.08922 38.4021 -1.13375 38.3932C-1.17855 38.3843 -1.22251 38.3732 -1.2662 38.3601C-1.30961 38.347 -1.35246 38.3314 -1.39448 38.3142C-1.43649 38.2967 -1.47768 38.2772 -1.51775 38.2557C-1.55782 38.2343 -1.59677 38.2109 -1.63461 38.1856C-1.67246 38.1606 -1.70919 38.1333 -1.74425 38.1046C-1.77931 38.0757 -1.81297 38.0451 -1.84525 38.0128C-1.87753 37.9808 -1.90786 37.9471 -1.93679 37.9118C-1.96573 37.8767 -1.99272 37.8403 -2.01804 37.8024C-2.04336 37.7646 -2.06673 37.7256 -2.08816 37.6853C-2.10958 37.6452 -2.12906 37.604 -2.14659 37.562C-2.16384 37.52 -2.17914 37.4771 -2.19249 37.4337C-2.20557 37.39 -2.21669 37.346 -2.2256 37.3015C-2.2345 37.2567 -2.24117 37.2119 -2.24562 37.1666C-2.25007 37.1212 -2.25229 37.0758 -2.25229 37.0302C-2.25229 36.9848 -2.25006 36.9395 -2.2456 36.8941C-2.24115 36.8488 -2.23447 36.804 -2.22556 36.7592C-2.21665 36.7146 -2.20552 36.6704 -2.19244 36.627C-2.17908 36.5833 -2.16377 36.5407 -2.14651 36.4984C-2.12898 36.4564 -2.1095 36.4155 -2.08807 36.3752C-2.06664 36.3351 -2.04326 36.2961 -2.01794 36.2583C-1.99261 36.2205 -1.96562 36.184 -1.93668 36.1489C-1.90773 36.1136 -1.8774 36.0799 -1.84512 36.0477C-1.81284 36.0157 -1.77916 35.9851 -1.7441 35.9561C-1.70904 35.9275 -1.6723 35.9002 -1.63446 35.8749C-1.59661 35.8498 -1.55765 35.8265 -1.51758 35.8048C-1.47751 35.7833 -1.43632 35.7641 -1.3943 35.7466C-1.35228 35.7291 -1.30943 35.7138 -1.26602 35.7007C-1.22233 35.6873 -1.17836 35.6765 -1.13356 35.6676C-1.08904 35.6587 -1.04396 35.652 -0.998878 35.6476C-0.95352 35.6431 -0.908162 35.6409 -0.862526 35.6409C-0.817168 35.6409 -0.771532 35.6431 -0.726453 35.6476C-0.681096 35.652 -0.636017 35.6587 -0.591494 35.6676C-0.546972 35.6765 -0.502728 35.6874 -0.459319 35.7008C-0.415632 35.7138 -0.37278 35.7291 -0.330762 35.7467C-0.288745 35.7642 -0.247563 35.7834 -0.207493 35.8051C-0.167424 35.8266 -0.128468 35.8499 -0.0906256 35.875C-0.0527829 35.9003 -0.0163315 35.9276 0.0190066 35.9562C0.0540665 35.9852 0.0877348 36.0158 0.120012 36.0478C0.152289 36.0801 0.182618 36.1138 0.211555 36.1491C0.240493 36.1842 0.267482 36.2206 0.292802 36.2585C0.318122 36.2963 0.341494 36.3353 0.362918 36.3753C0.384341 36.4157 0.403818 36.4566 0.421067 36.4986C0.438595 36.5409 0.453897 36.5835 0.466973 36.6272C0.480327 36.6706 0.491455 36.7148 0.500356 36.7594C0.508979 36.8042 0.515655 36.849 0.520104 36.8943C0.524553 36.9397 0.526776 36.985 0.526773 37.0304Z" fill="#0292B7"/>
</g>
<mask id="mask8_106_19891" style="mask-type:luminance" maskUnits="userSpaceOnUse" x="-1" y="27" width="5" height="6">
<path d="M-0.0231934 27.7285L3.68139 27.7287L3.68108 32.2879L-0.023502 32.2876L-0.0231934 27.7285Z" fill="white"/>
</mask>
<g mask="url(#mask8_106_19891)">
<path d="M3.6153 30.0058C3.61529 30.0792 3.61167 30.1522 3.60443 30.2253C3.59719 30.2982 3.58661 30.3706 3.57214 30.4424C3.55794 30.5145 3.54013 30.5854 3.5187 30.6555C3.49754 30.7257 3.47277 30.7947 3.44466 30.8623C3.41683 30.9302 3.38538 30.9964 3.35087 31.061C3.31636 31.1255 3.27879 31.1884 3.23788 31.2493C3.19725 31.3103 3.15356 31.3693 3.10709 31.4258C3.06061 31.4825 3.01135 31.5368 2.95959 31.5885C2.90783 31.6403 2.85357 31.6895 2.7968 31.736C2.74003 31.7825 2.68131 31.8262 2.62036 31.8668C2.55942 31.9077 2.49653 31.9452 2.43197 31.9797C2.36713 32.0142 2.30118 32.0457 2.23328 32.0738C2.16566 32.1019 2.09665 32.1264 2.02652 32.1478C1.9564 32.1689 1.88544 32.1867 1.81336 32.2009C1.74157 32.2154 1.66922 32.226 1.59603 32.2332C1.52313 32.2404 1.44994 32.244 1.37676 32.244C1.30357 32.244 1.23039 32.2404 1.15748 32.2332C1.0843 32.2259 1.01195 32.2153 0.940159 32.2009C0.868088 32.1867 0.797131 32.1688 0.727009 32.1477C0.656886 32.1263 0.587878 32.1018 0.52026 32.0737C0.452365 32.0456 0.386417 32.0141 0.321583 31.9796C0.257027 31.9451 0.194141 31.9075 0.133203 31.8666C0.0722653 31.826 0.0135536 31.7823 -0.0432099 31.7358C-0.0999735 31.6893 -0.154233 31.6401 -0.205987 31.5883C-0.257741 31.5366 -0.306991 31.4823 -0.353458 31.4255C-0.399925 31.369 -0.443609 31.31 -0.484232 31.2491C-0.525133 31.1881 -0.562695 31.1253 -0.597196 31.0607C-0.631697 30.9961 -0.663137 30.9299 -0.691237 30.862C-0.71906 30.7944 -0.743821 30.7254 -0.764965 30.6552C-0.786387 30.5851 -0.804191 30.5142 -0.818378 30.4421C-0.832843 30.3703 -0.843412 30.2979 -0.850642 30.225C-0.857872 30.1518 -0.861485 30.0789 -0.86148 30.0055C-0.861475 29.9323 -0.857852 29.8591 -0.850612 29.7862C-0.843372 29.7133 -0.832793 29.6407 -0.818319 29.5689C-0.804122 29.4971 -0.786308 29.4259 -0.764877 29.3557C-0.743724 29.2856 -0.718953 29.2166 -0.691122 29.149C-0.663012 29.0814 -0.631563 29.0151 -0.597053 28.9503C-0.562544 28.8857 -0.524973 28.8229 -0.484064 28.7619C-0.443432 28.701 -0.39974 28.6423 -0.353266 28.5855C-0.306791 28.529 -0.257534 28.4748 -0.205773 28.4227C-0.154011 28.371 -0.0997455 28.3217 -0.0429756 28.2753C0.0137942 28.2288 0.0725118 28.1851 0.133455 28.1445C0.194399 28.1039 0.25729 28.066 0.321851 28.0315C0.386689 27.997 0.452641 27.9659 0.52054 27.9378C0.588161 27.9097 0.657174 27.8849 0.727299 27.8638C0.797424 27.8423 0.868383 27.8245 0.940456 27.8103C1.01225 27.7962 1.0846 27.7853 1.15779 27.7781C1.23069 27.7708 1.30388 27.7672 1.37706 27.7672C1.45025 27.7672 1.52343 27.7709 1.59634 27.7781C1.66952 27.7853 1.74187 27.7962 1.81366 27.8104C1.88573 27.8246 1.95669 27.8424 2.02681 27.8638C2.09693 27.885 2.16594 27.9098 2.23356 27.9379C2.30146 27.966 2.3674 27.9972 2.43224 28.0317C2.49679 28.0662 2.55968 28.104 2.62062 28.1447C2.68155 28.1853 2.74027 28.229 2.79703 28.2755C2.85379 28.3219 2.90805 28.3712 2.95981 28.4229C3.01156 28.475 3.06081 28.5293 3.10728 28.5857C3.15375 28.6425 3.19743 28.7012 3.23805 28.7622C3.27895 28.8231 3.31652 28.886 3.35102 28.9506C3.38552 29.0154 3.41696 29.0816 3.44478 29.1493C3.47288 29.2169 3.49764 29.2859 3.51878 29.356C3.54021 29.4261 3.55801 29.4974 3.5722 29.5692C3.58666 29.641 3.59723 29.7136 3.60446 29.7865C3.61169 29.8594 3.6153 29.9326 3.6153 30.0058Z" fill="#1AC8DB"/>
</g>
<path d="M5.54457 33.9042C5.54457 33.9726 5.53789 34.0405 5.52452 34.1076C5.51144 34.1746 5.4914 34.2397 5.46524 34.3029C5.43908 34.3661 5.40707 34.4262 5.36895 34.4832C5.3311 34.54 5.28796 34.5926 5.23954 34.641C5.19112 34.6894 5.13852 34.7325 5.08148 34.7707C5.02471 34.8085 4.9646 34.8408 4.90143 34.8669C4.83826 34.8931 4.77287 34.9128 4.7058 34.9262C4.63874 34.9395 4.57112 34.9462 4.50267 34.9462C4.43421 34.9462 4.36632 34.9395 4.29925 34.9262C4.23219 34.9128 4.16708 34.893 4.10391 34.8669C4.04075 34.8407 3.98064 34.8084 3.9236 34.7706C3.86684 34.7325 3.81425 34.6893 3.76583 34.6409C3.71742 34.5925 3.67429 34.5399 3.63617 34.4831C3.59833 34.4261 3.56606 34.366 3.5399 34.3028C3.51375 34.2396 3.494 34.1745 3.48064 34.1074C3.46729 34.0404 3.46062 33.9725 3.46062 33.904C3.46063 33.8356 3.46731 33.7679 3.48067 33.7009C3.49403 33.6338 3.51379 33.5684 3.53996 33.5053C3.56612 33.4421 3.5984 33.382 3.63625 33.3252C3.67438 33.2682 3.71751 33.2156 3.76593 33.1672C3.81435 33.119 3.86695 33.0756 3.92372 33.0378C3.98077 32.9997 4.04088 32.9677 4.10404 32.9415C4.16721 32.9154 4.23233 32.8956 4.29939 32.8823C4.36646 32.8689 4.43435 32.8622 4.50281 32.8623C4.57126 32.8623 4.63888 32.8689 4.70594 32.8823C4.773 32.8957 4.8384 32.9154 4.90156 32.9416C4.96473 32.9677 5.02483 32.9998 5.08159 33.0379C5.13864 33.0757 5.19123 33.1191 5.23964 33.1673C5.28806 33.2157 5.33119 33.2683 5.36903 33.3254C5.40714 33.3821 5.43914 33.4422 5.46529 33.5054C5.49145 33.5686 5.51148 33.634 5.52455 33.701C5.5379 33.7681 5.54458 33.8357 5.54457 33.9042Z" fill="#99DFEC"/>
<path d="M3.98456 24.259C3.98455 24.3216 3.98149 24.384 3.97536 24.4463C3.96923 24.5083 3.96005 24.5704 3.9478 24.6316C3.93555 24.6931 3.92024 24.7535 3.90215 24.8136C3.88406 24.8734 3.86291 24.9321 3.83897 24.99C3.81504 25.0479 3.78832 25.1044 3.75882 25.1595C3.72932 25.2146 3.69731 25.2683 3.66253 25.3203C3.62774 25.3723 3.59045 25.4224 3.55065 25.4708C3.51114 25.5193 3.46911 25.5655 3.42487 25.6097C3.38062 25.6539 3.33442 25.696 3.286 25.7355C3.23758 25.7753 3.18749 25.8125 3.13545 25.8473C3.08341 25.8821 3.02971 25.9141 2.97461 25.9436C2.91951 25.9731 2.86302 25.9998 2.80514 26.0237C2.74725 26.0476 2.68854 26.0688 2.62871 26.0869C2.56888 26.105 2.50822 26.1203 2.44672 26.1325C2.3855 26.1447 2.32372 26.1536 2.26139 26.1598C2.19906 26.1661 2.13673 26.1692 2.07412 26.1692C2.01151 26.1692 1.94917 26.1661 1.88684 26.1597C1.82451 26.1536 1.76273 26.1447 1.70152 26.1324C1.64002 26.1202 1.57936 26.1049 1.51953 26.0868C1.45971 26.0687 1.40099 26.0476 1.34311 26.0236C1.28524 25.9997 1.22875 25.973 1.17365 25.9435C1.11856 25.914 1.06486 25.882 1.01282 25.8472C0.960788 25.8124 0.910703 25.7751 0.862286 25.7353C0.813871 25.6958 0.767681 25.6538 0.723439 25.6095C0.679197 25.5653 0.637182 25.5191 0.597393 25.4706C0.557882 25.4222 0.520598 25.3721 0.485818 25.3201C0.451038 25.2681 0.41904 25.2144 0.389548 25.1593C0.360055 25.1042 0.333345 25.0477 0.309418 24.9898C0.285491 24.9319 0.264346 24.8732 0.246263 24.8134C0.22818 24.7532 0.212879 24.6929 0.200639 24.6314C0.1884 24.5701 0.179221 24.5081 0.173103 24.446C0.166986 24.3837 0.163929 24.3214 0.163933 24.2588C0.163937 24.1962 0.167003 24.1338 0.173129 24.0715C0.179255 24.0092 0.188442 23.9474 0.20069 23.8862C0.212938 23.8247 0.228247 23.764 0.246338 23.7042C0.26443 23.6444 0.285582 23.5856 0.309517 23.5278C0.333452 23.4699 0.360169 23.4134 0.38967 23.3583C0.41917 23.3032 0.451174 23.2495 0.485961 23.1975C0.520748 23.1454 0.55804 23.0953 0.597557 23.0469C0.637353 22.9985 0.679374 22.9523 0.723622 22.9081C0.76787 22.8638 0.814065 22.8218 0.862486 22.782C0.910908 22.7425 0.960999 22.7052 1.01304 22.6705C1.06508 22.6357 1.11878 22.6037 1.17388 22.5742C1.22898 22.5447 1.28547 22.518 1.34335 22.4941C1.40123 22.4701 1.45995 22.449 1.51978 22.4309C1.57961 22.4125 1.64027 22.3975 1.70177 22.3853C1.76299 22.373 1.82477 22.3639 1.8871 22.3577C1.94943 22.3516 2.01176 22.3486 2.07437 22.3486C2.13698 22.3486 2.19932 22.3516 2.26165 22.3578C2.32398 22.3639 2.38575 22.3731 2.44697 22.3853C2.50847 22.3976 2.56913 22.4126 2.62896 22.431C2.68878 22.4491 2.7475 22.4702 2.80537 22.4942C2.86325 22.5181 2.91974 22.5448 2.97483 22.5743C3.02993 22.6038 3.08363 22.6358 3.13567 22.6706C3.1877 22.7054 3.23779 22.7427 3.2862 22.7822C3.33462 22.822 3.38081 22.864 3.42505 22.9083C3.46929 22.9525 3.51131 22.9987 3.55082 23.0471C3.59061 23.0956 3.62789 23.1456 3.66267 23.1977C3.69745 23.2497 3.72945 23.3034 3.75894 23.3585C3.78843 23.4136 3.81514 23.4701 3.83907 23.528C3.863 23.5859 3.88414 23.6446 3.90223 23.7044C3.92031 23.7643 3.93561 23.8249 3.94785 23.8864C3.96009 23.9476 3.96927 24.0094 3.97539 24.0717C3.9815 24.1341 3.98456 24.1964 3.98456 24.259Z" fill="#99DFEC"/>
<mask id="mask9_106_19891" style="mask-type:luminance" maskUnits="userSpaceOnUse" x="3" y="27" width="3" height="3">
<path d="M3.96631 27.7287L5.83933 27.7288L5.8392 29.6522L3.96618 29.6521L3.96631 27.7287Z" fill="white"/>
</mask>
<g mask="url(#mask9_106_19891)">
<path d="M5.8373 28.7067C5.8373 28.7673 5.83145 28.8277 5.81948 28.8873C5.80779 28.9471 5.79025 29.005 5.76687 29.0612C5.7435 29.1174 5.71511 29.1708 5.68116 29.2215C5.64748 29.2718 5.60908 29.3186 5.56594 29.3617C5.52281 29.4048 5.47606 29.4432 5.42541 29.4769C5.37504 29.5108 5.32161 29.5392 5.2654 29.5626C5.20919 29.586 5.15131 29.6035 5.09148 29.6152C5.03193 29.6271 4.97155 29.633 4.91088 29.633C4.84994 29.633 4.78956 29.6271 4.73001 29.6151C4.67018 29.6034 4.6123 29.5859 4.5561 29.5625C4.49989 29.5392 4.44646 29.5108 4.3961 29.4768C4.34545 29.4431 4.29871 29.4047 4.25558 29.3616C4.21245 29.3185 4.17405 29.2717 4.14039 29.2213C4.10644 29.1707 4.07806 29.1173 4.05469 29.0611C4.03132 29.0048 4.01379 28.947 4.00211 28.8871C3.99015 28.8276 3.98431 28.7672 3.98431 28.7065C3.98432 28.6456 3.99016 28.5852 4.00213 28.5257C4.01383 28.4658 4.03136 28.408 4.05474 28.3518C4.07812 28.2955 4.1065 28.2421 4.14046 28.1918C4.17413 28.1411 4.21253 28.0944 4.25567 28.0512C4.2988 28.0081 4.34555 27.9697 4.3962 27.936C4.44657 27.9021 4.5 27.8737 4.55621 27.8503C4.61242 27.8273 4.6703 27.8095 4.73013 27.7978C4.78968 27.7858 4.85007 27.78 4.91101 27.78C4.97167 27.78 5.03205 27.7858 5.0916 27.7978C5.15143 27.8095 5.20931 27.8273 5.26552 27.8504C5.32173 27.8738 5.37515 27.9022 5.42552 27.9361C5.47616 27.9698 5.5229 28.0082 5.56603 28.0513C5.60916 28.0945 5.64756 28.1412 5.68123 28.1919C5.71517 28.2422 5.74355 28.2957 5.76692 28.3519C5.79029 28.4081 5.80782 28.466 5.8195 28.5258C5.83146 28.5853 5.8373 28.6457 5.8373 28.7067Z" fill="#99DFEC"/>
</g>
<path d="M37.8835 8.72502C37.8835 8.7957 37.8798 8.86638 37.8729 8.93678C37.8662 9.00718 37.8556 9.07703 37.842 9.14659C37.8281 9.21588 37.8108 9.28461 37.7902 9.35223C37.7699 9.42012 37.746 9.48663 37.719 9.55202C37.6917 9.61741 37.6616 9.68113 37.6282 9.74374C37.5948 9.80607 37.5584 9.86673 37.5191 9.92572C37.4799 9.98443 37.4376 10.0412 37.3928 10.096C37.348 10.1505 37.3004 10.2031 37.2503 10.2529C37.2002 10.303 37.1479 10.3506 37.0931 10.3954C37.0385 10.4405 36.9818 10.4825 36.9228 10.5217C36.8641 10.5612 36.8034 10.5974 36.7408 10.6308C36.6784 10.6642 36.6144 10.6945 36.549 10.7215C36.4836 10.7485 36.4171 10.7724 36.3495 10.793C36.2816 10.8136 36.2132 10.8306 36.1439 10.8445C36.0743 10.8584 36.0045 10.8687 35.9341 10.8756C35.8634 10.8826 35.793 10.8859 35.722 10.8859C35.6513 10.8859 35.5807 10.8826 35.5103 10.8756C35.4399 10.8686 35.37 10.8583 35.3004 10.8444C35.2312 10.8305 35.1624 10.8135 35.0948 10.7929C35.0269 10.7723 34.9604 10.7484 34.895 10.7214C34.8296 10.6944 34.7659 10.6641 34.7033 10.6307C34.641 10.5973 34.5803 10.5611 34.5213 10.5216C34.4626 10.4823 34.4058 10.4403 34.351 10.3952C34.2965 10.3504 34.2439 10.3028 34.1941 10.2527C34.144 10.2029 34.0964 10.1503 34.0516 10.0958C34.0066 10.041 33.9645 9.98419 33.9253 9.92548C33.8858 9.86648 33.8496 9.80582 33.8162 9.74348C33.7828 9.68087 33.7525 9.61714 33.7255 9.55175C33.6985 9.48635 33.6746 9.41985 33.654 9.35195C33.6334 9.28433 33.6165 9.21559 33.6026 9.1463C33.5887 9.07674 33.5784 9.00689 33.5714 8.93649C33.5645 8.86609 33.5611 8.79541 33.5611 8.72473C33.5611 8.65377 33.5645 8.58337 33.5714 8.51269C33.5784 8.44228 33.5887 8.37244 33.6026 8.30315C33.6165 8.23359 33.6335 8.16513 33.6541 8.09724C33.6747 8.02962 33.6986 7.96311 33.7256 7.89772C33.7526 7.83233 33.783 7.76833 33.8164 7.706C33.8498 7.64339 33.8859 7.58273 33.9255 7.52402C33.9647 7.46503 34.0067 7.40827 34.0518 7.35373C34.0966 7.29891 34.1442 7.2466 34.1943 7.19652C34.2441 7.14643 34.2967 7.09913 34.3512 7.05406C34.4061 7.00926 34.4628 6.96697 34.5218 6.92773C34.5806 6.8885 34.6412 6.85205 34.7036 6.81866C34.7662 6.78528 34.8299 6.75523 34.8953 6.72796C34.9607 6.70097 35.0272 6.67705 35.0951 6.65674C35.1627 6.63615 35.2314 6.6189 35.3007 6.605C35.3703 6.59136 35.4401 6.58107 35.5105 6.57412C35.581 6.56717 35.6516 6.56356 35.7223 6.56356C35.7933 6.56357 35.8637 6.56719 35.9344 6.57415C36.0048 6.58111 36.0746 6.59141 36.1442 6.60505C36.2135 6.61897 36.2819 6.63623 36.3498 6.65682C36.4174 6.67714 36.4839 6.70108 36.5493 6.72807C36.6147 6.75535 36.6787 6.78541 36.741 6.8188C36.8036 6.8522 36.8643 6.88866 36.923 6.9279C36.982 6.96714 37.0388 7.00944 37.0933 7.05424C37.1481 7.09932 37.2004 7.14663 37.2505 7.19673C37.3006 7.24682 37.3482 7.29914 37.393 7.35396C37.4378 7.4085 37.4801 7.46527 37.5193 7.52427C37.5585 7.58298 37.595 7.64365 37.6284 7.70626C37.6618 7.76859 37.6918 7.8326 37.7191 7.89799C37.7461 7.96339 37.77 8.0299 37.7903 8.09752C37.8109 8.16542 37.8281 8.23387 37.842 8.30344C37.8557 8.37273 37.8662 8.44257 37.8729 8.51298C37.8799 8.58366 37.8835 8.65406 37.8835 8.72502Z" fill="#1AC8DB"/>
<mask id="mask10_106_19891" style="mask-type:luminance" maskUnits="userSpaceOnUse" x="39" y="2" width="3" height="4">
<path d="M39.5151 2.22839L41.591 2.22853L41.5908 5.078L39.5149 5.07786L39.5151 2.22839Z" fill="white"/>
</mask>
<g mask="url(#mask10_106_19891)">
<path d="M42.361 3.63049C42.361 3.67612 42.3588 3.72148 42.3543 3.76684C42.3499 3.8122 42.3432 3.857 42.3343 3.9018C42.3254 3.94632 42.3142 3.99056 42.3011 4.03397C42.2878 4.07766 42.2725 4.12023 42.2552 4.16225C42.2377 4.20455 42.2182 4.24545 42.1968 4.28552C42.1753 4.32587 42.152 4.36482 42.1266 4.40267C42.1013 4.44051 42.0743 4.47696 42.0454 4.51202C42.0167 4.54736 41.9861 4.58103 41.9538 4.61302C41.9218 4.6453 41.8882 4.67591 41.8528 4.70485C41.8177 4.73351 41.781 4.76077 41.7432 4.78581C41.7053 4.81113 41.6664 4.83451 41.6263 4.85593C41.5862 4.87735 41.545 4.89683 41.503 4.91436C41.461 4.93189 41.4181 4.94719 41.3747 4.96026C41.331 4.97362 41.2871 4.98447 41.2423 4.99337C41.1977 5.00227 41.1527 5.00895 41.1076 5.0134C41.0622 5.01784 41.0169 5.02007 40.9712 5.02006C40.9259 5.02006 40.8802 5.01783 40.8352 5.01338C40.7898 5.00892 40.7447 5.00224 40.7002 4.99333C40.6557 4.98442 40.6114 4.97357 40.568 4.96021C40.5243 4.94713 40.4815 4.93182 40.4395 4.91429C40.3975 4.89675 40.3563 4.87755 40.3162 4.85584C40.2761 4.83441 40.2372 4.81104 40.1993 4.78571C40.1615 4.76066 40.125 4.73339 40.0897 4.70473C40.0546 4.67578 40.021 4.64517 39.9887 4.61289C39.9567 4.58089 39.9261 4.54722 39.8972 4.51187C39.8682 4.47681 39.8412 4.44036 39.8159 4.40251C39.7906 4.36466 39.7672 4.3257 39.7458 4.28535C39.7244 4.24528 39.7049 4.20437 39.6876 4.16208C39.6701 4.12006 39.6548 4.07748 39.6417 4.03379C39.6284 3.99038 39.6173 3.94614 39.6086 3.90161C39.5997 3.85681 39.5931 3.81201 39.5886 3.76665C39.5842 3.72129 39.5819 3.67593 39.5819 3.6303C39.5819 3.58494 39.5842 3.53958 39.5886 3.49423C39.5931 3.44887 39.5998 3.40407 39.6087 3.35927C39.6173 3.31475 39.6284 3.2705 39.6418 3.22709C39.6549 3.18341 39.6702 3.14083 39.6877 3.09881C39.705 3.05652 39.7245 3.01561 39.7459 2.97554C39.7673 2.9352 39.7907 2.89624 39.816 2.8584C39.8413 2.82056 39.8683 2.7841 39.8973 2.74904C39.9262 2.71371 39.9568 2.68004 39.9888 2.64776C40.0211 2.61576 40.0548 2.58516 40.0898 2.55622C40.1252 2.52756 40.1616 2.50029 40.1995 2.47497C40.2373 2.44993 40.2763 2.42656 40.3164 2.40513C40.3564 2.38343 40.3976 2.36423 40.4396 2.34671C40.4817 2.32918 40.5245 2.31388 40.5682 2.3008C40.6116 2.28745 40.6559 2.2766 40.7004 2.2677C40.7449 2.25879 40.79 2.25212 40.8354 2.24767C40.8804 2.24322 40.9261 2.241 40.9714 2.241C41.0171 2.241 41.0624 2.24323 41.1078 2.24769C41.1529 2.25214 41.1979 2.25882 41.2425 2.26773C41.2873 2.27664 41.3312 2.28749 41.3749 2.30085C41.4183 2.31394 41.4612 2.32924 41.5032 2.34678C41.5452 2.36431 41.5864 2.38351 41.6265 2.40522C41.6665 2.42665 41.7055 2.45003 41.7433 2.47508C41.7812 2.5004 41.8179 2.52767 41.853 2.55634C41.8883 2.58528 41.922 2.61589 41.954 2.64789C41.9862 2.68018 42.0168 2.71385 42.0455 2.74919C42.0744 2.78425 42.1014 2.82071 42.1268 2.85856C42.1521 2.8964 42.1754 2.93536 42.1969 2.97571C42.2183 3.01578 42.2378 3.05669 42.2553 3.09899C42.2725 3.14101 42.2878 3.18358 42.3012 3.22727C42.3143 3.27068 42.3254 3.31493 42.3343 3.35945C42.3432 3.40425 42.3499 3.44906 42.3543 3.49441C42.3588 3.53977 42.361 3.58513 42.361 3.63049Z" fill="#1AC8DB"/>
</g>
<path d="M40.0449 15.2093C40.0448 15.28 40.0412 15.3507 40.0343 15.4211C40.0273 15.4915 40.017 15.5613 40.0031 15.6309C39.9894 15.7002 39.9722 15.7689 39.9516 15.8365C39.931 15.9042 39.9073 15.9709 39.8801 16.0363C39.8531 16.1017 39.823 16.1654 39.7896 16.2281C39.7562 16.2904 39.7198 16.351 39.6805 16.4098C39.641 16.4687 39.599 16.5255 39.5542 16.5803C39.5091 16.6349 39.4618 16.6872 39.4117 16.7373C39.3616 16.7873 39.3093 16.8349 39.2545 16.8797C39.1999 16.9245 39.1431 16.9668 39.0841 17.006C39.0254 17.0453 38.9648 17.0817 38.9022 17.1151C38.8398 17.1485 38.7758 17.1788 38.7104 17.2058C38.645 17.2328 38.5785 17.2567 38.5109 17.2773C38.443 17.2976 38.3745 17.3149 38.305 17.3288C38.2357 17.3424 38.1658 17.353 38.0952 17.3599C38.0248 17.3669 37.9544 17.3702 37.8834 17.3702C37.8127 17.3702 37.742 17.3669 37.6716 17.3599C37.6012 17.3529 37.5311 17.3424 37.4618 17.3287C37.3925 17.3148 37.3238 17.2976 37.2562 17.2772C37.1883 17.2566 37.1218 17.2327 37.0564 17.2057C36.991 17.1787 36.927 17.1484 36.8647 17.115C36.8023 17.0816 36.7417 17.0451 36.6827 17.0059C36.624 16.9666 36.5672 16.9243 36.5124 16.8795C36.4579 16.8347 36.4053 16.7871 36.3552 16.7371C36.3054 16.687 36.2578 16.6346 36.213 16.5801C36.1679 16.5253 36.1259 16.4685 36.0867 16.4095C36.0472 16.3508 36.011 16.2901 35.9776 16.2278C35.9442 16.1652 35.9139 16.1015 35.8869 16.0361C35.8599 15.9707 35.836 15.9039 35.8154 15.8363C35.7948 15.7686 35.7779 15.6999 35.7639 15.6306C35.75 15.5611 35.7397 15.4912 35.7328 15.4208C35.7258 15.3504 35.7225 15.2797 35.7225 15.209C35.7225 15.1381 35.7259 15.0674 35.7328 14.997C35.7398 14.9266 35.7501 14.8568 35.764 14.7872C35.7779 14.7179 35.7949 14.6492 35.8155 14.5816C35.8361 14.5139 35.86 14.4472 35.887 14.3818C35.914 14.3164 35.9444 14.2526 35.9778 14.19C36.0111 14.1277 36.0473 14.067 36.0868 14.0083C36.1261 13.9493 36.1681 13.8926 36.2132 13.838C36.258 13.7832 36.3056 13.7309 36.3554 13.6808C36.4055 13.6307 36.4581 13.5832 36.5126 13.5384C36.5674 13.4936 36.6242 13.4513 36.6829 13.412C36.7419 13.3728 36.8026 13.3364 36.8649 13.303C36.9273 13.2696 36.9913 13.2395 37.0567 13.2123C37.1221 13.1853 37.1886 13.1614 37.2565 13.1408C37.3241 13.1205 37.3928 13.1032 37.4621 13.0893C37.5314 13.0757 37.6015 13.0651 37.6719 13.0582C37.7423 13.0515 37.813 13.0479 37.8837 13.0479C37.9546 13.0479 38.025 13.0515 38.0954 13.0582C38.1661 13.0651 38.236 13.0757 38.3053 13.0894C38.3748 13.1033 38.4433 13.1205 38.5112 13.1409C38.5788 13.1615 38.6453 13.1854 38.7107 13.2124C38.7761 13.2397 38.8401 13.2697 38.9024 13.3031C38.965 13.3365 39.0257 13.373 39.0844 13.4122C39.1434 13.4515 39.2001 13.4938 39.2547 13.5386C39.3095 13.5834 39.3618 13.6309 39.4119 13.681C39.462 13.7311 39.5093 13.7834 39.5544 13.8383C39.5992 13.8928 39.6412 13.9496 39.6807 14.0086C39.7199 14.0673 39.7564 14.128 39.7897 14.1903C39.8231 14.2529 39.8532 14.3166 39.8802 14.382C39.9074 14.4474 39.9311 14.5142 39.9517 14.5818C39.9723 14.6495 39.9895 14.7182 40.0031 14.7875C40.017 14.857 40.0273 14.9269 40.0343 14.9973C40.0412 15.0677 40.0449 15.1384 40.0449 15.2093Z" fill="#99DFEC"/>
<mask id="mask11_106_19891" style="mask-type:luminance" maskUnits="userSpaceOnUse" x="35" y="1" width="3" height="3">
<path d="M35.0986 1.10254L37.022 1.10267L37.0219 3.01187L35.0985 3.01174L35.0986 1.10254Z" fill="white"/>
</mask>
<g mask="url(#mask11_106_19891)">
<path d="M36.9579 2.02734C36.9579 2.08829 36.9521 2.14839 36.9401 2.20822C36.9284 2.26777 36.9109 2.32592 36.8875 2.38213C36.8641 2.43834 36.8357 2.49149 36.8018 2.54213C36.7681 2.59277 36.7297 2.63952 36.6865 2.68265C36.6434 2.7255 36.5967 2.7639 36.546 2.79784C36.4956 2.83151 36.4422 2.86017 36.386 2.88354C36.3298 2.90663 36.2719 2.92416 36.2121 2.93612C36.1525 2.94808 36.0922 2.95392 36.0315 2.95392C35.9705 2.95391 35.9102 2.94806 35.8506 2.93609C35.7908 2.92412 35.7329 2.90659 35.6767 2.88349C35.6205 2.86011 35.5671 2.83145 35.5167 2.79777C35.4661 2.76382 35.4193 2.72542 35.3762 2.68256C35.3331 2.63942 35.2947 2.59267 35.261 2.54203C35.227 2.49138 35.1987 2.43823 35.1753 2.38202C35.1519 2.3258 35.1344 2.26764 35.1227 2.20809C35.1108 2.14827 35.1049 2.08816 35.1049 2.02722C35.1049 1.96656 35.1108 1.90617 35.1227 1.84662C35.1344 1.7868 35.152 1.72892 35.1753 1.67271C35.1987 1.6165 35.2271 1.56308 35.2611 1.51243C35.2947 1.46207 35.3331 1.41504 35.3763 1.37219C35.4194 1.32907 35.4662 1.29067 35.5168 1.257C35.5672 1.22306 35.6206 1.19468 35.6768 1.1713C35.733 1.14793 35.7909 1.13041 35.8507 1.11845C35.9103 1.10676 35.9707 1.10064 36.0316 1.10065C36.0923 1.10065 36.1527 1.10678 36.2122 1.11847C36.272 1.13044 36.3299 1.14797 36.3861 1.17135C36.4423 1.19473 36.4958 1.22312 36.5461 1.25707C36.5968 1.29074 36.6435 1.32915 36.6866 1.37228C36.7298 1.41514 36.7682 1.46217 36.8018 1.51254C36.8358 1.56318 36.8642 1.61661 36.8875 1.67283C36.9109 1.72904 36.9284 1.78692 36.9401 1.84675C36.9521 1.9063 36.9579 1.96668 36.9579 2.02734Z" fill="#99DFEC"/>
</g>
<path d="M40.9711 9.57392C40.9711 9.61956 40.9666 9.66464 40.9577 9.70944C40.9488 9.75424 40.9357 9.79765 40.9182 9.83967C40.9006 9.88168 40.8795 9.92175 40.8542 9.9596C40.8288 9.99772 40.7999 10.0328 40.7676 10.0651C40.7353 10.0971 40.7003 10.126 40.6624 10.1513C40.6246 10.1766 40.5845 10.1981 40.5425 10.2156C40.5002 10.2328 40.4568 10.2462 40.412 10.2551C40.3675 10.264 40.3221 10.2684 40.2767 10.2684C40.2311 10.2684 40.1857 10.264 40.1412 10.2551C40.0964 10.2462 40.053 10.2328 40.011 10.2155C39.9687 10.198 39.9286 10.1766 39.8908 10.1513C39.8529 10.1259 39.8179 10.097 39.7856 10.065C39.7533 10.0327 39.7247 9.99764 39.6991 9.95952C39.6738 9.92167 39.6526 9.8816 39.6351 9.83958C39.6176 9.79756 39.6045 9.75415 39.5956 9.70935C39.5867 9.66455 39.5822 9.61947 39.5822 9.57383C39.5822 9.52819 39.5867 9.48311 39.5956 9.43831C39.6045 9.39351 39.6176 9.3501 39.6351 9.30809C39.6527 9.26579 39.6738 9.226 39.6994 9.18788C39.7247 9.15004 39.7534 9.11498 39.7857 9.0827C39.818 9.05042 39.853 9.02176 39.8909 8.99644C39.9287 8.97112 39.9688 8.9497 40.0111 8.93217C40.0531 8.91492 40.0965 8.90157 40.1413 8.89267C40.1858 8.88377 40.2312 8.87932 40.2768 8.87932C40.3222 8.87932 40.3675 8.88378 40.4121 8.89269C40.4569 8.90159 40.5003 8.91495 40.5426 8.93221C40.5846 8.94974 40.6247 8.97117 40.6625 8.9965C40.7003 9.02182 40.7354 9.05049 40.7677 9.08277C40.8 9.11505 40.8289 9.15011 40.8542 9.18796C40.8795 9.22608 40.901 9.26588 40.9182 9.30817C40.9357 9.35019 40.9488 9.3936 40.9577 9.43841C40.9666 9.48321 40.9711 9.52829 40.9711 9.57392Z" fill="#0292B7"/>
<mask id="mask12_106_19891" style="mask-type:luminance" maskUnits="userSpaceOnUse" x="6" y="11" width="30" height="10">
<path d="M35.0979 11.2751L6.60327 11.2732L6.60263 20.8189L35.0973 20.8208L35.0979 11.2751Z" fill="white"/>
</mask>
<g mask="url(#mask12_106_19891)">
<path d="M16.4854 15.2665L16.4856 12.5305C16.4856 12.4543 16.5045 12.3942 16.5424 12.3502C16.5802 12.3057 16.6295 12.2835 16.6904 12.2835L17.4529 12.2835C17.9359 12.2835 18.3027 12.4055 18.5537 12.6487C18.8044 12.8922 18.9298 13.2754 18.9298 13.7985C18.9297 14.9177 18.4525 15.477 17.4983 15.4769L16.718 15.4769C16.5627 15.4769 16.4854 15.4067 16.4854 15.2665ZM17.3615 13.1506L17.3614 14.5141C17.3614 14.5781 17.3659 14.6185 17.3748 14.6354C17.3837 14.6518 17.411 14.6599 17.4571 14.6599C17.6241 14.6599 17.751 14.5976 17.8378 14.473C17.9247 14.3483 17.9681 14.141 17.9681 13.8508C17.9681 13.5608 17.9231 13.3716 17.8335 13.2831C17.7436 13.1949 17.6014 13.1506 17.4072 13.1506L17.3615 13.1506Z" fill="black"/>
<path d="M20.6515 15.5227C20.2241 15.5227 19.8757 15.383 19.6064 15.103C19.3376 14.8234 19.2035 14.4151 19.2035 13.8786C19.2035 13.3416 19.3394 12.9348 19.611 12.6587C19.8831 12.3822 20.2346 12.2436 20.6651 12.2436C21.0953 12.2437 21.4426 12.38 21.7069 12.6522C21.9718 12.9238 22.1042 13.3357 22.1042 13.8877C22.1041 14.4398 21.9686 14.8505 21.6978 15.1199C21.4276 15.3887 21.0789 15.5228 20.6515 15.5227ZM20.6539 13.1185C20.5075 13.1185 20.3851 13.1858 20.2866 13.3199C20.1878 13.4535 20.1385 13.6413 20.1385 13.8831C20.1385 14.1252 20.1855 14.3106 20.2798 14.4397C20.3739 14.5688 20.498 14.6334 20.6516 14.6334C20.8052 14.6334 20.9298 14.5683 21.0256 14.4375C21.1213 14.3062 21.1692 14.1192 21.1692 13.8765C21.1692 13.6333 21.1197 13.4463 21.0212 13.3155C20.9224 13.1842 20.8 13.1185 20.6539 13.1185Z" fill="black"/>
<path d="M23.8414 15.4039C23.8414 15.4648 23.6905 15.4951 23.3894 15.4951C23.0889 15.4951 22.9387 15.4647 22.9387 15.4038L22.9388 13.1142L22.3912 13.1142C22.34 13.1142 22.3035 13.0446 22.2821 12.9049C22.2732 12.8381 22.2688 12.7699 22.2688 12.7001C22.2688 12.6297 22.2732 12.561 22.2821 12.4942C22.3036 12.3539 22.34 12.2838 22.3912 12.2838L24.3758 12.284C24.4276 12.284 24.4641 12.3541 24.4849 12.4943C24.4944 12.5611 24.4994 12.6299 24.4994 12.7003C24.4994 12.7701 24.4944 12.8383 24.4849 12.9051C24.464 13.0447 24.4275 13.1143 24.3758 13.1143L23.8415 13.1143L23.8414 15.4039Z" fill="black"/>
<mask id="mask13_106_19891" style="mask-type:luminance" maskUnits="userSpaceOnUse" x="6" y="16" width="3" height="4">
<path d="M6.62549 16.5447L8.95376 16.5449L8.95354 19.8218L6.62527 19.8216L6.62549 16.5447Z" fill="white"/>
</mask>
<g mask="url(#mask13_106_19891)">
<path d="M8.24419 19.674C8.24419 19.7349 8.09336 19.7653 7.79228 19.7652C7.49175 19.7652 7.34149 19.7349 7.34149 19.6739L7.34164 17.3844L6.79401 17.3843C6.74281 17.3843 6.70636 17.3147 6.68495 17.1751C6.67605 17.1083 6.6716 17.0401 6.6716 16.9702C6.67161 16.8998 6.67606 16.8311 6.68497 16.7643C6.70641 16.6241 6.74287 16.554 6.79407 16.554L8.77868 16.5541C8.83044 16.5541 8.86688 16.6242 8.88774 16.7645C8.8972 16.8313 8.90221 16.9 8.9022 16.9704C8.9022 17.0402 8.89718 17.1084 8.88772 17.1752C8.86684 17.3149 8.83038 17.3845 8.77862 17.3845L8.24435 17.3844L8.24419 19.674Z" fill="black"/>
</g>
<path d="M11.6424 19.6697C11.6424 19.7218 11.4888 19.7476 11.1816 19.7476C10.8744 19.7476 10.7208 19.7217 10.7208 19.6697L10.7209 18.6212L10.0831 18.6211L10.083 19.6696C10.083 19.7217 9.92942 19.7475 9.62222 19.7475C9.31501 19.7475 9.16141 19.7216 9.16141 19.6696L9.16161 16.6453C9.16162 16.5816 9.31523 16.5496 9.62243 16.5497C9.92964 16.5497 10.0832 16.5817 10.0832 16.6454L10.0832 17.7173L10.721 17.7173L10.721 16.6555C10.721 16.6126 10.797 16.582 10.9492 16.5642C11.0285 16.5575 11.1062 16.5542 11.1818 16.5542L11.4145 16.5642C11.5664 16.5821 11.6427 16.6127 11.6427 16.6555L11.6424 19.6697Z" fill="black"/>
<path d="M13.5809 17.8233C13.6388 17.8233 13.6677 17.9298 13.6677 18.1427C13.6677 18.2067 13.6605 18.2819 13.6466 18.3687C13.6332 18.4549 13.6081 18.4978 13.572 18.4978L12.9921 18.4977L12.992 18.9541L13.8313 18.9542C13.883 18.9542 13.9181 19.021 13.9359 19.1545C13.9454 19.2124 13.9504 19.2742 13.9504 19.3393C13.9503 19.4047 13.9409 19.4893 13.9225 19.5931C13.9047 19.6963 13.8741 19.7478 13.8312 19.7478L12.2718 19.7477C12.1561 19.7477 12.0982 19.7006 12.0982 19.6063L12.0984 16.6734C12.0984 16.5941 12.1332 16.5543 12.203 16.5543L13.8359 16.5544C13.8996 16.5544 13.9316 16.6891 13.9316 16.9584C13.9316 17.2278 13.8996 17.3625 13.8358 17.3625L12.9921 17.3624L12.9921 17.8232L13.5809 17.8233Z" fill="black"/>
<path d="M17.7041 19.6479C17.7041 19.7119 17.5608 19.7436 17.2744 19.7436C16.9887 19.7436 16.8337 19.7207 16.8092 19.6746L16.0479 18.252L16.0478 19.67C16.0478 19.7251 15.907 19.7524 15.626 19.7524C15.3447 19.7524 15.2041 19.7251 15.2041 19.67L15.2043 16.6191C15.2043 16.5731 15.3246 16.5501 15.565 16.5501C15.659 16.5501 15.7692 16.5587 15.8956 16.5757C16.0216 16.5921 16.0984 16.6233 16.126 16.6692L16.8549 18.074L16.855 16.6414C16.855 16.5836 16.9964 16.5546 17.2791 16.5546C17.5624 16.5547 17.7043 16.5836 17.7043 16.6415L17.7041 19.6479Z" fill="black"/>
<path d="M19.6511 16.6461C19.6511 16.5854 19.8159 16.5548 20.1454 16.5548C20.4754 16.5549 20.6407 16.5855 20.6407 16.6461L20.6405 18.7398C20.6405 19.0501 20.5295 19.3036 20.3077 19.5C20.0856 19.6959 19.7792 19.7938 19.3882 19.7938C18.9978 19.7938 18.6803 19.693 18.4355 19.491C18.1906 19.2884 18.0682 19.0154 18.0682 18.6718L18.0684 16.6504C18.0684 16.5897 18.2331 16.5592 18.5626 16.5592C18.8926 16.5592 19.0579 16.5898 19.0579 16.6505L19.0577 18.7086C19.0577 18.7695 19.0895 18.8182 19.1534 18.8544C19.2202 18.8908 19.2898 18.9089 19.3627 18.9089C19.4362 18.9089 19.5024 18.8922 19.5619 18.8588C19.6212 18.8255 19.651 18.7754 19.651 18.7086L19.6511 16.6461Z" fill="black"/>
<path d="M24.2167 19.7529C23.9457 19.7529 23.8105 19.7226 23.8105 19.6616L23.7149 17.8329L23.1582 19.685C23.1454 19.7214 23.0419 19.7395 22.8476 19.7395C22.6531 19.7395 22.553 19.7228 22.5471 19.6894L21.9718 17.8138L21.9082 19.6348C21.9052 19.6802 21.8473 19.7113 21.7346 19.7283C21.6224 19.7447 21.5289 19.7528 21.4541 19.7528C21.3798 19.7527 21.3077 19.7483 21.2381 19.7394C21.0918 19.7179 21.0203 19.6798 21.0233 19.6247L21.1282 16.6606C21.1282 16.5872 21.3135 16.5504 21.6847 16.5505C21.7943 16.5505 21.9285 16.5591 22.0865 16.5761C22.2446 16.5925 22.3325 16.6251 22.3503 16.6741L22.8611 18.1111L23.3087 16.6697C23.3359 16.5904 23.546 16.5506 23.9387 16.5506C24.0505 16.5506 24.1849 16.5593 24.3416 16.5762C24.498 16.5927 24.5765 16.6224 24.5765 16.6653L24.7087 19.6573C24.7087 19.6906 24.6492 19.7151 24.5306 19.7307C24.4118 19.7457 24.3072 19.7529 24.2167 19.7529Z" fill="black"/>
<path d="M27.3996 17.3812C27.3995 17.6973 27.2626 17.9378 26.9888 18.1025C27.1379 18.1567 27.2626 18.2511 27.3628 18.3852C27.4629 18.5188 27.513 18.708 27.513 18.9529C27.513 19.1978 27.4222 19.392 27.2414 19.535C27.061 19.6775 26.802 19.7487 26.4644 19.7487L25.3881 19.7486C25.336 19.7486 25.2935 19.7313 25.2601 19.6963C25.2267 19.6615 25.21 19.615 25.21 19.5571L25.2102 16.6375C25.2102 16.6042 25.2152 16.5824 25.2258 16.5719C25.2369 16.5607 25.2592 16.5552 25.2926 16.5552L26.3322 16.5553C27.0437 16.5553 27.3996 16.8308 27.3996 17.3812ZM26.0861 17.2943L26.0861 17.892L26.1084 17.892C26.4005 17.8921 26.5469 17.795 26.5469 17.6004C26.5469 17.4936 26.5186 17.4162 26.4624 17.3678C26.4059 17.3188 26.3124 17.2943 26.1819 17.2943L26.0861 17.2943ZM26.0861 18.4308L26.086 19.0229L26.1684 19.0229C26.2989 19.0229 26.3946 18.999 26.4556 18.9506C26.5162 18.9016 26.5469 18.8243 26.5469 18.718C26.5469 18.6111 26.5185 18.5365 26.4623 18.4942C26.4058 18.4519 26.3123 18.4308 26.1818 18.4308L26.0861 18.4308Z" fill="black"/>
<path d="M29.3514 17.8244C29.4093 17.8244 29.4382 17.9309 29.4382 18.1438C29.4382 18.2078 29.431 18.283 29.4171 18.3698C29.4037 18.456 29.3786 18.4989 29.3425 18.4989L28.7626 18.4988L28.7625 18.9552L29.6018 18.9553C29.6535 18.9553 29.6886 19.0221 29.7064 19.1556C29.7159 19.2135 29.7209 19.2753 29.7209 19.3404C29.7209 19.4058 29.7114 19.4904 29.693 19.5942C29.6752 19.6974 29.6446 19.7489 29.6017 19.7489L28.0423 19.7488C27.9266 19.7488 27.8687 19.7017 27.8687 19.6074L27.8689 16.6745C27.8689 16.5952 27.9037 16.5554 27.9735 16.5554L29.6064 16.5555C29.6701 16.5555 29.7021 16.6902 29.7021 16.9595C29.7021 17.2289 29.6701 17.3636 29.6063 17.3636L28.7626 17.3635L28.7626 17.8243L29.3514 17.8244Z" fill="black"/>
<path d="M30.9888 19.6855C30.9888 19.7339 30.8441 19.7578 30.5547 19.7578C30.263 19.7578 30.1172 19.7353 30.1172 19.6899L30.1174 16.7158C30.1174 16.6089 30.1736 16.5555 30.2866 16.5555L31.157 16.5556C31.9568 16.5556 32.3569 16.8673 32.3569 17.4906C32.3569 17.6798 32.3201 17.8512 32.2466 18.0048C32.1737 18.1579 32.0708 18.2798 31.9372 18.371L32.5115 19.3294C32.4875 19.4023 32.4085 19.4858 32.2744 19.5798C32.0918 19.7112 31.941 19.7768 31.8224 19.7768C31.7045 19.7768 31.6165 19.7342 31.5587 19.6488L31.1302 18.6492L30.9888 18.6492L30.9888 19.6855ZM30.9889 17.3636L30.9889 18.0471L31.0111 18.0471C31.2997 18.0471 31.4441 17.9274 31.4441 17.6876C31.4441 17.5779 31.4158 17.4967 31.3596 17.4438C31.3039 17.3904 31.2121 17.3636 31.0846 17.3636L30.9889 17.3636Z" fill="black"/>
<path d="M32.926 18.636C32.9838 18.6822 33.0832 18.7448 33.2243 18.8241C33.3659 18.9029 33.5014 18.9421 33.6305 18.9421C33.7602 18.9421 33.8253 18.8918 33.8253 18.7908C33.8253 18.7457 33.8067 18.7056 33.7697 18.6705C33.7332 18.6358 33.6664 18.5957 33.5693 18.5503C33.4719 18.5044 33.399 18.4685 33.3501 18.4423C33.3016 18.4165 33.2371 18.3739 33.1564 18.3143C33.0763 18.255 33.0145 18.1935 32.9716 18.1295C32.8506 17.9567 32.7902 17.7363 32.7903 17.4684C32.7903 17.2007 32.8896 16.975 33.0886 16.7916C33.2873 16.6077 33.5483 16.5156 33.8711 16.5156C34.0898 16.5157 34.2921 16.5396 34.4777 16.5869C34.6631 16.6337 34.7588 16.6949 34.7649 16.7706C34.7649 16.7795 34.7649 16.789 34.7649 16.7984C34.7649 16.9047 34.7315 17.0394 34.6647 17.2025C34.5979 17.365 34.5506 17.4551 34.5233 17.4729C34.328 17.3727 34.1538 17.3226 34.0002 17.3226C33.8471 17.3226 33.7709 17.3772 33.7709 17.4862C33.7709 17.5539 33.8268 17.6131 33.9389 17.6643C33.9634 17.6771 33.9982 17.6941 34.0436 17.7155C34.0895 17.7364 34.1421 17.7612 34.2016 17.7901C34.2609 17.8191 34.3246 17.8558 34.393 17.9003C34.4612 17.9443 34.535 18.0025 34.6145 18.0751C34.7754 18.2273 34.8561 18.428 34.856 18.6773C34.856 19.0023 34.7661 19.2683 34.5866 19.4754C34.4068 19.6824 34.1302 19.7887 33.7562 19.7947C33.5737 19.7947 33.4084 19.7794 33.2609 19.7491C33.114 19.7187 32.9854 19.6595 32.8758 19.571C32.7667 19.4827 32.7122 19.3762 32.7122 19.2515C32.7122 19.1268 32.7348 19.003 32.7801 18.8797C32.8261 18.7567 32.8748 18.6755 32.926 18.636Z" fill="black"/>
</g>
<mask id="mask14_106_19891" style="mask-type:luminance" maskUnits="userSpaceOnUse" x="14" y="25" width="12" height="3">
<path d="M25.0525 25.2368L14.7231 25.2361L14.723 27.4445L25.0523 27.4452L25.0525 25.2368Z" fill="white"/>
</mask>
<g mask="url(#mask14_106_19891)">
<path d="M14.8923 26.8668L14.8923 25.7281L15.0292 25.7282L15.6358 26.6409L15.6359 25.7282L15.7728 25.7282L15.7727 26.8669L15.6358 26.8669L15.0292 25.9541L15.0292 26.8668L14.8923 26.8668Z" fill="black"/>
<path d="M16.2989 26.887C16.2037 26.887 16.1281 26.8581 16.0718 26.8002C16.0154 26.7418 15.9873 26.6522 15.9873 26.5319L15.9873 26.06L16.1231 26.06L16.1231 26.5175C16.1231 26.6853 16.1921 26.769 16.3301 26.769C16.4005 26.7691 16.4586 26.744 16.5048 26.6934C16.5508 26.643 16.5739 26.5715 16.5739 26.4786L16.5739 26.06L16.7108 26.06L16.7107 26.867L16.5872 26.867L16.5772 26.7223C16.5519 26.7735 16.5149 26.8141 16.4659 26.8436C16.4169 26.8726 16.3612 26.887 16.2989 26.887Z" fill="black"/>
<path d="M16.9352 26.867L16.9353 26.06L17.0589 26.06L17.0689 26.178C17.0947 26.1343 17.1293 26.1006 17.1724 26.0767C17.2161 26.0531 17.2651 26.0411 17.3193 26.0411C17.383 26.0411 17.4379 26.0542 17.484 26.0801C17.53 26.1062 17.5656 26.1457 17.5909 26.1992C17.619 26.1502 17.6577 26.1118 17.7067 26.0834C17.7562 26.0553 17.8096 26.0411 17.8669 26.0411C17.9632 26.0411 18.04 26.0701 18.0973 26.128C18.1552 26.1859 18.1842 26.2749 18.1841 26.3951L18.1841 26.8671L18.0494 26.8671L18.0495 26.4096C18.0495 26.3267 18.0322 26.2638 17.9983 26.2215C17.9649 26.1792 17.9165 26.158 17.8536 26.158C17.789 26.158 17.735 26.1833 17.6922 26.2337C17.649 26.2843 17.6276 26.3561 17.6276 26.4496L17.6276 26.867L17.4907 26.867L17.4907 26.4095C17.4907 26.3266 17.474 26.2637 17.4406 26.2214C17.4072 26.1791 17.3588 26.158 17.2959 26.158C17.2319 26.158 17.1785 26.1833 17.1356 26.2337C17.0933 26.2843 17.0722 26.3561 17.0722 26.4496L17.0722 26.867L16.9352 26.867Z" fill="black"/>
<path d="M18.8215 26.8872C18.7553 26.8872 18.6963 26.8733 18.6446 26.846C18.5934 26.8187 18.5544 26.7809 18.5277 26.7324L18.5143 26.8671L18.3908 26.8671L18.3909 25.6962L18.5278 25.6962L18.5277 26.1937C18.5536 26.1553 18.5906 26.1203 18.6391 26.0891C18.6872 26.0574 18.7484 26.0412 18.8227 26.0412C18.9034 26.0413 18.9735 26.0599 19.0331 26.0969C19.0924 26.1334 19.1383 26.1837 19.1711 26.2483C19.2045 26.3123 19.2212 26.3847 19.2212 26.4654C19.2212 26.5472 19.2045 26.6198 19.1711 26.6835C19.1382 26.7467 19.092 26.7965 19.0319 26.8327C18.9718 26.8688 18.9017 26.8872 18.8215 26.8872ZM18.8071 26.7681C18.8611 26.7681 18.9087 26.7556 18.9496 26.7302C18.991 26.7044 19.0236 26.6688 19.0475 26.6234C19.0712 26.5775 19.0831 26.5243 19.0831 26.4642C19.0832 26.4036 19.0712 26.3504 19.0475 26.3051C19.0236 26.2591 18.9911 26.2235 18.9496 26.1982C18.9087 26.1723 18.8611 26.1592 18.8071 26.1592C18.7529 26.1592 18.705 26.1723 18.6635 26.1982C18.6226 26.2235 18.5901 26.2591 18.5656 26.305C18.5416 26.3504 18.53 26.4035 18.53 26.4642C18.5299 26.5243 18.5416 26.5775 18.5656 26.6234C18.59 26.6687 18.6226 26.7043 18.6635 26.7302C18.705 26.7556 18.7528 26.7681 18.8071 26.7681Z" fill="black"/>
<path d="M19.775 26.8872C19.6976 26.8872 19.6292 26.8697 19.5691 26.8349C19.5095 26.7993 19.4628 26.75 19.4288 26.6868C19.3946 26.624 19.3777 26.5497 19.3777 26.4642C19.3777 26.3796 19.3944 26.3059 19.4278 26.2427C19.4617 26.179 19.509 26.1298 19.5691 26.0947C19.6292 26.0591 19.6988 26.0413 19.7784 26.0413C19.8563 26.0413 19.9234 26.0591 19.9799 26.0947C20.0369 26.1298 20.0806 26.176 20.1112 26.2339C20.1415 26.2912 20.1568 26.3527 20.1568 26.4186C20.1568 26.4306 20.1563 26.4426 20.1557 26.4543C20.1549 26.4662 20.1546 26.4796 20.1546 26.4943L19.5123 26.4943C19.5159 26.5566 19.5304 26.6084 19.5557 26.649C19.5808 26.6891 19.6128 26.7197 19.6515 26.7403C19.6899 26.7612 19.731 26.7715 19.775 26.7715C19.8312 26.7715 19.8785 26.7587 19.9164 26.7325C19.9542 26.7066 19.9815 26.6713 19.9987 26.6268L20.1334 26.6268C20.1117 26.7019 20.0702 26.7642 20.0087 26.8138C19.9478 26.8627 19.8699 26.8872 19.775 26.8872ZM19.775 26.157C19.7097 26.157 19.6518 26.1768 19.6014 26.216C19.5508 26.2555 19.5218 26.3129 19.5146 26.3885L20.0221 26.3886C20.0182 26.3168 19.9932 26.2603 19.9465 26.2194C19.9003 26.1779 19.8432 26.1571 19.775 26.157Z" fill="black"/>
<path d="M20.3373 26.8672L20.3374 26.0602L20.461 26.0603L20.4721 26.215C20.4971 26.1624 20.535 26.1204 20.5856 26.0892C20.6368 26.0575 20.6997 26.0413 20.7748 26.0414L20.7748 26.1838L20.737 26.1838C20.6894 26.1838 20.6457 26.1924 20.6056 26.2094C20.5656 26.2267 20.5336 26.255 20.5099 26.2951C20.486 26.3352 20.4743 26.3906 20.4743 26.461L20.4743 26.8672L20.3373 26.8672Z" fill="black"/>
<path d="M21.2361 26.8873C21.1395 26.8873 21.0594 26.8628 20.9957 26.8139C20.9317 26.7649 20.8944 26.6989 20.8833 26.6157L21.0235 26.6157C21.0324 26.658 21.0549 26.6948 21.0914 26.7259C21.1276 26.7565 21.1765 26.7716 21.2383 26.7716C21.2954 26.7716 21.3374 26.7593 21.3641 26.7349C21.3914 26.7104 21.4053 26.6814 21.4053 26.648C21.4053 26.5991 21.3875 26.5665 21.3519 26.5501C21.3168 26.5339 21.2676 26.5195 21.2038 26.5067C21.1607 26.4978 21.1173 26.4852 21.0736 26.4688C21.0305 26.4527 20.994 26.4296 20.9645 26.3998C20.9356 26.3703 20.9211 26.3308 20.9211 26.2818C20.9211 26.2114 20.9473 26.1538 21.0002 26.1093C21.0528 26.0642 21.124 26.0414 21.2139 26.0414C21.299 26.0414 21.3692 26.0631 21.4242 26.106C21.4791 26.1483 21.5111 26.2092 21.52 26.2885L21.3842 26.2885C21.3789 26.2471 21.3614 26.2148 21.3319 26.1917C21.3021 26.1689 21.262 26.1572 21.2116 26.1572C21.1632 26.1572 21.1259 26.1677 21.0992 26.1883C21.0725 26.2084 21.0592 26.2351 21.0592 26.2685C21.0591 26.3013 21.0761 26.3269 21.1103 26.3453C21.1443 26.3639 21.1908 26.3795 21.2495 26.392C21.299 26.4032 21.3466 26.4165 21.3919 26.4321C21.437 26.4477 21.4738 26.4711 21.5021 26.5022C21.5311 26.5334 21.5455 26.5785 21.5455 26.6369C21.5461 26.709 21.5188 26.7688 21.4632 26.8161C21.4075 26.8637 21.3318 26.8873 21.2361 26.8873Z" fill="black"/>
<path d="M22.2922 26.8673L22.2923 25.8823L22.1086 25.9223L22.1086 25.8277L22.3379 25.7287L22.4303 25.7287L22.4302 26.8673L22.2922 26.8673Z" fill="black"/>
<path d="M22.6462 26.4522L22.6462 26.3376L23.2907 26.3376L23.2907 26.4523L22.6462 26.4522Z" fill="black"/>
<path d="M23.6174 26.8674L23.6175 25.8824L23.4338 25.9224L23.4338 25.8278L23.6631 25.7288L23.7555 25.7288L23.7554 26.8675L23.6174 26.8674Z" fill="black"/>
<path d="M24.4403 26.8876C24.3393 26.8876 24.2522 26.8631 24.1788 26.8141C24.1059 26.7645 24.0499 26.6955 24.0107 26.607C23.972 26.518 23.9528 26.4153 23.9528 26.2987C23.9528 26.1816 23.9721 26.0789 24.0107 25.9904C24.05 25.9022 24.1059 25.8335 24.1788 25.7845C24.2523 25.735 24.3394 25.7099 24.4404 25.7099C24.5411 25.7099 24.628 25.735 24.7009 25.7845C24.7735 25.8335 24.8291 25.9022 24.8678 25.9905C24.907 26.0789 24.9268 26.1816 24.9268 26.2988C24.9268 26.4154 24.907 26.5181 24.8678 26.6071C24.8291 26.6956 24.7734 26.7646 24.7008 26.8141C24.6279 26.8631 24.5411 26.8876 24.4403 26.8876ZM24.4403 26.7662C24.5063 26.7662 24.5656 26.7479 24.6184 26.7106C24.671 26.6736 24.7122 26.6202 24.742 26.5503C24.7715 26.4799 24.7865 26.3962 24.7865 26.2988C24.7865 26.2008 24.7715 26.1173 24.742 26.0483C24.7123 25.9788 24.6711 25.9253 24.6185 25.888C24.5656 25.8502 24.5063 25.8313 24.4404 25.8313C24.3728 25.8313 24.313 25.8502 24.2612 25.888C24.2092 25.9253 24.168 25.9787 24.1376 26.0483C24.107 26.1173 24.092 26.2008 24.092 26.2987C24.092 26.3961 24.107 26.4799 24.1376 26.5503C24.1679 26.6201 24.2091 26.6736 24.2611 26.7106C24.3129 26.7479 24.3727 26.7662 24.4403 26.7662Z" fill="black"/>
</g>
<mask id="mask15_106_19891" style="mask-type:luminance" maskUnits="userSpaceOnUse" x="9" y="20" width="23" height="5">
<path d="M31.2504 20.8918L9.59448 20.8904L9.59425 24.3097L31.2502 24.3112L31.2504 20.8918Z" fill="white"/>
</mask>
<g mask="url(#mask15_106_19891)">
<path d="M10.6201 21.5452C10.7595 21.5452 10.8822 21.565 10.9885 21.6042C11.0953 21.6438 11.1487 21.6966 11.1487 21.7634C11.1487 21.8302 11.1231 21.9131 11.0719 22.0116C11.0213 22.1104 10.9787 22.1597 10.9439 22.1597C10.935 22.1597 10.9242 22.1547 10.9116 22.1441C10.8988 22.1338 10.8699 22.1224 10.8248 22.1096C10.7803 22.097 10.7416 22.0906 10.7091 22.0906C10.5978 22.0906 10.5079 22.1301 10.4397 22.2086C10.3721 22.2874 10.3384 22.4076 10.3384 22.5692C10.3384 22.7312 10.3731 22.8514 10.443 22.9299C10.5125 23.0078 10.6013 23.0468 10.709 23.0468C10.7527 23.0468 10.8017 23.0409 10.8559 23.029C10.9107 23.0164 10.9497 22.9986 10.9728 22.9755C10.9764 22.9711 10.9839 22.9689 10.9951 22.9689C11.0067 22.9689 11.0285 22.9909 11.0596 23.0345C11.0913 23.0777 11.1208 23.1342 11.1475 23.2037C11.1748 23.2736 11.1887 23.3273 11.1887 23.3651C11.1887 23.4403 11.1311 23.4998 11.0162 23.5443C10.901 23.588 10.7652 23.61 10.6088 23.61C10.3556 23.61 10.1474 23.5209 9.98436 23.3428C9.82187 23.1647 9.74063 22.9137 9.74065 22.5892C9.74067 22.2642 9.82445 22.009 9.99226 21.8235C10.1598 21.6381 10.3691 21.5452 10.6201 21.5452Z" fill="black"/>
<path d="M12.263 23.6102C11.9942 23.6101 11.775 23.5222 11.6052 23.3463C11.436 23.1699 11.3515 22.9128 11.3515 22.5749C11.3515 22.2366 11.4372 21.9806 11.6087 21.8069C11.7801 21.6328 12.001 21.5454 12.2721 21.5454C12.5428 21.5454 12.7613 21.6312 12.9277 21.8026C13.0946 21.974 13.1781 22.2334 13.178 22.5806C13.178 22.9279 13.0926 23.1867 12.922 23.3564C12.752 23.5256 12.5324 23.6102 12.263 23.6102ZM12.2654 22.0964C12.1733 22.0964 12.0962 22.1387 12.0338 22.2233C11.9715 22.3073 11.9403 22.4253 11.9403 22.5772C11.9403 22.7294 11.9698 22.8463 12.0293 22.9278C12.0886 23.0096 12.1665 23.0503 12.2631 23.0503C12.3602 23.0503 12.4389 23.0091 12.499 22.9268C12.5592 22.8444 12.5892 22.727 12.5892 22.5739C12.5892 22.4203 12.5581 22.3023 12.4958 22.2199C12.434 22.1376 12.3572 22.0964 12.2654 22.0964Z" fill="black"/>
<path d="M13.3788 23.4121L13.3789 21.6256C13.3789 21.5855 13.476 21.5655 13.6705 21.5655C13.8648 21.5655 13.9622 21.5856 13.9622 21.6256L13.9621 23.0326L14.4039 23.0326C14.4387 23.0326 14.4629 23.0777 14.4763 23.1673C14.4821 23.2118 14.4852 23.2572 14.4852 23.3031C14.4852 23.3493 14.4821 23.396 14.4763 23.4433C14.4607 23.5354 14.4356 23.5813 14.4017 23.5813L13.5168 23.5813C13.4745 23.5813 13.4405 23.5643 13.4155 23.5301C13.391 23.4953 13.3788 23.456 13.3788 23.4121Z" fill="black"/>
<path d="M15.5106 23.6103C15.2418 23.6103 15.0225 23.5224 14.8528 23.3465C14.6836 23.1701 14.599 22.9129 14.5991 22.5751C14.5991 22.2368 14.6848 21.9807 14.8562 21.8071C15.0276 21.6329 15.2486 21.5456 15.5196 21.5456C15.7904 21.5456 16.0088 21.6313 16.1752 21.8028C16.3422 21.9742 16.4256 22.2335 16.4256 22.5808C16.4256 22.9281 16.3401 23.1869 16.1695 23.3566C15.9995 23.5258 15.78 23.6104 15.5106 23.6103ZM15.5129 22.0966C15.4208 22.0966 15.3437 22.1389 15.2814 22.2234C15.2191 22.3075 15.1879 22.4255 15.1879 22.5774C15.1879 22.7296 15.2173 22.8465 15.2769 22.928C15.3362 23.0098 15.4141 23.0505 15.5106 23.0505C15.6077 23.0505 15.6865 23.0093 15.7466 22.9269C15.8067 22.8446 15.8368 22.7271 15.8368 22.5741C15.8368 22.4205 15.8056 22.3025 15.7433 22.2201C15.6815 22.1378 15.6047 22.0966 15.5129 22.0966Z" fill="black"/>
<path d="M17.2041 23.5415C17.2041 23.5721 17.1131 23.5871 16.9314 23.5871C16.7472 23.5871 16.6554 23.5726 16.6554 23.5437L16.6555 21.6715C16.6555 21.6047 16.6906 21.5713 16.7613 21.5713L17.31 21.5713C17.8137 21.5714 18.0658 21.7678 18.0657 22.1602C18.0657 22.279 18.0426 22.3867 17.9967 22.483C17.9505 22.5795 17.8854 22.6566 17.8008 22.7145L18.1636 23.3178C18.148 23.364 18.0979 23.4166 18.0133 23.4758C17.899 23.5577 17.8043 23.5983 17.7295 23.5983C17.6544 23.5983 17.5987 23.5715 17.5625 23.5181L17.2932 22.8892L17.2042 22.8892L17.2041 23.5415ZM17.2042 22.08L17.2042 22.5108L17.2187 22.5108C17.4004 22.5108 17.4914 22.4351 17.4914 22.2837C17.4914 22.2147 17.4736 22.1635 17.438 22.1301C17.4024 22.0967 17.3445 22.08 17.2643 22.08L17.2042 22.08Z" fill="black"/>
<path d="M18.5388 23.0874L18.5389 22.0656L18.3352 22.0656C18.3024 22.0656 18.2796 22.0244 18.2662 21.942C18.2601 21.9019 18.2573 21.8607 18.2573 21.8185C18.2573 21.7762 18.2601 21.735 18.2662 21.6949C18.2796 21.6125 18.3024 21.5714 18.3352 21.5714L19.3003 21.5714C19.3328 21.5714 19.3548 21.6126 19.3659 21.695C19.374 21.735 19.3782 21.7762 19.3782 21.8185C19.3782 21.8608 19.374 21.902 19.3659 21.9421C19.3548 22.0244 19.3328 22.0656 19.3002 22.0656L19.1077 22.0656L19.1076 23.0874L19.3091 23.0874C19.3416 23.0874 19.3647 23.1286 19.3781 23.211C19.3853 23.2511 19.3892 23.2922 19.3892 23.3345C19.3892 23.3768 19.3853 23.418 19.3781 23.4581C19.3647 23.5405 19.3416 23.5816 19.309 23.5816L18.3407 23.5816C18.3078 23.5816 18.2861 23.5404 18.275 23.458C18.2675 23.4179 18.2639 23.3768 18.2639 23.3345C18.2639 23.2922 18.2675 23.251 18.275 23.2109C18.2862 23.1285 18.3079 23.0874 18.3407 23.0874L18.5388 23.0874Z" fill="black"/>
<path d="M21.1553 23.5183C21.1553 23.5584 21.0651 23.5784 20.8848 23.5784C20.7051 23.5784 20.6077 23.5645 20.5921 23.5361L20.1124 22.64L20.1123 23.5327C20.1123 23.5678 20.0236 23.585 19.8463 23.585C19.6696 23.585 19.5814 23.5678 19.5814 23.5327L19.5815 21.6115C19.5815 21.5826 19.6572 21.5681 19.8086 21.5681C19.8679 21.5681 19.9372 21.5737 20.0168 21.5848C20.0961 21.5954 20.1442 21.6146 20.1614 21.6427L20.6211 22.5277L20.6211 21.6261C20.6212 21.5899 20.7102 21.5715 20.8883 21.5715C21.0664 21.5716 21.1554 21.5899 21.1554 21.6261L21.1553 23.5183Z" fill="black"/>
<path d="M22.5053 22.9819L22.5109 22.5912C22.5109 22.5645 22.5382 22.5472 22.5933 22.5389C22.6489 22.53 22.6948 22.5256 22.7313 22.5256L22.8437 22.5334C22.9163 22.5453 22.9528 22.5654 22.9528 22.5935L22.9416 23.4928C22.9029 23.5195 22.8258 23.546 22.7101 23.5718C22.5943 23.5977 22.4618 23.6108 22.3127 23.6108C22.035 23.6108 21.811 23.5211 21.6404 23.3414C21.4696 23.161 21.3844 22.8967 21.3845 22.5477C21.3845 22.2511 21.4674 22.0098 21.6338 21.8242C21.8008 21.6389 22.0318 21.546 22.3273 21.546C22.4609 21.546 22.5816 21.5591 22.6902 21.585C22.7984 21.6103 22.8727 21.6451 22.9128 21.6896C22.915 21.7047 22.9161 21.7331 22.9161 21.7754C22.9161 21.8177 22.9016 21.8778 22.8727 21.9557C22.8437 22.033 22.8109 22.0909 22.7747 22.1293C22.7383 22.1671 22.7118 22.1861 22.6957 22.1861C22.6793 22.1861 22.6617 22.1791 22.6434 22.1649C22.6256 22.1502 22.5899 22.1349 22.5365 22.1193C22.4831 22.1031 22.4313 22.0948 22.3818 22.0948C22.263 22.0948 22.1664 22.1332 22.0924 22.2094C22.0189 22.2859 21.9822 22.4047 21.9822 22.5656C21.9822 22.7259 22.02 22.848 22.0957 22.9318C22.1714 23.015 22.2585 23.0565 22.3572 23.0565C22.4558 23.0565 22.5053 23.0317 22.5053 22.9819Z" fill="black"/>
<path d="M25.1754 22.0917C25.1754 22.2906 25.0892 22.442 24.9172 22.5458C25.0107 22.58 25.0889 22.6393 25.152 22.7239C25.2149 22.8079 25.2466 22.927 25.2466 23.0812C25.2466 23.2348 25.1893 23.357 25.0752 23.4474C24.9616 23.5373 24.7986 23.5821 24.5865 23.582L23.9087 23.582C23.8758 23.582 23.8488 23.5714 23.8274 23.5497C23.8066 23.5274 23.7963 23.4982 23.7963 23.4618L23.7964 21.623C23.7964 21.6024 23.7997 21.5885 23.8064 21.5818C23.8131 21.5751 23.827 21.5718 23.8487 21.5718L24.5032 21.5718C24.9512 21.5719 25.1755 21.7452 25.1754 22.0917ZM24.3484 22.0371L24.3484 22.4133L24.3629 22.4133C24.546 22.4133 24.6378 22.3521 24.6378 22.2297C24.6378 22.1629 24.62 22.1145 24.5844 22.0838C24.5493 22.0527 24.4909 22.0371 24.4085 22.0371L24.3484 22.0371ZM24.3484 22.7517L24.3484 23.1257L24.3996 23.1257C24.4819 23.1257 24.542 23.1107 24.5799 23.08C24.6183 23.0489 24.6378 22.9999 24.6378 22.9331C24.6378 22.8663 24.62 22.8196 24.5844 22.7929C24.5493 22.7656 24.4909 22.7517 24.4085 22.7517L24.3484 22.7517Z" fill="black"/>
<path d="M26.3246 23.6111C26.0557 23.6111 25.8365 23.5231 25.6667 23.3472C25.4976 23.1708 25.413 22.9137 25.413 22.5759C25.413 22.2375 25.4988 21.9815 25.6702 21.8079C25.8416 21.6337 26.0626 21.5463 26.3336 21.5463C26.6044 21.5463 26.8228 21.6321 26.9892 21.8035C27.1561 21.9749 27.2396 22.2343 27.2396 22.5815C27.2395 22.9288 27.1541 23.1876 26.9835 23.3573C26.8135 23.5265 26.5939 23.6111 26.3246 23.6111ZM26.3269 22.0973C26.2348 22.0973 26.1577 22.1396 26.0954 22.2242C26.033 22.3082 26.0018 22.4262 26.0018 22.5781C26.0018 22.7303 26.0313 22.8472 26.0909 22.9287C26.1501 23.0106 26.228 23.0512 26.3246 23.0512C26.4217 23.0512 26.5005 23.01 26.5606 22.9277C26.6207 22.8453 26.6507 22.7279 26.6508 22.5748C26.6508 22.4212 26.6196 22.3032 26.5573 22.2209C26.4955 22.1385 26.4187 22.0973 26.3269 22.0973Z" fill="black"/>
<path d="M28.3231 23.6112C28.0543 23.6112 27.835 23.5232 27.6653 23.3474C27.4961 23.1709 27.4115 22.9138 27.4116 22.576C27.4116 22.2376 27.4973 21.9816 27.6687 21.808C27.8401 21.6338 28.0611 21.5464 28.3321 21.5464C28.6029 21.5465 28.8213 21.6322 28.9877 21.8036C29.1547 21.975 29.2381 22.2344 29.2381 22.5817C29.2381 22.9289 29.1526 23.1877 28.982 23.3575C28.812 23.5266 28.5925 23.6112 28.3231 23.6112ZM28.3254 22.0974C28.2333 22.0974 28.1562 22.1397 28.0939 22.2243C28.0316 22.3083 28.0004 22.4263 28.0004 22.5782C28.0004 22.7305 28.0298 22.8473 28.0894 22.9289C28.1487 23.0107 28.2266 23.0513 28.3231 23.0513C28.4202 23.0513 28.499 23.0102 28.5591 22.9278C28.6192 22.8454 28.6493 22.728 28.6493 22.5749C28.6493 22.4213 28.6181 22.3034 28.5558 22.221C28.494 22.1386 28.4172 22.0974 28.3254 22.0974Z" fill="black"/>
<path d="M30.0422 23.5423C30.0422 23.5712 29.9521 23.5857 29.7717 23.5857L29.6115 23.5768C29.5157 23.5695 29.4679 23.5562 29.4679 23.5367L29.468 21.6099C29.468 21.5774 29.5637 21.561 29.7552 21.561C29.9466 21.561 30.0424 21.5774 30.0424 21.61L30.0423 22.3446L30.393 21.61C30.4063 21.5827 30.4826 21.5688 30.6223 21.5688C30.8766 21.5689 31.0107 21.5911 31.0241 21.6357C31.0241 21.6396 31.0233 21.6432 31.0219 21.6468L30.522 22.5483L31.1019 23.3498C31.1019 23.3537 31.0835 23.3698 31.0473 23.3988C30.9588 23.4753 30.8553 23.5354 30.7368 23.5791C30.7003 23.5924 30.6639 23.5991 30.6277 23.5991L30.5587 23.5935C30.4978 23.5788 30.4499 23.5398 30.4151 23.4766L30.0879 22.85L30.0423 22.85L30.0422 23.5423Z" fill="black"/>
</g>
</g>
<defs>
<clipPath id="clip0_106_19891">
<rect x="-0.396484" y="0.017395" width="42.4214" height="59.9991" rx="3.20077" fill="white"/>
</clipPath>
</defs>
</svg>
