<svg width="66" height="66" viewBox="0 0 66 66" fill="none" xmlns="http://www.w3.org/2000/svg">
<rect x="0.66" y="0.66" width="64.68" height="64.68" rx="12.54" fill="#F3F8EC"/>
<rect x="0.66" y="0.66" width="64.68" height="64.68" rx="12.54" stroke="#E7EEDD" stroke-width="1.32"/>
<g clip-path="url(#clip0_106_37)">
<path d="M18.5342 17.0771H18.5307C18.3366 17.0766 18.1442 17.1147 17.9649 17.189C17.7855 17.2633 17.6226 17.3724 17.4857 17.51C17.346 17.6486 17.2353 17.8136 17.1599 17.9953C17.0846 18.1771 17.0461 18.372 17.0466 18.5687V40.9358C17.0466 41.756 17.7165 42.4249 18.5401 42.427C22.0121 42.4353 27.8291 43.159 31.8421 47.3584V23.9506C31.8421 23.6726 31.771 23.4114 31.637 23.1953C28.3434 17.8911 22.0141 17.0852 18.5342 17.0771ZM48.9533 40.9358V18.5686C48.9533 18.1683 48.7973 17.7923 48.5143 17.5099C48.3773 17.3723 48.2144 17.2632 48.0351 17.1889C47.8557 17.1146 47.6635 17.0765 47.4693 17.0769H47.4657C43.986 17.0852 37.6567 17.8911 34.3629 23.1953C34.2289 23.4114 34.158 23.6726 34.158 23.9506V47.3583C38.1709 43.1588 43.9879 42.4352 47.4599 42.4269C48.2834 42.4248 48.9533 41.7559 48.9533 40.9358Z" fill="#00673A"/>
<path d="M52.3506 22.2353H51.269V40.9358C51.269 43.03 49.5628 44.7377 47.4653 44.7429C44.5204 44.7499 39.6645 45.3258 36.2254 48.5806C42.1733 47.1244 48.4433 48.071 52.0167 48.8853C52.2356 48.9358 52.463 48.9361 52.6821 48.8862C52.9011 48.8363 53.106 48.7374 53.2814 48.5971C53.4567 48.4578 53.5982 48.2806 53.6953 48.0788C53.7924 47.8771 53.8425 47.6559 53.8419 47.432V23.7267C53.8421 22.9043 53.1729 22.2353 52.3506 22.2353ZM14.7306 40.9358V22.2353H13.6491C12.8269 22.2353 12.1577 22.9043 12.1577 23.7267V47.4316C12.1577 47.8877 12.3621 48.3124 12.7183 48.5966C12.8936 48.7371 13.0985 48.836 13.3176 48.8859C13.5366 48.9358 13.7641 48.9355 13.983 48.8849C17.5563 48.0705 23.8265 47.1239 29.7741 48.5802C26.3352 45.3255 21.4793 44.7498 18.5343 44.7427C16.437 44.7377 14.7306 43.03 14.7306 40.9358Z" fill="#00673A"/>
</g>
<defs>
<clipPath id="clip0_106_37">
<rect width="41.6842" height="41.6842" fill="white" transform="translate(12.1577 12.1579)"/>
</clipPath>
</defs>
</svg>
