<svg width="16" height="17" viewBox="0 0 16 17" fill="none" xmlns="http://www.w3.org/2000/svg">
<path d="M1.3335 8.49996C1.3335 5.9858 1.3335 4.72872 2.11454 3.94767C2.89559 3.16663 4.15267 3.16663 6.66683 3.16663H9.3335C11.8477 3.16663 13.1047 3.16663 13.8858 3.94767C14.6668 4.72872 14.6668 5.9858 14.6668 8.49996V9.83329C14.6668 12.3475 14.6668 13.6045 13.8858 14.3856C13.1047 15.1666 11.8477 15.1666 9.3335 15.1666H6.66683C4.15267 15.1666 2.89559 15.1666 2.11454 14.3856C1.3335 13.6045 1.3335 12.3475 1.3335 9.83329V8.49996Z" stroke="#0F100B"/>
<path d="M4.6665 3.16663V2.16663" stroke="#0F100B" stroke-linecap="round"/>
<path d="M11.3335 3.16663V2.16663" stroke="#0F100B" stroke-linecap="round"/>
<path d="M1.6665 6.5H14.3332" stroke="#0F100B" stroke-linecap="round"/>
<path d="M11.9998 11.8333C11.9998 12.2015 11.7014 12.5 11.3332 12.5C10.965 12.5 10.6665 12.2015 10.6665 11.8333C10.6665 11.4651 10.965 11.1667 11.3332 11.1667C11.7014 11.1667 11.9998 11.4651 11.9998 11.8333Z" fill="#0F100B"/>
<path d="M11.9998 9.16667C11.9998 9.53486 11.7014 9.83333 11.3332 9.83333C10.965 9.83333 10.6665 9.53486 10.6665 9.16667C10.6665 8.79848 10.965 8.5 11.3332 8.5C11.7014 8.5 11.9998 8.79848 11.9998 9.16667Z" fill="#0F100B"/>
<path d="M8.66683 11.8333C8.66683 12.2015 8.36835 12.5 8.00016 12.5C7.63197 12.5 7.3335 12.2015 7.3335 11.8333C7.3335 11.4651 7.63197 11.1667 8.00016 11.1667C8.36835 11.1667 8.66683 11.4651 8.66683 11.8333Z" fill="#0F100B"/>
<path d="M8.66683 9.16667C8.66683 9.53486 8.36835 9.83333 8.00016 9.83333C7.63197 9.83333 7.3335 9.53486 7.3335 9.16667C7.3335 8.79848 7.63197 8.5 8.00016 8.5C8.36835 8.5 8.66683 8.79848 8.66683 9.16667Z" fill="#0F100B"/>
<path d="M5.33333 11.8333C5.33333 12.2015 5.03486 12.5 4.66667 12.5C4.29848 12.5 4 12.2015 4 11.8333C4 11.4651 4.29848 11.1667 4.66667 11.1667C5.03486 11.1667 5.33333 11.4651 5.33333 11.8333Z" fill="#0F100B"/>
<path d="M5.33333 9.16667C5.33333 9.53486 5.03486 9.83333 4.66667 9.83333C4.29848 9.83333 4 9.53486 4 9.16667C4 8.79848 4.29848 8.5 4.66667 8.5C5.03486 8.5 5.33333 8.79848 5.33333 9.16667Z" fill="#0F100B"/>
</svg>
