<svg width="318" height="449" viewBox="0 0 318 449" fill="none" xmlns="http://www.w3.org/2000/svg">
<g filter="url(#filter0_f_352_17825)">
<g clip-path="url(#clip0_352_17825)">
<rect x="5" y="5" width="308" height="438.888" rx="23.4074" fill="white"/>
<g clip-path="url(#clip1_352_17825)">
<mask id="mask0_352_17825" style="mask-type:luminance" maskUnits="userSpaceOnUse" x="2" y="5" width="311" height="439">
<path d="M2.36902 5.12683L312.116 5.1478L312.086 443.639L2.33933 443.618L2.36902 5.12683Z" fill="white"/>
</mask>
<g mask="url(#mask0_352_17825)">
<path d="M2.36902 5.12683L312.397 5.14782L312.367 443.639L2.33933 443.618L2.36902 5.12683Z" fill="white"/>
<path d="M2.36902 5.12683L312.397 5.14782L312.367 443.639L2.33933 443.618L2.36902 5.12683Z" fill="white"/>
</g>
<mask id="mask1_352_17825" style="mask-type:luminance" maskUnits="userSpaceOnUse" x="92" y="184" width="221" height="260">
<path d="M92.376 184.385L312.104 184.4L312.086 443.639L92.3584 443.624L92.376 184.385Z" fill="white"/>
</mask>
<g mask="url(#mask1_352_17825)">
<path d="M341.364 185.575L341.357 285.787C339.584 286.899 337.858 288.073 336.179 289.308C330.125 293.758 324.728 299.029 320.303 305.267C312.484 316.287 307.685 330.309 307.684 348.162C307.682 371.45 301.49 381.489 292.022 385.98C273 395.007 240.745 381.605 218.89 408.178C210.581 418.28 206.087 434.089 203.837 451.087L95.7389 451.08C95.7389 451.08 82.9216 359.291 109.694 326.74C142.426 286.942 198.485 336.817 198.49 266.722C198.497 169.163 341.364 185.575 341.364 185.575Z" fill="#F8CE4D"/>
<path d="M341.364 185.575L341.363 200.468C302.343 199.985 217.825 207.594 217.82 282.634C217.815 352.73 161.755 302.855 129.024 342.652C109.199 366.757 111.082 423.336 113.397 451.081L95.7389 451.08C95.7389 451.08 82.9216 359.291 109.694 326.74C142.426 286.942 198.485 336.817 198.49 266.722C198.497 169.163 341.364 185.575 341.364 185.575Z" fill="#DD2A55"/>
</g>
<mask id="mask2_352_17825" style="mask-type:luminance" maskUnits="userSpaceOnUse" x="111" y="200" width="202" height="244">
<path d="M111.655 200.019L312.103 200.033L312.086 443.639L111.639 443.625L111.655 200.019Z" fill="white"/>
</mask>
<g mask="url(#mask2_352_17825)">
<path d="M341.363 200.468L341.362 216.066C299.103 217.924 232.558 231.414 232.554 297.999C232.549 368.095 176.489 318.22 143.758 358.017C127.121 378.245 125.772 421.346 127.136 451.082L113.397 451.081C111.082 423.336 109.199 366.757 129.024 342.652C161.755 302.855 217.815 352.73 217.82 282.634C217.825 207.594 302.343 199.985 341.363 200.468Z" fill="#F77B28"/>
</g>
<mask id="mask3_352_17825" style="mask-type:luminance" maskUnits="userSpaceOnUse" x="126" y="215" width="187" height="229">
<path d="M126.244 215.653L312.102 215.665L312.086 443.639L126.229 443.626L126.244 215.653Z" fill="white"/>
</mask>
<g mask="url(#mask3_352_17825)">
<path d="M144.149 451.083L127.136 451.082C125.772 421.346 127.121 378.245 143.758 358.017C176.489 318.22 232.549 368.095 232.554 297.999C232.558 231.414 299.103 217.924 341.362 216.066L341.361 229.692C300.413 234.529 249.936 252.249 249.932 310.237C249.927 380.333 193.867 330.46 161.136 370.256C146.669 387.845 143.764 422.729 144.149 451.083Z" fill="#F8CE4D"/>
</g>
<mask id="mask4_352_17825" style="mask-type:luminance" maskUnits="userSpaceOnUse" x="143" y="229" width="170" height="215">
<path d="M143.96 229.202L312.101 229.213L312.086 443.639L143.946 443.627L143.96 229.202Z" fill="white"/>
</mask>
<g mask="url(#mask4_352_17825)">
<path d="M341.361 229.691L341.36 245.259C320.538 249.741 299.519 258.275 285.372 274.098C274.85 285.862 268.125 301.651 268.124 322.806C268.122 349.491 259.99 358.782 248.119 362.26C228.81 367.915 199.597 358.177 179.328 382.822C166.941 397.883 163.031 425.621 162.403 451.084L144.148 451.083C143.764 422.729 146.669 387.845 161.136 370.255C193.867 330.46 249.927 380.333 249.932 310.237C249.936 252.248 300.413 234.529 341.361 229.691Z" fill="#4D9F54"/>
</g>
<mask id="mask5_352_17825" style="mask-type:luminance" maskUnits="userSpaceOnUse" x="162" y="244" width="151" height="200">
<path d="M162.197 244.836L312.1 244.846L312.086 443.639L162.183 443.629L162.197 244.836Z" fill="white"/>
</mask>
<g mask="url(#mask5_352_17825)">
<path d="M341.36 245.259L341.359 261.553C332.817 264.541 324.612 268.414 317.25 273.398C310.147 278.205 303.843 284.057 298.795 291.162C290.963 302.186 286.155 316.218 286.153 334.09C286.153 344.774 284.843 352.659 282.518 358.511C269.595 391.051 225.1 360.376 197.358 394.106C186.785 406.961 182.389 429.056 180.938 451.086L162.403 451.085C163.031 425.621 166.941 397.884 179.328 382.822C199.597 358.178 228.81 367.915 248.119 362.26C259.99 358.782 268.122 349.491 268.124 322.806C268.125 301.651 274.85 285.862 285.372 274.098C299.519 258.275 320.538 249.742 341.36 245.259Z" fill="#3D81DB"/>
</g>
<mask id="mask6_352_17825" style="mask-type:luminance" maskUnits="userSpaceOnUse" x="180" y="261" width="133" height="183">
<path d="M180.434 261.512L312.099 261.521L312.086 443.639L180.421 443.63L180.434 261.512Z" fill="white"/>
</mask>
<g mask="url(#mask6_352_17825)">
<path d="M341.359 261.553L341.357 285.788C339.584 286.899 337.858 288.073 336.178 289.309C330.125 293.758 324.728 299.029 320.303 305.268C312.484 316.287 307.685 330.309 307.684 348.163C307.682 371.45 301.49 381.489 292.024 385.981C273 395.007 240.745 381.605 218.89 408.179C210.581 418.28 206.087 434.089 203.837 451.088L180.938 451.086C182.389 429.056 186.785 406.961 197.358 394.106C225.102 360.376 269.595 391.052 282.519 358.511C284.843 352.659 286.153 344.774 286.154 334.09C286.155 316.218 290.964 302.186 298.795 291.162C303.843 284.057 310.147 278.205 317.25 273.398C324.612 268.414 332.818 264.541 341.359 261.553Z" fill="#B07ACC"/>
</g>
<mask id="mask7_352_17825" style="mask-type:luminance" maskUnits="userSpaceOnUse" x="4" y="265" width="5" height="21">
<path d="M4.82642 265.668L8.99711 265.668L8.99574 285.909L4.82505 285.909L4.82642 265.668Z" fill="white"/>
</mask>
<g mask="url(#mask7_352_17825)">
<path d="M8.85351 275.87C8.85349 276.204 8.83718 276.536 8.80459 276.867C8.772 277.199 8.72313 277.527 8.66001 277.855C8.59485 278.18 8.51341 278.502 8.41569 278.822C8.32 279.139 8.20802 279.452 8.07977 279.76C7.95355 280.067 7.81104 280.368 7.65429 280.662C7.49754 280.957 7.32654 281.242 7.14129 281.518C6.95605 281.795 6.75859 282.062 6.54688 282.318C6.33517 282.577 6.11329 282.823 5.87716 283.057C5.64103 283.293 5.39472 283.517 5.13823 283.729C4.87971 283.938 4.61305 284.138 4.33621 284.321C4.05938 284.506 3.7744 284.677 3.48128 284.834C3.18816 284.991 2.8869 285.133 2.57953 285.261C2.27217 285.388 1.9587 285.502 1.63912 285.597C1.32158 285.693 0.997932 285.774 0.672251 285.839C0.34657 285.904 0.016819 285.953 -0.314966 285.986C-0.644716 286.018 -0.978535 286.035 -1.31032 286.035C-1.64414 286.035 -1.97592 286.018 -2.3077 285.986C-2.63745 285.953 -2.96719 285.904 -3.29286 285.839C-3.62057 285.774 -3.94217 285.692 -4.26173 285.597C-4.57926 285.501 -4.89272 285.387 -5.20007 285.261C-5.50741 285.133 -5.80865 284.99 -6.10175 284.833C-6.39485 284.677 -6.67981 284.506 -6.95662 284.32C-7.23343 284.137 -7.5021 283.938 -7.75856 283.728C-8.01501 283.516 -8.26129 283.292 -8.49739 283.056C-8.73349 282.822 -8.95534 282.576 -9.16701 282.317C-9.37869 282.061 -9.57611 281.794 -9.76132 281.517C-9.94653 281.24 -10.1175 280.955 -10.2742 280.66C-10.4309 280.367 -10.5734 280.066 -10.7016 279.759C-10.8278 279.451 -10.9397 279.138 -11.0374 278.82C-11.133 278.501 -11.2144 278.179 -11.2795 277.853C-11.3447 277.526 -11.3935 277.198 -11.426 276.866C-11.4586 276.534 -11.4748 276.203 -11.4748 275.869C-11.4748 275.537 -11.4585 275.205 -11.4259 274.873C-11.3933 274.542 -11.3444 274.214 -11.2793 273.886C-11.2141 273.56 -11.1327 273.237 -11.037 272.919C-10.9393 272.6 -10.8273 272.288 -10.7011 271.979C-10.5728 271.672 -10.4303 271.372 -10.2736 271.077C-10.1168 270.784 -9.9458 270.499 -9.76055 270.222C-9.57531 269.946 -9.37785 269.679 -9.16614 269.423C-8.95443 269.164 -8.73255 268.918 -8.49642 268.682C-8.26029 268.448 -8.01398 268.224 -7.75749 268.012C-7.50101 267.802 -7.23231 267.603 -6.95548 267.418C-6.67864 267.235 -6.39366 267.064 -6.10054 266.905C-5.80742 266.748 -5.50616 266.608 -5.19879 266.479C-4.89143 266.351 -4.57796 266.239 -4.26042 266.144C-3.94084 266.046 -3.61923 265.967 -3.29151 265.902C-2.96583 265.836 -2.63608 265.788 -2.30633 265.755C-1.97455 265.722 -1.64276 265.706 -1.30894 265.706C-0.977159 265.706 -0.643342 265.723 -0.313597 265.755C0.0181844 265.788 0.347928 265.837 0.673601 265.902C0.999273 265.967 1.32291 266.046 1.64044 266.144C1.96 266.24 2.27346 266.352 2.5808 266.48C2.88815 266.608 3.18939 266.749 3.48249 266.908C3.77559 267.064 4.06055 267.235 4.33736 267.418C4.61417 267.604 4.88081 267.803 5.1393 268.013C5.39575 268.225 5.64203 268.449 5.87813 268.683C6.11423 268.919 6.33608 269.165 6.54775 269.424C6.75943 269.68 6.95685 269.947 7.14206 270.224C7.32727 270.5 7.49823 270.785 7.65494 271.078C7.81165 271.374 7.95412 271.673 8.08029 271.98C8.20851 272.29 8.32044 272.601 8.41609 272.921C8.51377 273.238 8.59516 273.562 8.66028 273.888C8.72335 274.215 8.77218 274.543 8.80473 274.875C8.83727 275.207 8.85354 275.538 8.85351 275.87Z" fill="#0292B7"/>
</g>
<mask id="mask8_352_17825" style="mask-type:luminance" maskUnits="userSpaceOnUse" x="4" y="207" width="28" height="35">
<path d="M4.83044 207.828L31.9288 207.83L31.9265 241.179L4.82819 241.178L4.83044 207.828Z" fill="white"/>
</mask>
<g mask="url(#mask8_352_17825)">
<path d="M31.4453 224.486C31.4452 225.024 31.4187 225.557 31.3658 226.092C31.3128 226.626 31.2354 227.155 31.1295 227.68C31.0257 228.207 30.8954 228.726 30.7386 229.239C30.5839 229.752 30.4027 230.257 30.1971 230.752C29.9935 231.248 29.7635 231.733 29.511 232.205C29.2586 232.677 28.9838 233.137 28.6845 233.583C28.3873 234.029 28.0677 234.46 27.7278 234.873C27.3878 235.288 27.0275 235.685 26.6489 236.064C26.2703 236.442 25.8733 236.803 25.4581 237.143C25.0428 237.482 24.6133 237.802 24.1675 238.099C23.7217 238.398 23.2617 238.673 22.7894 238.925C22.3151 239.178 21.8327 239.408 21.336 239.613C20.8414 239.819 20.3366 239.998 19.8236 240.155C19.3107 240.309 18.7916 240.44 18.2644 240.543C17.7393 240.649 17.2101 240.727 16.6747 240.779C16.1414 240.832 15.6061 240.859 15.0708 240.859C14.5354 240.859 14.0001 240.832 13.4668 240.779C12.9315 240.726 12.4023 240.649 11.8771 240.543C11.3499 240.439 10.8309 240.309 10.318 240.154C9.80503 239.997 9.30025 239.818 8.80564 239.613C8.309 239.407 7.8266 239.177 7.35235 238.924C6.88014 238.672 6.42014 238.397 5.97439 238.098C5.52864 237.801 5.09918 237.481 4.68396 237.141C4.26875 236.801 3.87185 236.441 3.49328 236.062C3.11471 235.684 2.75445 235.287 2.41456 234.871C2.07466 234.458 1.75512 234.027 1.45797 233.581C1.15878 233.135 0.884025 232.675 0.631658 232.203C0.379291 231.731 0.149315 231.246 -0.0562349 230.749C-0.259749 230.255 -0.440873 229.75 -0.595534 229.237C-0.752232 228.724 -0.882467 228.205 -0.986241 227.678C-1.09205 227.153 -1.16936 226.623 -1.22225 226.09C-1.27514 225.555 -1.30156 225.022 -1.30152 224.484C-1.30149 223.949 -1.27499 223.414 -1.22203 222.88C-1.16907 222.347 -1.09169 221.816 -0.985808 221.291C-0.881964 220.765 -0.751658 220.244 -0.594891 219.731C-0.44016 219.218 -0.258968 218.714 -0.0553865 218.219C0.15023 217.724 0.380272 217.24 0.632703 216.766C0.885135 216.294 1.15996 215.834 1.4592 215.388C1.75641 214.942 2.07601 214.513 2.41596 214.097C2.75592 213.684 3.11622 213.287 3.49485 212.907C3.87347 212.528 4.27042 212.168 4.68568 211.828C5.10094 211.488 5.53044 211.169 5.97623 210.871C6.42202 210.574 6.88206 210.297 7.35431 210.045C7.82859 209.793 8.31102 209.565 8.80769 209.359C9.30232 209.154 9.80713 208.973 10.3201 208.818C10.833 208.661 11.3521 208.531 11.8793 208.427C12.4044 208.323 12.9337 208.244 13.469 208.191C14.0023 208.138 14.5376 208.112 15.073 208.112C15.6083 208.112 16.1436 208.138 16.6769 208.191C17.2123 208.244 17.7415 208.324 18.2666 208.428C18.7938 208.531 19.3128 208.662 19.8258 208.819C20.3387 208.973 20.8435 209.154 21.3381 209.36C21.8347 209.566 22.3171 209.794 22.7914 210.046C23.2636 210.299 23.7236 210.575 24.1693 210.873C24.6151 211.17 25.0446 211.489 25.4598 211.829C25.875 212.169 26.2719 212.53 26.6505 212.908C27.029 213.289 27.3893 213.686 27.7292 214.099C28.0691 214.514 28.3886 214.944 28.6858 215.39C28.9849 215.835 29.2597 216.295 29.5121 216.768C29.7644 217.242 29.9944 217.726 30.1979 218.221C30.4035 218.716 30.5846 219.221 30.7393 219.733C30.896 220.246 31.0262 220.768 31.13 221.293C31.2358 221.818 31.3131 222.349 31.366 222.882C31.4189 223.416 31.4453 223.951 31.4453 224.486Z" fill="#1AC8DB"/>
</g>
<path d="M45.5573 253.002C45.5572 253.503 45.5084 254 45.4106 254.49C45.3149 254.981 45.1683 255.457 44.977 255.919C44.7856 256.381 44.5515 256.821 44.2726 257.238C43.9957 257.653 43.6802 258.038 43.326 258.392C42.9718 258.746 42.5871 259.062 42.1698 259.34C41.7545 259.617 41.3149 259.853 40.8528 260.045C40.3907 260.236 39.9124 260.38 39.4218 260.478C38.9313 260.576 38.4367 260.625 37.9359 260.625C37.4352 260.625 36.9385 260.576 36.448 260.478C35.9575 260.38 35.4812 260.236 35.0191 260.044C34.5571 259.853 34.1174 259.617 33.7002 259.34C33.285 259.061 32.9003 258.745 32.5461 258.391C32.192 258.037 31.8765 257.652 31.5977 257.237C31.3209 256.82 31.0848 256.38 30.8935 255.918C30.7022 255.456 30.5577 254.98 30.46 254.489C30.3624 253.999 30.3135 253.502 30.3136 253.001C30.3136 252.5 30.3625 252.006 30.4602 251.515C30.558 251.025 30.7025 250.546 30.8939 250.084C31.0852 249.622 31.3214 249.183 31.5982 248.767C31.8771 248.35 32.1927 247.966 32.5469 247.611C32.9011 247.259 33.2858 246.942 33.701 246.665C34.1183 246.386 34.558 246.152 35.0201 245.961C35.4821 245.769 35.9585 245.625 36.449 245.527C36.9396 245.43 37.4362 245.381 37.937 245.381C38.4377 245.381 38.9323 245.43 39.4228 245.528C39.9134 245.625 40.3917 245.77 40.8538 245.961C41.3158 246.153 41.7554 246.387 42.1707 246.666C42.5879 246.942 42.9726 247.26 43.3268 247.612C43.6809 247.966 43.9964 248.351 44.2732 248.768C44.552 249.184 44.7861 249.623 44.9774 250.085C45.1687 250.547 45.3152 251.026 45.4108 251.516C45.5085 252.007 45.5573 252.502 45.5573 253.002Z" fill="#99DFEC"/>
<path d="M34.1471 182.45C34.1471 182.908 34.1247 183.364 34.0798 183.82C34.035 184.274 33.9678 184.728 33.8782 185.175C33.7886 185.625 33.6767 186.067 33.5443 186.506C33.412 186.944 33.2573 187.374 33.0822 187.797C32.9071 188.22 32.7117 188.634 32.4959 189.037C32.2801 189.44 32.046 189.832 31.7915 190.213C31.5371 190.594 31.2643 190.96 30.9732 191.314C30.6841 191.668 30.3767 192.006 30.0531 192.33C29.7294 192.653 29.3915 192.961 29.0373 193.25C28.6831 193.541 28.3167 193.813 27.9361 194.068C27.5554 194.322 27.1626 194.556 26.7595 194.772C26.3565 194.988 25.9433 195.183 25.5199 195.358C25.0965 195.533 24.667 195.688 24.2293 195.82C23.7917 195.952 23.348 196.064 22.8981 196.154C22.4503 196.243 21.9984 196.309 21.5425 196.353C21.0865 196.4 20.6306 196.422 20.1726 196.422C19.7146 196.422 19.2587 196.4 18.8027 196.353C18.3468 196.308 17.8949 196.243 17.4471 196.154C16.9973 196.064 16.5535 195.952 16.1159 195.82C15.6783 195.687 15.2488 195.533 14.8255 195.358C14.4021 195.182 13.9889 194.987 13.5859 194.771C13.1829 194.555 12.7901 194.321 12.4094 194.067C12.0288 193.812 11.6625 193.54 11.3083 193.249C10.9541 192.959 10.6163 192.652 10.2927 192.328C9.96904 192.005 9.66171 191.667 9.37066 191.313C9.08164 190.958 8.80891 190.592 8.5545 190.211C8.3001 189.831 8.06604 189.438 7.85031 189.035C7.63457 188.632 7.4392 188.219 7.26417 187.795C7.08915 187.372 6.93448 186.942 6.80221 186.505C6.66993 186.065 6.55801 185.623 6.46848 185.173C6.37895 184.726 6.31181 184.272 6.26706 183.818C6.22231 183.362 6.19995 182.906 6.19998 182.448C6.20001 181.99 6.22243 181.534 6.26724 181.078C6.31206 180.622 6.37926 180.17 6.46885 179.722C6.55844 179.273 6.67042 178.829 6.80276 178.391C6.93509 177.954 7.08982 177.524 7.2649 177.101C7.43998 176.677 7.63541 176.264 7.8512 175.861C8.06699 175.458 8.3011 175.065 8.55556 174.685C8.81002 174.304 9.0828 173.938 9.37186 173.584C9.66295 173.229 9.97033 172.892 10.294 172.568C10.6177 172.244 10.9556 171.937 11.3098 171.646C11.664 171.357 12.0304 171.084 12.411 170.83C12.7917 170.575 13.1845 170.341 13.5876 170.126C13.9906 169.91 14.4038 169.715 14.8272 169.54C15.2506 169.364 15.6801 169.21 16.1177 169.078C16.5554 168.943 16.9991 168.833 17.449 168.744C17.8968 168.654 18.3487 168.587 18.8046 168.542C19.2606 168.498 19.7165 168.475 20.1745 168.475C20.6325 168.475 21.0884 168.498 21.5444 168.543C22.0003 168.587 22.4522 168.655 22.9 168.744C23.3498 168.834 23.7935 168.944 24.2312 169.078C24.6688 169.21 25.0983 169.365 25.5216 169.54C25.945 169.715 26.3582 169.911 26.7612 170.127C27.1642 170.342 27.557 170.576 27.9376 170.831C28.3183 171.085 28.6846 171.358 29.0388 171.647C29.3929 171.938 29.7308 172.246 30.0544 172.569C30.378 172.893 30.6854 173.231 30.9744 173.585C31.2654 173.939 31.5382 174.306 31.7926 174.686C32.047 175.067 32.281 175.46 32.4968 175.863C32.7125 176.266 32.9079 176.679 33.0829 177.103C33.2579 177.526 33.4126 177.955 33.5449 178.393C33.6772 178.831 33.7891 179.274 33.8786 179.724C33.9681 180.172 34.0353 180.624 34.08 181.08C34.1248 181.536 34.1471 181.992 34.1471 182.45Z" fill="#99DFEC"/>
<mask id="mask9_352_17825" style="mask-type:luminance" maskUnits="userSpaceOnUse" x="34" y="207" width="14" height="15">
<path d="M34.0131 207.83L47.7139 207.831L47.7129 221.9L34.0121 221.899L34.0131 207.83Z" fill="white"/>
</mask>
<g mask="url(#mask9_352_17825)">
<path d="M47.6991 214.984C47.699 215.427 47.6563 215.869 47.5687 216.305C47.4832 216.742 47.3549 217.166 47.1839 217.577C47.0129 217.988 46.8053 218.379 46.5569 218.749C46.3106 219.118 46.0297 219.46 45.7141 219.775C45.3986 220.091 45.0566 220.371 44.6862 220.618C44.3177 220.866 43.9269 221.074 43.5157 221.245C43.1045 221.416 42.6812 221.544 42.2435 221.629C41.8079 221.717 41.3662 221.759 40.9225 221.759C40.4767 221.759 40.035 221.717 39.5994 221.629C39.1618 221.543 38.7384 221.415 38.3273 221.244C37.9161 221.073 37.5253 220.866 37.1569 220.617C36.7865 220.371 36.4445 220.09 36.1291 219.774C35.8136 219.459 35.5327 219.117 35.2865 218.749C35.0382 218.378 34.8306 217.987 34.6596 217.576C34.4887 217.165 34.3604 216.741 34.275 216.304C34.1875 215.868 34.1448 215.427 34.1448 214.983C34.1448 214.537 34.1876 214.095 34.2752 213.66C34.3607 213.222 34.4889 212.799 34.66 212.388C34.831 211.976 35.0386 211.586 35.287 211.217C35.5333 210.847 35.8142 210.505 36.1297 210.189C36.4452 209.874 36.7872 209.593 37.1577 209.347C37.5261 209.098 37.917 208.891 38.3281 208.72C38.7393 208.551 39.1627 208.421 39.6003 208.335C40.0359 208.248 40.4776 208.205 40.9234 208.205C41.3671 208.205 41.8088 208.248 42.2444 208.335C42.682 208.421 43.1054 208.551 43.5166 208.72C43.9277 208.891 44.3185 209.099 44.6869 209.347C45.0574 209.594 45.3993 209.875 45.7148 210.19C46.0303 210.506 46.3111 210.848 46.5574 211.218C46.8057 211.586 47.0133 211.977 47.1843 212.388C47.3552 212.8 47.4834 213.223 47.5689 213.661C47.6564 214.096 47.6991 214.538 47.6991 214.984Z" fill="#99DFEC"/>
</g>
<path d="M282.111 68.8217C282.111 69.3387 282.084 69.8557 282.033 70.3707C281.984 70.8856 281.907 71.3965 281.807 71.9054C281.705 72.4122 281.579 72.915 281.429 73.4096C281.28 73.9063 281.105 74.3927 280.907 74.871C280.708 75.3494 280.488 75.8155 280.244 76.2734C279.999 76.7294 279.733 77.1731 279.446 77.6046C279.159 78.0341 278.849 78.4493 278.522 78.8502C278.194 79.2492 277.846 79.6339 277.479 79.9982C277.113 80.3645 276.73 80.7126 276.329 81.0403C275.93 81.37 275.515 81.6773 275.083 81.9643C274.654 82.2533 274.21 82.5179 273.752 82.7621C273.296 83.0063 272.828 83.2282 272.35 83.4256C271.871 83.623 271.385 83.798 270.89 83.9486C270.394 84.0992 269.893 84.2233 269.386 84.3251C268.877 84.4268 268.366 84.5021 267.851 84.5529C267.334 84.6038 266.819 84.6282 266.3 84.6281C265.783 84.6281 265.266 84.6036 264.751 84.5527C264.236 84.5018 263.725 84.4265 263.216 84.3246C262.71 84.2228 262.207 84.0986 261.712 83.948C261.216 83.7973 260.729 83.6222 260.251 83.4248C259.772 83.2273 259.306 83.0054 258.848 82.7611C258.392 82.5168 257.949 82.2522 257.517 81.9631C257.088 81.6761 256.673 81.3687 256.272 81.0389C255.873 80.7112 255.488 80.3631 255.124 79.9967C254.757 79.6323 254.409 79.2476 254.082 78.8486C253.752 78.4476 253.445 78.0323 253.158 77.6028C252.869 77.1713 252.604 76.7275 252.36 76.2716C252.115 75.8136 251.894 75.3474 251.696 74.8691C251.499 74.3907 251.324 73.9042 251.173 73.4076C251.023 72.9129 250.898 72.4102 250.797 71.9033C250.695 71.3944 250.62 70.8835 250.569 70.3685C250.518 69.8536 250.494 69.3366 250.494 68.8195C250.494 68.3005 250.518 67.7855 250.569 67.2685C250.62 66.7535 250.695 66.2426 250.797 65.7358C250.899 65.2269 251.023 64.7262 251.174 64.2296C251.324 63.735 251.5 63.2485 251.697 62.7702C251.895 62.2919 252.116 61.8237 252.361 61.3678C252.605 60.9098 252.87 60.4661 253.159 60.0366C253.446 59.6051 253.753 59.1899 254.083 58.791C254.411 58.39 254.759 58.0074 255.125 57.641C255.49 57.2746 255.874 56.9286 256.273 56.5989C256.674 56.2712 257.09 55.9619 257.521 55.6749C257.951 55.3879 258.394 55.1213 258.85 54.8771C259.308 54.6329 259.774 54.4131 260.253 54.2136C260.731 54.0162 261.218 53.8412 261.714 53.6926C262.209 53.542 262.712 53.4159 263.219 53.3141C263.727 53.2144 264.238 53.1391 264.753 53.0883C265.268 53.0374 265.785 53.011 266.302 53.011C266.821 53.0111 267.336 53.0376 267.853 53.0885C268.368 53.1394 268.879 53.2148 269.388 53.3145C269.895 53.4164 270.396 53.5426 270.892 53.6932C271.387 53.8419 271.873 54.017 272.352 54.2144C272.83 54.4139 273.298 54.6338 273.754 54.8781C274.212 55.1224 274.656 55.3891 275.085 55.6761C275.517 55.9631 275.932 56.2725 276.331 56.6003C276.732 56.9301 277.114 57.2761 277.481 57.6425C277.847 58.0089 278.195 58.3916 278.523 58.7926C278.851 59.1916 279.16 59.6069 279.447 60.0384C279.734 60.4679 280.001 60.9117 280.245 61.3697C280.489 61.8256 280.709 62.2938 280.908 62.7722C281.106 63.2505 281.281 63.737 281.429 64.2316C281.58 64.7283 281.706 65.229 281.808 65.7379C281.907 66.2448 281.985 66.7557 282.034 67.2706C282.084 67.7877 282.111 68.3026 282.111 68.8217Z" fill="#1AC8DB"/>
<mask id="mask10_352_17825" style="mask-type:luminance" maskUnits="userSpaceOnUse" x="294" y="21" width="16" height="22">
<path d="M294.046 21.3001L309.23 21.3012L309.229 42.1445L294.044 42.1434L294.046 21.3001Z" fill="white"/>
</mask>
<g mask="url(#mask10_352_17825)">
<path d="M314.864 31.5563C314.864 31.8902 314.848 32.2219 314.815 32.5537C314.783 32.8855 314.734 33.2132 314.668 33.5409C314.603 33.8666 314.522 34.1902 314.426 34.5077C314.328 34.8273 314.216 35.1387 314.09 35.4461C313.962 35.7555 313.82 36.0547 313.663 36.3478C313.506 36.6429 313.335 36.9279 313.15 37.2047C312.965 37.4815 312.767 37.7481 312.555 38.0046C312.346 38.2631 312.122 38.5093 311.886 38.7434C311.652 38.9795 311.405 39.2034 311.147 39.4151C310.89 39.6247 310.622 39.8242 310.345 40.0073C310.068 40.1925 309.783 40.3635 309.49 40.5202C309.197 40.6769 308.895 40.8194 308.588 40.9476C308.281 41.0758 307.967 41.1878 307.65 41.2834C307.33 41.3811 307.008 41.4604 306.681 41.5256C306.355 41.5907 306.025 41.6395 305.696 41.672C305.364 41.7046 305.032 41.7208 304.698 41.7208C304.366 41.7208 304.033 41.7045 303.703 41.6719C303.371 41.6393 303.041 41.5904 302.716 41.5253C302.39 41.4601 302.066 41.3807 301.749 41.283C301.429 41.1873 301.116 41.0753 300.808 40.9471C300.501 40.8188 300.2 40.6784 299.907 40.5196C299.614 40.3628 299.329 40.1918 299.052 40.0066C298.775 39.8234 298.508 39.6239 298.25 39.4142C297.993 39.2025 297.747 38.9786 297.511 38.7424C297.277 38.5083 297.053 38.262 296.841 38.0035C296.63 37.747 296.432 37.4804 296.247 37.2035C296.062 36.9267 295.891 36.6417 295.734 36.3466C295.578 36.0534 295.435 35.7542 295.309 35.4448C295.181 35.1374 295.069 34.826 294.973 34.5064C294.875 34.1889 294.794 33.8652 294.731 33.5396C294.666 33.2118 294.617 32.8841 294.584 32.5523C294.552 32.2206 294.536 31.8888 294.536 31.555C294.536 31.2232 294.552 30.8914 294.585 30.5596C294.617 30.2278 294.666 29.9001 294.731 29.5724C294.794 29.2467 294.876 28.9231 294.974 28.6056C295.069 28.286 295.181 27.9746 295.309 27.6672C295.436 27.3579 295.578 27.0587 295.735 26.7656C295.892 26.4704 296.063 26.1855 296.248 25.9087C296.433 25.6318 296.631 25.3652 296.842 25.1088C297.054 24.8503 297.278 24.604 297.512 24.3679C297.748 24.1338 297.994 23.9099 298.251 23.6983C298.509 23.4886 298.776 23.2892 299.053 23.104C299.33 22.9208 299.615 22.7498 299.908 22.5931C300.201 22.4344 300.502 22.2939 300.81 22.1657C301.117 22.0375 301.431 21.9256 301.75 21.8299C302.068 21.7322 302.391 21.6529 302.717 21.5878C303.043 21.5227 303.372 21.4738 303.704 21.4413C304.034 21.4087 304.368 21.3925 304.7 21.3925C305.033 21.3925 305.365 21.4088 305.697 21.4414C306.027 21.474 306.356 21.5229 306.682 21.588C307.01 21.6532 307.331 21.7326 307.651 21.8303C307.968 21.926 308.282 22.038 308.589 22.1662C308.897 22.2945 309.198 22.435 309.491 22.5938C309.784 22.7505 310.069 22.9215 310.346 23.1047C310.623 23.29 310.891 23.4895 311.148 23.6991C311.406 23.9108 311.653 24.1348 311.887 24.3689C312.123 24.605 312.347 24.8513 312.556 25.1098C312.768 25.3663 312.965 25.633 313.151 25.9098C313.336 26.1866 313.507 26.4716 313.663 26.7668C313.82 27.0599 313.963 27.3591 314.091 27.6685C314.217 27.9759 314.329 28.2873 314.427 28.6069C314.522 28.9244 314.604 29.2481 314.669 29.5738C314.734 29.9015 314.783 30.2292 314.815 30.561C314.848 30.8928 314.864 31.2246 314.864 31.5563Z" fill="#1AC8DB"/>
</g>
<path d="M297.921 116.253C297.921 116.77 297.895 117.287 297.844 117.802C297.793 118.317 297.717 118.828 297.616 119.337C297.516 119.844 297.39 120.347 297.239 120.841C297.088 121.336 296.915 121.824 296.716 122.303C296.518 122.781 296.298 123.247 296.054 123.705C295.81 124.161 295.543 124.605 295.256 125.034C294.967 125.466 294.66 125.881 294.332 126.282C294.002 126.681 293.656 127.064 293.29 127.43C292.923 127.796 292.54 128.144 292.139 128.472C291.741 128.8 291.325 129.109 290.894 129.396C290.464 129.683 290.02 129.95 289.562 130.194C289.106 130.438 288.638 130.66 288.16 130.857C287.682 131.055 287.195 131.23 286.7 131.38C286.204 131.529 285.703 131.655 285.194 131.757C284.687 131.856 284.176 131.934 283.659 131.985C283.144 132.036 282.629 132.06 282.11 132.06C281.593 132.06 281.076 132.035 280.561 131.984C280.046 131.934 279.534 131.856 279.027 131.756C278.52 131.655 278.017 131.528 277.523 131.38C277.026 131.229 276.539 131.054 276.061 130.856C275.583 130.659 275.115 130.437 274.659 130.193C274.203 129.949 273.759 129.682 273.328 129.395C272.898 129.108 272.483 128.798 272.082 128.471C271.683 128.143 271.298 127.795 270.932 127.428C270.568 127.062 270.22 126.679 269.892 126.28C269.562 125.879 269.255 125.464 268.968 125.033C268.679 124.603 268.414 124.159 268.17 123.703C267.926 123.245 267.704 122.779 267.507 122.301C267.309 121.822 267.134 121.334 266.984 120.839C266.833 120.345 266.709 119.842 266.607 119.335C266.505 118.826 266.43 118.315 266.379 117.8C266.328 117.285 266.304 116.768 266.304 116.251C266.304 115.732 266.328 115.215 266.379 114.7C266.43 114.185 266.506 113.674 266.607 113.166C266.709 112.659 266.833 112.156 266.984 111.661C267.135 111.167 267.31 110.678 267.507 110.2C267.705 109.722 267.927 109.255 268.171 108.797C268.415 108.342 268.68 107.898 268.969 107.468C269.256 107.037 269.563 106.622 269.893 106.223C270.221 105.822 270.569 105.439 270.933 105.073C271.3 104.706 271.685 104.358 272.084 104.031C272.485 103.703 272.9 103.394 273.329 103.107C273.761 102.82 274.205 102.553 274.661 102.309C275.117 102.065 275.585 101.845 276.063 101.645C276.541 101.448 277.028 101.273 277.525 101.122C278.019 100.974 278.522 100.848 279.029 100.746C279.536 100.646 280.049 100.569 280.564 100.518C281.079 100.469 281.596 100.443 282.113 100.443C282.632 100.443 283.147 100.469 283.662 100.518C284.179 100.569 284.689 100.647 285.196 100.746C285.705 100.848 286.206 100.974 286.703 101.123C287.197 101.274 287.684 101.449 288.162 101.646C288.64 101.846 289.108 102.066 289.564 102.31C290.022 102.554 290.466 102.821 290.895 103.108C291.327 103.395 291.742 103.704 292.141 104.032C292.542 104.36 292.925 104.708 293.291 105.074C293.657 105.441 294.003 105.823 294.333 106.224C294.661 106.623 294.968 107.039 295.257 107.47C295.544 107.9 295.811 108.343 296.055 108.799C296.299 109.257 296.519 109.724 296.716 110.202C296.916 110.68 297.089 111.169 297.239 111.663C297.39 112.158 297.516 112.661 297.616 113.168C297.718 113.676 297.793 114.187 297.844 114.702C297.895 115.217 297.921 115.734 297.921 116.253Z" fill="#99DFEC"/>
<mask id="mask11_352_17825" style="mask-type:luminance" maskUnits="userSpaceOnUse" x="261" y="13" width="15" height="15">
<path d="M261.74 13.0645L275.809 13.0655L275.808 27.0309L261.739 27.03L261.74 13.0645Z" fill="white"/>
</mask>
<g mask="url(#mask11_352_17825)">
<path d="M275.34 19.8295C275.34 20.2753 275.297 20.7149 275.21 21.1526C275.124 21.5881 274.996 22.0136 274.825 22.4247C274.654 22.8359 274.446 23.2246 274.198 23.5951C273.952 23.9655 273.671 24.3074 273.355 24.6229C273.04 24.9364 272.698 25.2172 272.327 25.4655C271.959 25.7118 271.568 25.9214 271.157 26.0924C270.746 26.2613 270.322 26.3895 269.885 26.477C269.449 26.5645 269.007 26.6072 268.563 26.6072C268.118 26.6072 267.676 26.5644 267.24 26.4768C266.803 26.3893 266.379 26.261 265.968 26.092C265.557 25.921 265.166 25.7114 264.798 25.465C264.427 25.2167 264.086 24.9358 263.77 24.6223C263.455 24.3068 263.174 23.9648 262.927 23.5943C262.679 23.2238 262.472 22.835 262.301 22.4239C262.13 22.0127 262.001 21.5873 261.916 21.1517C261.828 20.714 261.786 20.2744 261.786 19.8286C261.786 19.3849 261.829 18.9432 261.916 18.5076C262.002 18.07 262.13 17.6466 262.301 17.2354C262.472 16.8243 262.68 16.4335 262.928 16.063C263.174 15.6946 263.455 15.3506 263.771 15.0372C264.086 14.7217 264.428 14.4409 264.799 14.1946C265.167 13.9463 265.558 13.7387 265.969 13.5677C266.38 13.3968 266.804 13.2686 267.241 13.1811C267.677 13.0956 268.119 13.0509 268.564 13.0509C269.008 13.0509 269.45 13.0957 269.885 13.1813C270.323 13.2688 270.746 13.3971 271.158 13.5681C271.569 13.7391 271.96 13.9467 272.328 14.1951C272.698 14.4414 273.04 14.7223 273.356 15.0379C273.671 15.3513 273.952 15.6954 274.198 16.0638C274.447 16.4343 274.654 16.8251 274.825 17.2363C274.996 17.6475 275.124 18.0708 275.21 18.5085C275.297 18.9441 275.34 19.3858 275.34 19.8295Z" fill="#99DFEC"/>
</g>
<path d="M304.696 75.0313C304.696 75.3651 304.664 75.6949 304.598 76.0226C304.533 76.3503 304.438 76.6678 304.309 76.9752C304.181 77.2825 304.026 77.5756 303.841 77.8524C303.656 78.1313 303.444 78.3877 303.208 78.6238C302.972 78.8579 302.715 79.0696 302.439 79.2548C302.162 79.44 301.869 79.5967 301.561 79.7249C301.252 79.8511 300.934 79.9488 300.607 80.0139C300.281 80.079 299.949 80.1115 299.617 80.1115C299.284 80.1115 298.952 80.0789 298.626 80.0138C298.298 79.9486 297.981 79.8509 297.673 79.7247C297.364 79.5964 297.071 79.4396 296.794 79.2544C296.517 79.0692 296.261 78.8574 296.025 78.6233C295.789 78.3872 295.579 78.1307 295.392 77.8519C295.207 77.575 295.052 77.2819 294.924 76.9745C294.796 76.6672 294.7 76.3496 294.635 76.0219C294.57 75.6942 294.537 75.3644 294.537 75.0306C294.537 74.6968 294.57 74.3671 294.635 74.0394C294.7 73.7116 294.796 73.3941 294.924 73.0868C295.052 72.7774 295.207 72.4863 295.394 72.2075C295.58 71.9307 295.789 71.6742 296.025 71.4381C296.261 71.202 296.518 70.9924 296.795 70.8072C297.072 70.622 297.365 70.4652 297.674 70.337C297.981 70.2108 298.299 70.1132 298.627 70.0481C298.952 69.9829 299.284 69.9504 299.618 69.9504C299.95 69.9504 300.282 69.983 300.607 70.0482C300.935 70.1133 301.253 70.2111 301.562 70.3373C301.869 70.4655 302.162 70.6223 302.439 70.8075C302.716 70.9928 302.972 71.2025 303.209 71.4386C303.445 71.6747 303.656 71.9312 303.841 72.208C304.027 72.4869 304.183 72.778 304.31 73.0874C304.438 73.3948 304.533 73.7123 304.599 74.04C304.664 74.3677 304.696 74.6975 304.696 75.0313Z" fill="#0292B7"/>
<mask id="mask12_352_17825" style="mask-type:luminance" maskUnits="userSpaceOnUse" x="53" y="87" width="209" height="71">
<path d="M261.734 87.4754L53.3014 87.4612L53.2967 157.286L261.73 157.3L261.734 87.4754Z" fill="white"/>
</mask>
<g mask="url(#mask12_352_17825)">
<path d="M125.588 116.671L125.589 96.6585C125.589 96.1007 125.728 95.6611 126.005 95.3395C126.282 95.0138 126.642 94.851 127.088 94.8511L132.665 94.8514C136.198 94.8517 138.881 95.7434 140.717 97.5225C142.551 99.3037 143.469 102.107 143.468 105.933C143.468 114.12 139.977 118.211 132.997 118.211L127.29 118.21C126.154 118.21 125.588 117.697 125.588 116.671ZM131.997 101.194L131.996 111.168C131.996 111.636 132.029 111.931 132.094 112.055C132.159 112.175 132.358 112.234 132.696 112.234C133.917 112.235 134.846 111.779 135.481 110.867C136.116 109.955 136.434 108.439 136.434 106.316C136.434 104.195 136.104 102.81 135.449 102.163C134.791 101.518 133.751 101.194 132.331 101.194L131.997 101.194Z" fill="black"/>
<path d="M156.062 118.546C152.936 118.546 150.387 117.524 148.417 115.476C146.451 113.43 145.47 110.444 145.471 106.52C145.471 102.591 146.464 99.6153 148.451 97.5963C150.442 95.5731 153.013 94.5597 156.162 94.5599C159.308 94.5601 161.849 95.5576 163.782 97.5485C165.72 99.5352 166.689 102.548 166.688 106.586C166.688 110.625 165.697 113.629 163.716 115.599C161.739 117.565 159.189 118.546 156.062 118.546ZM156.08 100.959C155.009 100.959 154.113 101.452 153.393 102.433C152.67 103.41 152.31 104.784 152.31 106.553C152.31 108.324 152.653 109.679 153.343 110.624C154.031 111.568 154.939 112.04 156.063 112.041C157.186 112.041 158.098 111.564 158.799 110.608C159.499 109.647 159.849 108.279 159.849 106.504C159.849 104.725 159.487 103.357 158.767 102.401C158.044 101.44 157.148 100.959 156.08 100.959Z" fill="black"/>
<path d="M179.395 117.676C179.395 118.122 178.292 118.344 176.089 118.344C173.891 118.344 172.792 118.122 172.792 117.676L172.793 100.928L168.787 100.928C168.413 100.928 168.146 100.419 167.989 99.397C167.924 98.9084 167.892 98.4097 167.892 97.8988C167.892 97.3839 167.924 96.8811 167.99 96.3926C168.146 95.3667 168.413 94.8538 168.788 94.8538L183.305 94.8548C183.683 94.8548 183.95 95.3678 184.102 96.3937C184.172 96.8822 184.208 97.385 184.208 97.8999C184.208 98.4108 184.172 98.9095 184.102 99.398C183.95 100.42 183.683 100.929 183.304 100.929L179.396 100.928L179.395 117.676Z" fill="black"/>
<mask id="mask13_352_17825" style="mask-type:luminance" maskUnits="userSpaceOnUse" x="53" y="126" width="18" height="24">
<path d="M53.4639 126.021L70.4947 126.023L70.4931 149.992L53.4622 149.991L53.4639 126.021Z" fill="white"/>
</mask>
<g mask="url(#mask13_352_17825)">
<path d="M65.3057 148.911C65.3057 149.357 64.2024 149.579 62.0001 149.579C59.8017 149.579 58.7026 149.357 58.7026 148.911L58.7038 132.163L54.6979 132.163C54.3234 132.163 54.0568 131.654 53.9001 130.632C53.835 130.143 53.8025 129.645 53.8025 129.134C53.8026 128.619 53.8352 128.116 53.9003 127.628C54.0571 126.602 54.3238 126.089 54.6983 126.089L69.2154 126.09C69.594 126.09 69.8606 126.603 70.0132 127.629C70.0824 128.117 70.119 128.62 70.1189 129.135C70.1189 129.646 70.0822 130.145 70.013 130.633C69.8602 131.655 69.5936 132.164 69.215 132.164L65.3068 132.163L65.3057 148.911Z" fill="black"/>
</g>
<path d="M90.1616 148.88C90.1615 149.261 89.0379 149.45 86.7908 149.45C84.5436 149.45 83.42 149.26 83.42 148.88L83.4206 141.21L78.7552 141.21L78.7547 148.879C78.7547 149.26 77.6311 149.449 75.3839 149.449C73.1368 149.449 72.0132 149.26 72.0132 148.879L72.0147 126.757C72.0148 126.291 73.1384 126.057 75.3855 126.057C77.6327 126.058 78.7563 126.292 78.7562 126.758L78.7557 134.598L83.421 134.599L83.4215 126.831C83.4216 126.518 83.9773 126.294 85.0907 126.164C85.6708 126.115 86.2387 126.091 86.7923 126.091L88.494 126.164C89.6054 126.294 90.1631 126.518 90.163 126.832L90.1616 148.88Z" fill="black"/>
<path d="M104.343 135.374C104.766 135.374 104.978 136.153 104.978 137.71C104.978 138.179 104.925 138.728 104.823 139.363C104.725 139.994 104.542 140.308 104.277 140.308L100.035 140.307L100.035 143.646L106.174 143.646C106.553 143.646 106.809 144.135 106.939 145.112C107.009 145.535 107.045 145.987 107.045 146.463C107.045 146.942 106.976 147.56 106.842 148.32C106.711 149.075 106.487 149.451 106.174 149.451L94.767 149.45C93.9202 149.45 93.4969 149.106 93.4969 148.416L93.4984 126.962C93.4984 126.382 93.7528 126.091 94.2638 126.091L106.208 126.092C106.674 126.092 106.908 127.077 106.908 129.048C106.908 131.018 106.674 132.003 106.208 132.003L100.036 132.003L100.036 135.373L104.343 135.374Z" fill="black"/>
<path d="M134.502 148.72C134.502 149.189 133.453 149.421 131.359 149.42C129.268 149.42 128.135 149.253 127.956 148.915L122.387 138.51L122.387 148.883C122.387 149.286 121.357 149.485 119.301 149.485C117.243 149.485 116.215 149.285 116.215 148.882L116.217 126.565C116.217 126.229 117.096 126.06 118.855 126.06C119.543 126.061 120.349 126.124 121.273 126.248C122.195 126.368 122.757 126.596 122.958 126.932L128.29 137.207L128.291 126.729C128.291 126.305 129.325 126.094 131.393 126.094C133.465 126.094 134.503 126.306 134.503 126.729L134.502 148.72Z" fill="black"/>
<path d="M148.744 126.763C148.744 126.319 149.949 126.095 152.359 126.095C154.773 126.095 155.982 126.319 155.982 126.763L155.981 142.078C155.981 144.347 155.168 146.202 153.546 147.639C151.922 149.072 149.681 149.788 146.821 149.788C143.965 149.788 141.643 149.051 139.851 147.573C138.06 146.091 137.165 144.094 137.165 141.58L137.166 126.794C137.166 126.351 138.371 126.127 140.781 126.127C143.195 126.127 144.404 126.351 144.404 126.795L144.403 141.849C144.403 142.295 144.635 142.651 145.103 142.916C145.592 143.182 146.101 143.315 146.634 143.315C147.171 143.315 147.656 143.193 148.091 142.949C148.525 142.704 148.743 142.338 148.743 141.849L148.744 126.763Z" fill="black"/>
<path d="M182.141 149.489C180.158 149.489 179.169 149.267 179.169 148.821L178.47 135.444L174.398 148.992C174.304 149.258 173.547 149.391 172.126 149.39C170.704 149.39 169.971 149.268 169.928 149.024L165.72 135.304L165.255 148.625C165.232 148.956 164.809 149.184 163.985 149.308C163.164 149.429 162.48 149.487 161.933 149.487C161.389 149.487 160.862 149.455 160.353 149.39C159.283 149.233 158.76 148.954 158.782 148.551L159.549 126.869C159.549 126.332 160.904 126.063 163.62 126.063C164.422 126.063 165.403 126.127 166.559 126.251C167.715 126.371 168.358 126.609 168.489 126.967L172.225 137.479L175.499 126.935C175.698 126.355 177.235 126.064 180.107 126.064C180.925 126.064 181.909 126.128 183.055 126.252C184.198 126.372 184.772 126.59 184.772 126.903L185.74 148.789C185.74 149.033 185.304 149.212 184.437 149.326C183.568 149.436 182.803 149.489 182.141 149.489Z" fill="black"/>
<path d="M205.422 132.14C205.422 134.453 204.42 136.211 202.417 137.416C203.508 137.813 204.42 138.503 205.153 139.484C205.886 140.461 206.252 141.846 206.252 143.637C206.252 145.428 205.588 146.849 204.265 147.895C202.946 148.937 201.051 149.458 198.582 149.458L190.708 149.457C190.328 149.457 190.016 149.331 189.772 149.074C189.528 148.82 189.406 148.48 189.406 148.057L189.407 126.7C189.407 126.456 189.444 126.297 189.521 126.22C189.603 126.139 189.766 126.098 190.01 126.098L197.614 126.098C202.819 126.099 205.422 128.114 205.422 132.14ZM195.815 131.505L195.814 135.877L195.977 135.877C198.114 135.877 199.185 135.167 199.185 133.744C199.185 132.962 198.978 132.396 198.567 132.042C198.153 131.684 197.469 131.505 196.515 131.505L195.815 131.505ZM195.814 139.817L195.814 144.149L196.416 144.149C197.371 144.149 198.071 143.974 198.517 143.62C198.961 143.262 199.185 142.696 199.185 141.918C199.185 141.137 198.977 140.591 198.566 140.282C198.153 139.972 197.469 139.818 196.514 139.818L195.814 139.817Z" fill="black"/>
<path d="M219.701 135.382C220.124 135.382 220.336 136.161 220.336 137.718C220.336 138.187 220.283 138.736 220.181 139.371C220.083 140.002 219.9 140.316 219.636 140.316L215.394 140.315L215.393 143.654L221.532 143.654C221.911 143.654 222.167 144.142 222.298 145.12C222.367 145.543 222.403 145.995 222.403 146.471C222.403 146.949 222.334 147.568 222.2 148.327C222.069 149.083 221.846 149.459 221.532 149.459L210.125 149.458C209.278 149.458 208.855 149.114 208.855 148.424L208.857 126.97C208.857 126.39 209.111 126.099 209.622 126.099L221.566 126.1C222.032 126.1 222.266 127.085 222.266 129.056C222.266 131.026 222.032 132.011 221.566 132.011L215.394 132.011L215.394 135.381L219.701 135.382Z" fill="black"/>
<path d="M231.677 148.996C231.677 149.35 230.618 149.525 228.501 149.525C226.368 149.525 225.301 149.36 225.301 149.028L225.303 127.273C225.303 126.491 225.714 126.1 226.541 126.1L232.908 126.101C238.758 126.101 241.684 128.381 241.684 132.941C241.684 134.325 241.415 135.579 240.878 136.702C240.344 137.822 239.591 138.713 238.614 139.381L242.815 146.391C242.64 146.924 242.062 147.535 241.081 148.223C239.745 149.184 238.642 149.664 237.775 149.664C236.912 149.664 236.269 149.352 235.845 148.727L232.711 141.416L231.677 141.416L231.677 148.996ZM231.678 132.012L231.677 137.011L231.84 137.011C233.951 137.011 235.008 136.136 235.008 134.381C235.008 133.579 234.8 132.985 234.389 132.598C233.982 132.207 233.31 132.012 232.378 132.012L231.678 132.012Z" fill="black"/>
<path d="M245.847 141.319C246.271 141.657 246.997 142.115 248.029 142.695C249.065 143.271 250.056 143.558 251.001 143.558C251.949 143.558 252.426 143.19 252.426 142.451C252.426 142.121 252.289 141.828 252.019 141.572C251.752 141.317 251.264 141.024 250.553 140.692C249.841 140.356 249.308 140.094 248.949 139.902C248.595 139.713 248.123 139.401 247.533 138.966C246.947 138.532 246.495 138.082 246.181 137.614C245.296 136.35 244.854 134.738 244.854 132.778C244.855 130.82 245.581 129.169 247.037 127.828C248.49 126.482 250.4 125.809 252.761 125.809C254.361 125.809 255.84 125.984 257.198 126.33C258.554 126.672 259.254 127.12 259.299 127.674C259.299 127.739 259.299 127.808 259.299 127.877C259.298 128.655 259.054 129.64 258.566 130.833C258.077 132.022 257.731 132.681 257.531 132.811C256.103 132.078 254.828 131.712 253.705 131.712C252.585 131.712 252.028 132.111 252.027 132.909C252.027 133.403 252.437 133.837 253.257 134.211C253.436 134.305 253.69 134.429 254.022 134.586C254.358 134.739 254.743 134.92 255.178 135.132C255.612 135.343 256.078 135.612 256.579 135.938C257.077 136.259 257.617 136.685 258.199 137.216C259.375 138.33 259.965 139.797 259.965 141.621C259.965 143.998 259.307 145.944 257.994 147.459C256.679 148.973 254.656 149.75 251.92 149.795C250.585 149.795 249.376 149.683 248.297 149.461C247.223 149.239 246.282 148.805 245.48 148.158C244.682 147.513 244.284 146.733 244.284 145.821C244.284 144.909 244.449 144.003 244.78 143.102C245.116 142.202 245.473 141.608 245.847 141.319Z" fill="black"/>
</g>
<mask id="mask14_352_17825" style="mask-type:luminance" maskUnits="userSpaceOnUse" x="112" y="189" width="77" height="17">
<path d="M188.255 189.603L112.698 189.597L112.697 205.751L188.254 205.756L188.255 189.603Z" fill="white"/>
</mask>
<g mask="url(#mask14_352_17825)">
<path d="M113.935 201.526L113.935 193.197L114.937 193.197L119.374 199.873L119.374 193.197L120.376 193.197L120.375 201.526L119.374 201.526L114.937 194.849L114.936 201.526L113.935 201.526Z" fill="black"/>
<path d="M124.224 201.673C123.528 201.673 122.974 201.461 122.563 201.038C122.15 200.611 121.944 199.955 121.944 199.076L121.944 195.624L122.938 195.624L122.937 198.97C122.937 200.197 123.442 200.81 124.452 200.81C124.967 200.81 125.392 200.627 125.73 200.257C126.066 199.888 126.235 199.365 126.235 198.685L126.235 195.624L127.237 195.624L127.236 201.527L126.332 201.527L126.259 200.468C126.074 200.843 125.803 201.14 125.445 201.356C125.087 201.567 124.68 201.673 124.224 201.673Z" fill="black"/>
<path d="M128.879 201.527L128.879 195.624L129.783 195.624L129.856 196.487C130.045 196.168 130.298 195.921 130.613 195.746C130.933 195.573 131.291 195.486 131.688 195.486C132.154 195.486 132.555 195.582 132.893 195.771C133.229 195.962 133.489 196.251 133.675 196.642C133.88 196.284 134.163 196.003 134.521 195.795C134.884 195.59 135.275 195.486 135.694 195.486C136.398 195.486 136.96 195.698 137.379 196.121C137.802 196.545 138.014 197.196 138.014 198.075L138.014 201.528L137.029 201.527L137.029 198.181C137.029 197.575 136.903 197.115 136.654 196.805C136.41 196.496 136.056 196.341 135.596 196.341C135.124 196.341 134.729 196.526 134.415 196.895C134.1 197.265 133.943 197.79 133.943 198.474L133.943 201.527L132.941 201.527L132.942 198.181C132.942 197.574 132.82 197.114 132.575 196.805C132.331 196.495 131.977 196.341 131.517 196.341C131.049 196.341 130.658 196.526 130.344 196.894C130.035 197.265 129.88 197.79 129.88 198.474L129.88 201.527L128.879 201.527Z" fill="black"/>
<path d="M142.676 201.674C142.192 201.674 141.76 201.573 141.382 201.373C141.007 201.174 140.722 200.897 140.527 200.543L140.429 201.528L139.525 201.528L139.526 192.962L140.527 192.962L140.527 196.602C140.717 196.321 140.987 196.065 141.341 195.837C141.694 195.605 142.141 195.487 142.685 195.487C143.275 195.487 143.788 195.623 144.224 195.894C144.657 196.16 144.993 196.529 145.233 197.001C145.477 197.469 145.6 197.999 145.599 198.589C145.599 199.187 145.477 199.719 145.233 200.185C144.993 200.647 144.655 201.011 144.215 201.276C143.775 201.54 143.263 201.675 142.676 201.674ZM142.571 200.803C142.965 200.803 143.314 200.712 143.613 200.527C143.916 200.337 144.154 200.077 144.329 199.745C144.502 199.409 144.59 199.02 144.59 198.581C144.59 198.137 144.502 197.748 144.329 197.416C144.154 197.08 143.916 196.82 143.613 196.635C143.314 196.445 142.966 196.35 142.571 196.35C142.174 196.35 141.824 196.445 141.521 196.635C141.221 196.82 140.983 197.08 140.804 197.416C140.629 197.748 140.543 198.137 140.543 198.58C140.543 199.02 140.629 199.409 140.804 199.745C140.983 200.076 141.221 200.337 141.52 200.526C141.824 200.712 142.174 200.803 142.571 200.803Z" fill="black"/>
<path d="M149.651 201.675C149.085 201.675 148.584 201.547 148.144 201.292C147.709 201.031 147.367 200.671 147.118 200.209C146.868 199.749 146.744 199.206 146.744 198.581C146.744 197.962 146.866 197.423 147.111 196.96C147.359 196.494 147.705 196.134 148.145 195.878C148.584 195.617 149.093 195.487 149.675 195.487C150.245 195.487 150.736 195.617 151.149 195.878C151.566 196.134 151.886 196.472 152.11 196.896C152.332 197.315 152.443 197.765 152.443 198.247C152.443 198.335 152.439 198.422 152.435 198.508C152.429 198.595 152.427 198.693 152.427 198.801L147.729 198.801C147.756 199.257 147.861 199.635 148.047 199.932C148.23 200.225 148.464 200.449 148.747 200.6C149.028 200.753 149.329 200.828 149.651 200.828C150.062 200.828 150.408 200.734 150.685 200.543C150.961 200.354 151.161 200.095 151.287 199.77L152.272 199.77C152.114 200.319 151.81 200.775 151.36 201.138C150.915 201.496 150.345 201.675 149.651 201.675ZM149.651 196.334C149.173 196.334 148.749 196.478 148.381 196.765C148.01 197.054 147.799 197.473 147.746 198.027L151.458 198.027C151.43 197.502 151.247 197.089 150.905 196.79C150.567 196.486 150.15 196.334 149.651 196.334Z" fill="black"/>
<path d="M153.765 201.528L153.765 195.626L154.669 195.626L154.75 196.757C154.934 196.373 155.21 196.065 155.581 195.837C155.955 195.605 156.415 195.487 156.965 195.487L156.965 196.53L156.688 196.53C156.34 196.53 156.02 196.593 155.727 196.717C155.434 196.843 155.2 197.051 155.027 197.344C154.852 197.637 154.766 198.042 154.766 198.557L154.766 201.529L153.765 201.528Z" fill="black"/>
<path d="M160.339 201.676C159.632 201.676 159.046 201.496 158.58 201.138C158.112 200.78 157.839 200.297 157.758 199.689L158.784 199.689C158.849 199.998 159.014 200.267 159.28 200.495C159.545 200.719 159.903 200.829 160.355 200.829C160.772 200.829 161.079 200.739 161.275 200.56C161.474 200.381 161.576 200.169 161.576 199.925C161.576 199.567 161.446 199.329 161.185 199.209C160.929 199.091 160.569 198.985 160.103 198.891C159.787 198.826 159.47 198.734 159.15 198.614C158.834 198.496 158.568 198.327 158.352 198.109C158.14 197.894 158.035 197.605 158.035 197.246C158.035 196.731 158.226 196.31 158.613 195.984C158.998 195.655 159.519 195.488 160.176 195.488C160.799 195.488 161.312 195.647 161.715 195.96C162.116 196.27 162.35 196.715 162.415 197.295L161.422 197.295C161.383 196.992 161.255 196.756 161.039 196.587C160.821 196.42 160.528 196.335 160.16 196.335C159.806 196.335 159.533 196.412 159.337 196.562C159.142 196.709 159.044 196.904 159.044 197.149C159.044 197.389 159.168 197.576 159.419 197.71C159.667 197.847 160.007 197.961 160.436 198.052C160.799 198.134 161.147 198.232 161.479 198.346C161.808 198.46 162.077 198.631 162.285 198.859C162.496 199.087 162.602 199.416 162.602 199.844C162.606 200.371 162.407 200.809 161.999 201.155C161.592 201.503 161.039 201.676 160.339 201.676Z" fill="black"/>
<path d="M168.063 201.529L168.063 194.324L166.72 194.617L166.72 193.925L168.397 193.2L169.073 193.2L169.072 201.529L168.063 201.529Z" fill="black"/>
<path d="M170.654 198.493L170.654 197.654L175.368 197.654L175.368 198.493L170.654 198.493Z" fill="black"/>
<path d="M177.758 201.53L177.759 194.324L176.415 194.617L176.415 193.925L178.092 193.201L178.768 193.201L178.768 201.53L177.758 201.53Z" fill="black"/>
<path d="M183.777 201.677C183.038 201.677 182.401 201.498 181.864 201.14C181.331 200.777 180.922 200.272 180.635 199.625C180.352 198.974 180.211 198.223 180.211 197.37C180.211 196.513 180.352 195.762 180.635 195.114C180.922 194.469 181.331 193.967 181.864 193.608C182.402 193.246 183.039 193.063 183.778 193.063C184.515 193.063 185.15 193.246 185.683 193.609C186.214 193.967 186.621 194.47 186.904 195.115C187.191 195.762 187.336 196.513 187.336 197.37C187.335 198.223 187.191 198.974 186.904 199.626C186.621 200.273 186.214 200.778 185.682 201.14C185.149 201.498 184.514 201.677 183.777 201.677ZM183.777 200.79C184.26 200.79 184.693 200.655 185.08 200.383C185.465 200.112 185.766 199.721 185.984 199.21C186.2 198.695 186.31 198.083 186.31 197.37C186.31 196.654 186.2 196.043 185.984 195.538C185.766 195.029 185.465 194.638 185.08 194.366C184.694 194.089 184.26 193.95 183.778 193.95C183.283 193.95 182.846 194.089 182.467 194.366C182.086 194.638 181.785 195.029 181.563 195.538C181.339 196.043 181.229 196.653 181.229 197.37C181.229 198.082 181.339 198.695 181.563 199.21C181.785 199.721 182.086 200.112 182.466 200.382C182.845 200.655 183.283 200.79 183.777 200.79Z" fill="black"/>
</g>
<mask id="mask15_352_17825" style="mask-type:luminance" maskUnits="userSpaceOnUse" x="75" y="157" width="159" height="26">
<path d="M233.591 157.82L75.182 157.809L75.1803 182.821L233.589 182.832L233.591 157.82Z" fill="white"/>
</mask>
<g mask="url(#mask15_352_17825)">
<path d="M82.6839 162.599C83.7037 162.599 84.6014 162.744 85.3789 163.031C86.1605 163.32 86.5513 163.707 86.5512 164.195C86.5512 164.684 86.3639 165.29 85.9893 166.011C85.6188 166.733 85.3074 167.094 85.0529 167.094C84.9878 167.094 84.9084 167.057 84.8168 166.98C84.7232 166.904 84.5115 166.821 84.1818 166.727C83.8561 166.636 83.5732 166.589 83.335 166.589C82.5208 166.589 81.8634 166.878 81.3646 167.452C80.87 168.028 80.6236 168.907 80.6235 170.09C80.6235 171.274 80.8778 172.154 81.3887 172.728C81.8975 173.298 82.5468 173.583 83.3346 173.583C83.6541 173.583 84.0124 173.54 84.4093 173.453C84.8103 173.361 85.0953 173.231 85.2642 173.062C85.2907 173.029 85.3456 173.013 85.4271 173.013C85.5126 173.013 85.6713 173.174 85.8993 173.493C86.1313 173.809 86.347 174.222 86.5424 174.731C86.7418 175.242 86.8436 175.635 86.8436 175.912C86.8435 176.461 86.4221 176.897 85.5815 177.222C84.7388 177.542 83.7454 177.703 82.6015 177.702C80.7492 177.702 79.2267 177.051 78.034 175.748C76.8454 174.445 76.2512 172.609 76.2513 170.236C76.2515 167.858 76.8643 165.992 78.0918 164.634C79.3172 163.279 80.8479 162.599 82.6839 162.599Z" fill="black"/>
<path d="M94.7022 177.703C92.736 177.703 91.1321 177.06 89.8905 175.774C88.653 174.483 88.0344 172.602 88.0345 170.131C88.0347 167.656 88.6617 165.783 89.9157 164.513C91.1696 163.239 92.7858 162.6 94.7684 162.6C96.7489 162.6 98.3467 163.227 99.5639 164.481C100.785 165.735 101.396 167.632 101.395 170.173C101.395 172.713 100.77 174.606 99.5224 175.847C98.2786 177.085 96.6726 177.704 94.7022 177.703ZM94.7193 166.63C94.0455 166.63 93.4817 166.94 93.0257 167.559C92.5697 168.173 92.3417 169.036 92.3416 170.148C92.3415 171.261 92.5572 172.116 92.9928 172.712C93.4263 173.311 93.9962 173.608 94.7025 173.608C95.4129 173.608 95.989 173.307 96.4287 172.704C96.8684 172.102 97.0883 171.243 97.0883 170.124C97.0884 169 96.8605 168.137 96.4046 167.534C95.9528 166.932 95.391 166.631 94.7193 166.63Z" fill="black"/>
<path d="M102.865 176.255L102.865 163.187C102.865 162.894 103.576 162.747 104.999 162.748C106.419 162.748 107.132 162.894 107.132 163.187L107.131 173.479L110.363 173.479C110.618 173.479 110.795 173.809 110.893 174.464C110.935 174.79 110.958 175.122 110.958 175.457C110.958 175.795 110.935 176.137 110.892 176.483C110.778 177.157 110.595 177.493 110.347 177.493L103.874 177.492C103.565 177.492 103.316 177.368 103.133 177.118C102.954 176.863 102.865 176.576 102.865 176.255Z" fill="black"/>
<path d="M118.458 177.705C116.491 177.705 114.888 177.061 113.646 175.775C112.409 174.484 111.79 172.603 111.79 170.132C111.79 167.657 112.417 165.785 113.671 164.515C114.925 163.24 116.541 162.601 118.524 162.602C120.504 162.602 122.102 163.229 123.319 164.483C124.541 165.737 125.151 167.634 125.151 170.174C125.151 172.714 124.526 174.607 123.278 175.849C122.034 177.086 120.428 177.705 118.458 177.705ZM118.475 166.632C117.801 166.632 117.237 166.941 116.781 167.56C116.325 168.175 116.097 169.038 116.097 170.149C116.097 171.262 116.313 172.117 116.748 172.714C117.182 173.312 117.752 173.609 118.458 173.609C119.168 173.61 119.744 173.308 120.184 172.706C120.624 172.103 120.844 171.244 120.844 170.125C120.844 169.001 120.616 168.138 120.16 167.536C119.708 166.933 119.146 166.632 118.475 166.632Z" fill="black"/>
<path d="M130.846 177.201C130.846 177.425 130.18 177.535 128.851 177.535C127.504 177.535 126.832 177.429 126.832 177.217L126.833 163.522C126.833 163.034 127.089 162.79 127.606 162.79L131.62 162.79C135.305 162.79 137.149 164.227 137.148 167.097C137.148 167.967 136.979 168.754 136.643 169.459C136.306 170.165 135.829 170.729 135.21 171.152L137.864 175.565C137.75 175.903 137.384 176.288 136.765 176.721C135.928 177.32 135.236 177.617 134.689 177.617C134.139 177.617 133.732 177.421 133.468 177.03L131.498 172.43L130.846 172.43L130.846 177.201ZM130.847 166.511L130.846 169.662L130.952 169.662C132.281 169.662 132.947 169.108 132.947 168.001C132.947 167.496 132.817 167.122 132.556 166.877C132.296 166.633 131.872 166.511 131.286 166.511L130.847 166.511Z" fill="black"/>
<path d="M140.609 173.88L140.609 166.405L139.119 166.405C138.879 166.405 138.712 166.104 138.614 165.502C138.57 165.208 138.549 164.907 138.549 164.598C138.549 164.288 138.57 163.987 138.615 163.694C138.712 163.092 138.879 162.79 139.119 162.79L146.178 162.791C146.417 162.791 146.577 163.092 146.659 163.695C146.718 163.988 146.748 164.289 146.748 164.598C146.748 164.908 146.718 165.209 146.659 165.502C146.577 166.105 146.416 166.406 146.178 166.406L144.77 166.406L144.769 173.88L146.243 173.88C146.481 173.88 146.65 174.181 146.748 174.784C146.8 175.077 146.829 175.378 146.829 175.688C146.829 175.997 146.8 176.298 146.747 176.591C146.65 177.194 146.481 177.495 146.243 177.495L139.159 177.495C138.919 177.495 138.76 177.193 138.679 176.591C138.624 176.298 138.597 175.996 138.597 175.687C138.597 175.378 138.624 175.076 138.679 174.783C138.76 174.181 138.919 173.88 139.159 173.88L140.609 173.88Z" fill="black"/>
<path d="M159.748 177.032C159.748 177.325 159.088 177.472 157.769 177.472C156.454 177.472 155.742 177.37 155.628 177.162L152.119 170.608L152.119 177.137C152.119 177.394 151.469 177.52 150.173 177.52C148.88 177.52 148.235 177.394 148.235 177.137L148.236 163.084C148.236 162.873 148.79 162.767 149.897 162.767C150.33 162.767 150.837 162.808 151.419 162.889C152 162.966 152.352 163.107 152.478 163.312L155.84 169.786L155.84 163.191C155.841 162.926 156.492 162.792 157.795 162.792C159.097 162.792 159.749 162.926 159.749 163.191L159.748 177.032Z" fill="black"/>
<path d="M169.621 173.108L169.662 170.25C169.662 170.055 169.862 169.929 170.265 169.868C170.672 169.803 171.008 169.77 171.274 169.77L172.097 169.827C172.628 169.915 172.895 170.061 172.895 170.267L172.813 176.846C172.53 177.041 171.966 177.234 171.119 177.424C170.272 177.613 169.304 177.708 168.213 177.708C166.181 177.708 164.543 177.053 163.295 175.738C162.045 174.419 161.423 172.485 161.423 169.932C161.423 167.763 162.03 165.998 163.247 164.64C164.468 163.285 166.158 162.605 168.319 162.605C169.296 162.605 170.18 162.701 170.974 162.89C171.765 163.076 172.309 163.33 172.602 163.656C172.618 163.766 172.626 163.973 172.626 164.283C172.626 164.592 172.52 165.032 172.309 165.602C172.097 166.167 171.857 166.591 171.592 166.872C171.326 167.148 171.132 167.287 171.014 167.287C170.894 167.287 170.766 167.236 170.631 167.132C170.501 167.024 170.241 166.912 169.85 166.798C169.459 166.68 169.08 166.619 168.718 166.619C167.849 166.619 167.143 166.9 166.601 167.458C166.064 168.017 165.795 168.886 165.795 170.063C165.795 171.235 166.072 172.129 166.625 172.742C167.179 173.35 167.816 173.654 168.539 173.654C169.259 173.654 169.621 173.473 169.621 173.108Z" fill="black"/>
<path d="M189.154 166.596C189.154 168.052 188.523 169.159 187.265 169.918C187.949 170.168 188.521 170.602 188.983 171.221C189.443 171.836 189.675 172.707 189.675 173.834C189.675 174.958 189.255 175.851 188.421 176.513C187.59 177.17 186.398 177.498 184.847 177.498L179.888 177.498C179.648 177.498 179.45 177.42 179.294 177.261C179.141 177.099 179.066 176.885 179.066 176.618L179.067 163.168C179.067 163.017 179.091 162.915 179.14 162.866C179.189 162.818 179.291 162.793 179.449 162.793L184.237 162.794C187.514 162.794 189.155 164.062 189.154 166.596ZM183.105 166.197L183.105 168.949L183.211 168.949C184.55 168.949 185.222 168.501 185.222 167.606C185.222 167.117 185.092 166.763 184.831 166.539C184.575 166.311 184.147 166.197 183.545 166.197L183.105 166.197ZM183.105 171.424L183.104 174.16L183.479 174.16C184.081 174.16 184.521 174.05 184.798 173.826C185.079 173.598 185.221 173.24 185.221 172.751C185.221 172.263 185.091 171.921 184.831 171.725C184.574 171.526 184.147 171.424 183.544 171.424L183.105 171.424Z" fill="black"/>
<path d="M197.559 177.71C195.593 177.71 193.989 177.067 192.747 175.78C191.51 174.49 190.891 172.609 190.892 170.138C190.892 167.663 191.519 165.79 192.773 164.52C194.027 163.246 195.643 162.607 197.625 162.607C199.606 162.607 201.204 163.234 202.421 164.488C203.642 165.742 204.253 167.639 204.252 170.179C204.252 172.72 203.627 174.613 202.379 175.854C201.136 177.092 199.53 177.71 197.559 177.71ZM197.576 166.637C196.903 166.637 196.339 166.946 195.883 167.565C195.427 168.18 195.199 169.043 195.199 170.154C195.199 171.268 195.414 172.123 195.85 172.719C196.283 173.318 196.853 173.615 197.56 173.615C198.27 173.615 198.846 173.314 199.286 172.711C199.725 172.109 199.945 171.25 199.945 170.13C199.945 169.007 199.717 168.144 199.262 167.541C198.81 166.939 198.248 166.637 197.576 166.637Z" fill="black"/>
<path d="M212.178 177.711C210.212 177.711 208.608 177.068 207.366 175.781C206.129 174.491 205.51 172.61 205.51 170.139C205.51 167.664 206.138 165.791 207.391 164.521C208.645 163.247 210.262 162.608 212.244 162.608C214.225 162.608 215.822 163.235 217.04 164.489C218.261 165.743 218.871 167.64 218.871 170.18C218.871 172.721 218.246 174.614 216.998 175.855C215.754 177.093 214.148 177.711 212.178 177.711ZM212.195 166.638C211.521 166.638 210.957 166.948 210.501 167.566C210.045 168.181 209.817 169.044 209.817 170.155C209.817 171.269 210.033 172.124 210.469 172.72C210.902 173.319 211.472 173.616 212.178 173.616C212.889 173.616 213.465 173.315 213.904 172.712C214.344 172.11 214.564 171.251 214.564 170.131C214.564 169.008 214.336 168.145 213.88 167.542C213.429 166.94 212.867 166.638 212.195 166.638Z" fill="black"/>
<path d="M224.753 177.207C224.753 177.419 224.094 177.525 222.775 177.525L221.602 177.46C220.902 177.407 220.552 177.309 220.552 177.166L220.553 163.073C220.553 162.835 221.253 162.715 222.653 162.715C224.054 162.715 224.754 162.835 224.754 163.073L224.754 168.447L227.319 163.073C227.416 162.874 227.974 162.772 228.996 162.772C230.856 162.772 231.838 162.935 231.935 163.261C231.935 163.289 231.929 163.316 231.919 163.342L228.263 169.937L232.504 175.799C232.504 175.828 232.37 175.946 232.105 176.158C231.458 176.717 230.701 177.157 229.834 177.476C229.567 177.574 229.3 177.623 229.036 177.623L228.531 177.582C228.085 177.474 227.735 177.189 227.481 176.727L225.087 172.143L224.753 172.143L224.753 177.207Z" fill="black"/>
</g>
</g>
</g>
</g>
<defs>
<filter id="filter0_f_352_17825" x="0" y="0" width="318" height="448.888" filterUnits="userSpaceOnUse" color-interpolation-filters="sRGB">
<feFlood flood-opacity="0" result="BackgroundImageFix"/>
<feBlend mode="normal" in="SourceGraphic" in2="BackgroundImageFix" result="shape"/>
<feGaussianBlur stdDeviation="2.5" result="effect1_foregroundBlur_352_17825"/>
</filter>
<clipPath id="clip0_352_17825">
<rect x="5" y="5" width="308" height="438.888" rx="23.4074" fill="white"/>
</clipPath>
<clipPath id="clip1_352_17825">
<rect x="2.1001" y="5.12695" width="310.305" height="438.882" rx="23.413" fill="white"/>
</clipPath>
</defs>
</svg>
