<svg width="32" height="32" viewBox="0 0 32 32" fill="none" xmlns="http://www.w3.org/2000/svg">
<path opacity="0.1" d="M20.8745 13.2256C20.9982 13.2232 21.1215 13.2445 21.2358 13.2891C21.3503 13.3338 21.4539 13.4011 21.5396 13.4854C21.6252 13.5696 21.6914 13.6698 21.7339 13.7793C21.7762 13.8887 21.7945 14.0049 21.7866 14.1211L21.2769 22.0264C21.248 22.5224 21.0198 22.9899 20.6392 23.334C20.2584 23.6781 19.7529 23.8738 19.2251 23.8809L13.0796 23.9492C12.5445 23.9603 12.0249 23.7779 11.6294 23.4385C11.2339 23.099 10.9931 22.6285 10.9556 22.126L10.2134 14.1289C10.2043 14.012 10.2213 13.8946 10.2632 13.7842C10.3051 13.6737 10.3707 13.5724 10.4565 13.4873C10.5423 13.4023 10.6463 13.3352 10.7612 13.29C10.8762 13.2449 11 13.2232 11.1245 13.2256H20.8745ZM17.3765 9.0625C17.578 9.06286 17.7736 9.13345 17.9282 9.2627C18.0828 9.392 18.1872 9.5722 18.2231 9.77051L18.4233 10.8623H13.6001L13.8071 9.7627C13.8463 9.56528 13.9533 9.38742 14.1089 9.25977C14.2646 9.13209 14.4602 9.06221 14.6616 9.0625H17.3765Z" fill="#707070"/>
<path d="M13.2099 24.0625C12.5847 24.0566 11.9847 23.8157 11.5289 23.3878C11.0731 22.9598 10.7951 22.3761 10.7499 21.7525L10.2024 13.9225C10.1975 13.8486 10.2071 13.7745 10.2309 13.7044C10.2546 13.6342 10.2919 13.5695 10.3406 13.5138C10.3894 13.458 10.4486 13.4125 10.515 13.3797C10.5813 13.3468 10.6535 13.3274 10.7274 13.3225C10.8013 13.3176 10.8754 13.3272 10.9455 13.351C11.0156 13.3747 11.0804 13.412 11.1361 13.4607C11.1918 13.5095 11.2374 13.5687 11.2702 13.6351C11.303 13.7014 11.3225 13.7736 11.3274 13.8475L11.8599 21.6775C11.8865 22.0223 12.043 22.3442 12.2977 22.5781C12.5525 22.812 12.8866 22.9404 13.2324 22.9375L18.8949 22.87C19.2389 22.8666 19.5687 22.732 19.8168 22.4936C20.065 22.2552 20.2127 21.9311 20.2299 21.5875L20.6724 13.8475C20.6839 13.6983 20.7529 13.5594 20.8648 13.4601C20.9768 13.3607 21.1229 13.3087 21.2724 13.315C21.4203 13.3246 21.5585 13.3923 21.6568 13.5033C21.7551 13.6142 21.8056 13.7595 21.7974 13.9075L21.3549 21.655C21.3172 22.2813 21.0444 22.8704 20.591 23.3042C20.1377 23.7381 19.5373 23.9848 18.9099 23.995L13.2474 24.0625H13.2099ZM18.2349 16.6375C18.2329 16.4889 18.1731 16.347 18.068 16.2419C17.9629 16.1368 17.821 16.0769 17.6724 16.075H14.3274C14.1782 16.075 14.0351 16.1343 13.9296 16.2397C13.8242 16.3452 13.7649 16.4883 13.7649 16.6375C13.7649 16.7867 13.8242 16.9298 13.9296 17.0352C14.0351 17.1407 14.1782 17.2 14.3274 17.2H17.6724C17.7475 17.202 17.8223 17.1889 17.8923 17.1616C17.9622 17.1342 18.026 17.0931 18.0799 17.0406C18.1337 16.9882 18.1765 16.9255 18.2057 16.8563C18.2349 16.787 18.2499 16.7126 18.2499 16.6375H18.2349ZM17.6499 19.4125C17.6499 19.2633 17.5906 19.1202 17.4851 19.0147C17.3797 18.9093 17.2366 18.85 17.0874 18.85H14.9124C14.7632 18.85 14.6201 18.9093 14.5146 19.0147C14.4092 19.1202 14.3499 19.2633 14.3499 19.4125C14.3499 19.5617 14.4092 19.7048 14.5146 19.8102C14.6201 19.9157 14.7632 19.975 14.9124 19.975H17.0874C17.236 19.973 17.3779 19.9132 17.483 19.8081C17.5881 19.703 17.6479 19.5611 17.6499 19.4125ZM22.7499 11.89C22.7316 12.0238 22.6652 12.1464 22.563 12.2348C22.4609 12.3232 22.33 12.3712 22.1949 12.37H22.1124C18.0639 11.8136 13.9584 11.8136 9.90989 12.37C9.83547 12.3828 9.75924 12.3808 9.68562 12.3639C9.61201 12.3471 9.54248 12.3157 9.48107 12.2718C9.41966 12.2278 9.3676 12.1721 9.32792 12.1078C9.28823 12.0436 9.26171 11.9721 9.24989 11.8975C9.22609 11.7503 9.2617 11.5997 9.34889 11.4787C9.43608 11.3578 9.56773 11.2764 9.71489 11.2525C9.81239 11.2525 10.8474 11.0725 12.4749 10.945L12.7449 9.53499C12.8306 9.08489 13.0709 8.67888 13.4242 8.38717C13.7775 8.09546 14.2217 7.9364 14.6799 7.93749H17.3274C17.789 7.93529 18.2367 8.09568 18.5919 8.39052C18.947 8.68537 19.1871 9.09586 19.2699 9.54999L19.5249 10.945C20.4174 11.02 21.3324 11.11 22.2699 11.2525C22.3434 11.2626 22.4141 11.2872 22.4781 11.3247C22.542 11.3623 22.5979 11.4121 22.6425 11.4714C22.6871 11.5306 22.7196 11.5981 22.738 11.67C22.7564 11.7418 22.7605 11.8166 22.7499 11.89ZM15.6699 10.8175H18.3549L18.1599 9.75249C18.1248 9.55914 18.023 9.38422 17.8723 9.25815C17.7216 9.13208 17.5314 9.06284 17.3349 9.06249H14.6874C14.491 9.06221 14.3007 9.13011 14.1489 9.25459C13.997 9.37907 13.8931 9.55241 13.8549 9.74499L13.6524 10.8175H15.6699Z" fill="#707070"/>
</svg>
