<svg width="240" height="189" viewBox="0 0 240 189" fill="none" xmlns="http://www.w3.org/2000/svg">
<path d="M56.5722 125.329C50.643 117.116 44.6259 108.815 40.7609 99.4604C36.8959 90.1054 35.2709 79.4327 38.3453 69.8142C41.7711 59.0537 51.214 50.4453 62.238 47.9858C67.2449 46.8878 73.1741 46.6242 76.2486 42.4957C77.3905 40.9585 77.9615 39.0699 78.4885 37.1814C80.3771 30.2419 82.5292 22.2045 89.1173 19.2619C96.2763 16.0557 104.226 20.7551 111.297 24.1809C119.378 28.0898 128.162 30.4615 137.122 31.1204C141.119 31.4278 145.16 31.3839 148.981 32.5258C152.802 33.6677 156.447 36.3469 157.545 40.1679C158.775 44.6039 156.403 49.5669 157.94 53.8711C159.17 57.2969 162.64 59.4929 166.153 60.5909C169.623 61.6889 173.356 62.0403 176.826 63.27C186.533 66.6958 192.681 76.8414 193.779 87.0749C194.877 97.3083 191.715 107.542 187.499 116.897C185.215 121.948 182.624 126.867 179.11 131.171C166.066 147.29 142.173 151.857 122.277 145.972C117.534 144.567 112.878 142.634 108.003 141.887C102.557 141.053 97.0229 141.712 91.4889 141.58C79.1473 141.316 66.9375 136.968 57.1432 129.414" fill="#F3F8EC"/>
<path d="M206.69 146.367C206.075 144.434 205.152 142.634 204.098 140.965C202.956 139.164 201.595 137.363 201.068 135.255C200.453 132.971 201.156 130.643 201.727 128.403C202.298 126.164 202.605 124.011 202.254 121.728C201.507 117.028 198.476 113.031 195.49 109.43C196.28 108.595 196.72 107.541 196.808 106.355C196.895 105.038 196.588 103.72 196.632 102.403C196.632 102.183 196.544 102.007 196.456 101.876C197.027 99.6357 197.554 97.3957 198.125 95.1558C198.608 93.2672 199.179 91.3347 199.399 89.3583C200.014 89.8414 200.804 90.1489 201.595 90.1489C204.01 90.1489 205.592 87.2062 206.382 85.2737C207.392 82.8581 207.656 80.2229 207.612 77.6316C207.568 76.1383 207.436 74.6889 207.304 73.1956C207.173 72.0537 207.217 70.6921 206.47 69.7259C206.119 69.2867 205.635 68.9793 205.108 68.8036C204.933 68.2326 204.669 67.7056 204.274 67.2224C203.396 66.1684 201.771 65.5974 200.541 66.388C200.058 64.8947 199.135 63.621 197.422 63.4453C195.578 63.2696 194.128 64.4994 193.426 66.0805C192.196 64.2359 190.307 62.9622 188.023 63.0061C185.652 63.05 183.368 64.2798 181.699 65.9048C179.81 67.7495 178.537 70.209 177.658 72.6686C176.78 75.0842 176.165 77.6316 175.858 80.2229C175.33 84.9223 175.77 90.061 173.222 94.2335C172.959 94.6727 172.651 95.1558 172.344 95.595C170.499 97.6153 169.401 100.294 169.313 103.018C169.269 104.423 169.928 106.048 168.786 107.19C167.864 108.112 166.634 108.595 165.8 109.606C163.735 112.065 164.043 115.403 164.087 118.39C164.131 120.103 163.955 121.728 163.384 123.309C162.857 124.802 162.066 126.207 161.408 127.657C160.354 129.897 159.695 132.268 159.475 134.684C157.016 129.677 153.766 125.109 149.857 121.113C145.948 117.116 141.512 113.69 136.856 110.616C135.099 109.43 133.299 108.244 131.41 107.19C131.41 106.926 131.278 106.707 131.103 106.575C130.444 103.018 129.785 99.46 129.126 95.9024C128.38 91.8178 127.589 87.7332 126.842 83.6487C126.711 82.9898 126.579 82.331 126.447 81.6283C130.268 79.4762 134.089 77.3241 137.866 75.172C138.393 74.8646 138.306 74.2497 137.866 73.9423C134.045 71.1314 130.268 68.2765 126.447 65.4217C124.471 63.9284 122.45 62.3912 120.43 60.8979C118.498 59.4485 116.609 57.8674 114.501 56.6816C113.139 55.891 111.69 55.2761 110.197 54.9247C110.987 54.4855 111.778 53.9585 112.524 53.2119C114.633 51.0598 115.599 44.1203 111.251 40.6506C107.737 50.0935 101.105 45.6576 93.9461 51.6746C88.5 56.2863 91.7501 67.7934 96.0103 72.8442C94.0778 73.2395 92.3211 74.3815 91.3109 76.0943C89.6419 78.9931 90.4325 82.9898 93.0677 85.0541C94.2096 85.9764 95.659 86.4156 97.1083 86.4596C96.1421 93.399 94.6927 100.207 93.3312 107.058C89.2466 108.42 85.162 109.825 81.5166 112.153C77.7395 114.569 74.2698 117.379 70.9757 120.41C69.4385 121.815 67.9452 123.221 66.4519 124.67C65.7053 121.113 63.6411 117.775 60.3909 116.15C60.6106 115.754 60.347 115.315 59.9957 115.14C60.3909 113.163 60.2592 111.143 59.5125 109.21C58.6781 107.014 57.2726 105.126 56.0428 103.193C53.4076 99.0647 53.8029 93.8821 53.188 89.2265C52.8366 86.6792 52.1778 84.1318 51.2994 81.7162C50.3771 79.2566 49.1034 76.7971 47.1709 74.9963C45.458 73.4152 43.1742 72.1854 40.8025 72.1854C38.5186 72.1854 36.63 73.4591 35.4442 75.3477C34.7415 73.7666 33.2921 72.5807 31.4474 72.7564C29.7345 72.9321 28.8561 74.2497 28.373 75.743C27.1432 74.9524 25.5182 75.5673 24.6398 76.6214C24.2445 77.1045 23.981 77.6316 23.8492 78.2464C23.3222 78.4221 22.839 78.7296 22.5316 79.1688C21.8289 80.135 21.8728 81.4966 21.7411 82.6385C21.6093 84.1318 21.4775 85.5811 21.4775 87.0744C21.4775 89.6657 21.785 92.301 22.8391 94.7166C23.6735 96.6491 25.2986 99.5478 27.7142 99.5478C28.5048 99.5478 29.2953 99.2404 29.9102 98.7572C30.1298 100.734 30.7447 102.666 31.2278 104.555C31.7988 106.795 32.4137 108.991 32.9846 111.231C31.6231 112.768 31.4914 115.14 31.8427 117.116C32.0623 118.346 32.5015 119.575 32.5015 120.805C32.5015 122.079 31.7988 123.221 31.14 124.275C29.8224 126.515 28.9879 129.018 29.6467 131.61C29.7785 132.225 30.042 132.796 30.3494 133.323C30.4812 133.586 30.6569 133.85 30.7447 134.113C30.8765 134.508 30.6569 134.552 30.3933 134.728C29.3832 135.299 28.5487 136.133 27.9338 137.1C27.3189 138.066 26.9676 139.164 26.8358 140.262C26.704 141.492 26.9675 142.678 27.3189 143.863C27.7142 145.181 28.2413 146.543 28.3291 147.904C28.4169 149.353 28.1534 150.803 27.802 152.252C27.2311 154.756 26.6601 157.215 26.6601 159.807C26.6601 162.09 27.0115 164.418 27.6703 166.614L29.1636 166.526C29.2514 166.834 29.3393 167.097 29.471 167.405C29.471 167.405 78.6179 181.371 105.146 172.719C131.674 164.023 172.124 140.35 205.987 157.303C206.997 157.786 209.105 153.877 206.69 146.367Z" fill="#FBFFF5"/>
<path d="M82.9226 74.1615L77.0812 80.0907C72.7331 84.5267 65.6619 84.5706 61.226 80.2225L56.9218 76.0061C52.4858 71.658 52.4419 64.5869 56.79 60.1509L62.6314 54.1777" fill="#FFE945"/>
<path d="M82.9557 74.1529C84.5372 72.5443 81.2762 66.7734 75.6718 61.2634C70.0675 55.7534 64.2421 52.5907 62.6606 54.1994C61.079 55.808 64.3401 61.5788 69.9444 67.0888C75.5488 72.5989 81.3741 75.7616 82.9557 74.1529Z" fill="white"/>
<path d="M21.9172 83.605C22.7517 83.9563 22.4003 85.3618 21.5219 85.0104C19.3698 84.132 17.2616 83.0779 15.2852 81.8042C8.34577 77.3683 2.94359 70.6924 0.0448434 62.9624C-0.262599 62.084 1.09891 61.7326 1.45027 62.5671C2.24084 64.6314 3.20713 66.6078 4.34906 68.5403C8.43365 75.2601 14.6264 80.6623 21.9172 83.605ZM59.0738 78.071C57.9758 78.9055 56.8778 79.74 55.648 80.3988C54.2425 81.1893 52.7493 81.6285 51.1242 81.8042C48.1816 82.1117 45.0193 81.8921 42.4719 83.6489C41.7252 84.1759 42.428 85.4496 43.2186 84.8786C45.7659 83.0779 49.1039 83.5171 52.0465 83.1218C55.1649 82.6826 57.6683 80.9258 60.0839 79.0372L59.0738 78.071ZM83.4496 74.6452C84.4597 73.5911 84.1962 71.5708 82.6151 68.8038C81.2096 66.3003 78.9258 63.4455 76.1588 60.7225C70.8444 55.4959 64.3442 51.4113 62.1043 53.6952C59.8644 55.9351 64.0807 62.3914 69.3951 67.618C73.6553 71.8343 78.7501 75.304 81.6928 75.304C82.4394 75.304 83.0104 75.0844 83.4496 74.6452ZM75.1486 61.7766C77.8278 64.4118 80.0238 67.1348 81.3414 69.5065C82.6151 71.7904 82.7908 73.2398 82.3955 73.635C81.4292 74.6013 76.2905 72.3614 70.4052 66.5639C64.5199 60.7664 62.1921 55.6716 63.1583 54.7054C63.2901 54.5736 63.5537 54.4858 63.8611 54.4858C65.7058 54.4858 70.1417 56.8575 75.1486 61.7766ZM68.8241 63.3138C70.5809 65.0267 72.2938 66.7395 74.0506 68.4524C74.7094 69.1112 75.7196 68.1011 75.0608 67.4423C73.304 65.7294 71.5911 64.0165 69.8343 62.3036C69.1755 61.6448 68.1653 62.655 68.8241 63.3138ZM70.4931 60.8981C72.2499 62.611 73.9628 64.3239 75.7196 66.0368C76.3784 66.6956 77.3885 65.6855 76.7297 65.0267C74.9729 63.3138 73.26 61.6009 71.5032 59.888C70.8444 59.2292 69.8343 60.2393 70.4931 60.8981ZM60.5231 60.986C63.0705 65.378 66.0132 69.9018 70.6248 72.3613C71.4593 72.8006 72.162 71.5708 71.3715 71.1316C66.9794 68.8038 64.2124 64.4557 61.7968 60.2833C61.3137 59.4488 60.0839 60.1954 60.5231 60.986Z" fill="black"/>
<path d="M164.263 46.7112L171.817 50.2248C177.439 52.8161 179.898 59.492 177.307 65.1138L174.76 70.6038C172.168 76.2257 165.492 78.6852 159.871 76.0939L152.316 72.5803" fill="#9ED5F0"/>
<path d="M164.263 46.7113C162.901 46.0964 160.486 48.1167 158.07 51.6304L152.317 48.9952C151.658 48.6877 150.867 48.9952 150.56 49.654L150.033 50.7959C149.725 51.4547 150.033 52.2453 150.692 52.5527L156.05 54.9683C155.567 55.8907 155.04 56.8569 154.6 57.8671C154.556 57.9549 154.513 58.0867 154.469 58.1745L148.539 55.4954C147.881 55.1879 147.09 55.4954 146.783 56.1542L146.256 57.2961C145.948 57.9549 146.256 58.7455 146.914 59.0529L152.975 61.8199C151.043 67.266 150.692 71.7459 152.361 72.4925C154.425 73.4588 158.773 68.4079 162.067 61.2929C165.317 54.2217 166.327 47.6775 164.263 46.7113Z" fill="white"/>
<path d="M164.57 46.0526C163.252 45.4378 161.408 46.404 159.344 48.8196C158.86 49.3906 158.333 50.0494 157.85 50.7521L152.624 48.3804C152.141 48.1608 151.57 48.1169 151.043 48.3365C150.516 48.5122 150.12 48.9075 149.901 49.3906L149.374 50.5325C149.154 51.0156 149.11 51.5866 149.33 52.1136C149.505 52.6407 149.901 53.036 150.384 53.2556L155.039 55.3637C154.688 55.9786 154.381 56.6374 154.073 57.2962L148.803 54.9245C148.32 54.7049 147.749 54.661 147.222 54.8806C146.695 55.0563 146.299 55.4516 146.08 55.9347L145.553 57.0766C145.333 57.5598 145.289 58.1307 145.509 58.6578C145.684 59.1848 146.08 59.5801 146.563 59.7997L152.053 62.3032C151.438 64.1478 150.955 65.9046 150.735 67.4858C150.252 70.648 150.691 72.6244 152.009 73.2393C152.272 73.3711 152.58 73.415 152.843 73.415C155.742 73.415 159.827 67.7932 162.638 61.6883C165.8 54.9245 167.425 47.3702 164.57 46.0526ZM150.691 51.5866C150.647 51.4548 150.647 51.2792 150.691 51.1035L151.218 49.9615C151.306 49.7419 151.526 49.6102 151.789 49.6102C151.877 49.6102 151.965 49.6102 152.053 49.6541L160.573 53.5191L159.563 55.759L151.043 51.894C150.867 51.8501 150.735 51.7184 150.691 51.5866ZM146.87 58.1307C146.826 57.999 146.826 57.8233 146.87 57.6476L147.397 56.5057C147.485 56.3739 147.573 56.2422 147.749 56.1982C147.836 56.1543 147.88 56.1543 147.968 56.1543C148.056 56.1543 148.144 56.1543 148.232 56.1982L156.752 60.0632L155.742 62.3032L147.222 58.4382C147.046 58.3942 146.914 58.2625 146.87 58.1307ZM161.364 61.0734C157.894 68.5398 153.897 72.4927 152.624 71.9217C152.097 71.7021 151.745 70.2967 152.141 67.7054C152.36 66.256 152.799 64.6309 153.37 62.918L156.401 64.2796L158.641 59.4044L155.391 57.9111C155.698 57.2523 156.049 56.5935 156.357 55.9786L160.222 57.7354L162.462 52.8603L159.212 51.367C159.607 50.796 160.046 50.269 160.442 49.7859C161.935 48.073 163.121 47.3702 163.736 47.3702C163.823 47.3702 163.911 47.3702 163.999 47.4142C165.229 47.9412 164.834 53.563 161.364 61.0734ZM167.03 51.367C167.03 50.4447 168.479 50.4447 168.479 51.367C168.523 59.2727 165.317 67.0905 159.695 72.6684C159.036 73.3272 158.026 72.317 158.685 71.6582C164.043 66.2999 167.074 58.9213 167.03 51.367ZM176.253 69.2426C175.331 69.2426 175.331 67.7932 176.253 67.7932C178.537 67.7932 180.25 69.3743 181.567 71.0433C182.841 72.6684 184.071 74.6887 186.267 75.1279C187.189 75.3036 186.794 76.709 185.871 76.5333C183.719 76.1381 182.27 74.4252 181.04 72.7562C179.854 71.1751 178.449 69.2426 176.253 69.2426ZM207.217 78.1145C206.294 78.1584 206.294 76.709 207.217 76.6651C209.852 76.4894 212.443 75.9624 214.947 75.1718C224.126 72.2292 231.636 65.8607 238.752 59.624C239.454 59.0091 240.464 60.0193 239.762 60.6342C237.61 62.5228 235.501 64.3674 233.261 66.1682C225.795 72.2292 217.099 77.4996 207.217 78.1145Z" fill="black"/>
<path d="M119.069 89.798C119.332 90.0615 119.332 90.5446 119.069 90.8081C118.761 91.0717 118.498 91.3791 118.234 91.6865C118.19 91.7305 118.19 91.7744 118.146 91.7744C118.146 91.7744 118.146 91.8183 118.102 91.8183C118.058 91.9061 117.971 91.994 117.927 92.0379C117.795 92.2136 117.707 92.3453 117.619 92.521C117.4 92.8724 117.224 93.2238 117.048 93.5751C117.004 93.619 117.004 93.663 117.004 93.7069C117.004 93.7069 117.004 93.7069 117.004 93.7508C116.96 93.8386 116.916 93.9265 116.873 94.0582C116.785 94.2339 116.741 94.4096 116.697 94.6292C116.565 95.0245 116.214 95.2441 115.819 95.1562C115.423 95.0684 115.204 94.6292 115.291 94.2778C115.818 92.5649 116.741 91.0277 118.058 89.8419C118.322 89.4905 118.761 89.4905 119.069 89.798ZM29.5589 167.405C31.0522 171.622 33.8192 175.443 37.4207 178.034C38.1673 178.561 37.4646 179.835 36.674 179.264C32.3698 176.145 29.2515 171.665 27.7582 166.571C27.0994 164.375 26.7481 162.047 26.7481 159.763C26.7481 157.172 27.319 154.712 27.89 152.209C28.2413 150.803 28.5048 149.354 28.417 147.861C28.3292 146.455 27.8021 145.138 27.4069 143.82C27.0555 142.634 26.7919 141.448 26.9237 140.219C27.0555 139.077 27.4068 137.979 28.0217 137.056C28.6366 136.09 29.4711 135.256 30.4813 134.685C30.7887 134.509 30.9644 134.465 30.8326 134.07C30.7448 133.806 30.5691 133.543 30.4373 133.279C30.1299 132.752 29.9103 132.181 29.7346 131.566C29.0758 128.975 29.8664 126.471 31.2279 124.232C31.8867 123.177 32.5894 122.079 32.5894 120.762C32.5894 119.488 32.1502 118.302 31.9306 117.073C31.5793 115.096 31.6671 112.724 33.0725 111.187C32.5016 108.947 31.8867 106.751 31.3157 104.511C30.8326 102.623 30.2177 100.69 29.9981 98.7138C29.3832 99.1969 28.5927 99.5044 27.8021 99.5044C25.3865 99.5044 23.7614 96.6056 22.9269 94.6731C21.9168 92.2575 21.5654 89.6223 21.5654 87.031C21.5654 85.5377 21.6972 84.0883 21.8289 82.595C21.9168 81.4531 21.9168 80.0916 22.6195 79.1253C22.9709 78.6861 23.4101 78.3787 23.9371 78.203C24.1128 77.632 24.3324 77.0611 24.7277 76.5779C25.6061 75.5238 27.2311 74.909 28.4609 75.6995C28.944 74.2062 29.8224 72.8886 31.5353 72.7129C33.38 72.5373 34.8294 73.7231 35.5321 75.3043C36.718 73.4157 38.6065 72.142 40.8904 72.142C43.2621 72.142 45.5459 73.3718 47.2588 74.9529C49.1913 76.7536 50.465 79.2132 51.3874 81.6727C52.3097 84.0883 52.9685 86.6357 53.2759 89.1831C53.8908 93.8826 53.4955 99.0212 56.1307 103.15C57.3605 105.126 58.7659 107.015 59.6004 109.167C60.3471 111.099 60.4349 113.12 60.0835 115.096C60.4349 115.272 60.6984 115.711 60.4788 116.106C63.7729 117.731 65.8371 121.069 66.5399 124.627C68.0332 123.177 69.5264 121.728 71.0636 120.367C74.3577 117.38 77.8274 114.525 81.6045 112.109C85.2499 109.782 89.3345 108.376 93.4191 107.015C94.7367 100.163 96.23 93.3555 97.1962 86.4161C95.7469 86.3722 94.2975 85.933 93.1556 85.0106C90.5204 82.9464 89.7298 78.9496 91.3988 76.0509C92.4089 74.338 94.1657 73.1961 96.0982 72.8008C91.8819 67.7499 88.5879 56.2428 94.034 51.6312C101.149 45.6141 107.825 50.0501 111.339 40.6072C115.731 44.0769 114.764 51.0163 112.612 53.1684C111.866 53.915 111.075 54.486 110.285 54.8813C111.778 55.2327 113.227 55.8475 114.589 56.6381C116.697 57.824 118.585 59.4051 120.518 60.8545C122.538 62.3477 124.515 63.841 126.535 65.3783C130.312 68.2331 134.089 71.0879 137.954 73.8988C138.394 74.2062 138.481 74.865 137.954 75.1286C134.133 77.2807 130.356 79.4767 126.535 81.5849C126.667 82.2437 126.799 82.9025 126.93 83.6052C127.677 87.6898 128.468 91.7744 129.214 95.859C129.873 99.4165 130.532 102.974 131.191 106.532C131.366 106.663 131.542 106.883 131.498 107.147C133.343 108.201 135.143 109.386 136.944 110.572C141.6 113.647 146.036 117.072 149.945 121.069C153.854 125.066 157.104 129.634 159.563 134.641C159.783 132.225 160.442 129.853 161.496 127.613C162.154 126.164 162.945 124.759 163.472 123.265C164.043 121.64 164.219 120.059 164.175 118.346C164.131 115.36 163.823 112.022 165.888 109.562C166.722 108.552 167.952 108.069 168.874 107.147C170.016 106.048 169.357 104.38 169.401 102.974C169.445 100.251 170.543 97.5719 172.432 95.5515C172.739 95.1123 173.003 94.6292 173.31 94.19C175.858 90.0176 175.418 84.8789 175.945 80.1794C176.253 77.632 176.868 75.0407 177.746 72.6251C178.625 70.1656 179.898 67.706 181.787 65.8614C183.456 64.2363 185.74 63.0066 188.111 62.9626C190.395 62.9187 192.284 64.1924 193.514 66.0371C194.216 64.4559 195.622 63.2262 197.51 63.4018C199.223 63.5336 200.146 64.8512 200.629 66.3445C201.858 65.5539 203.483 66.1249 204.362 67.179C204.757 67.6621 205.021 68.1892 205.196 68.7601C205.723 68.8919 206.207 69.1993 206.558 69.6824C207.261 70.6487 207.261 72.0102 207.392 73.1521C207.568 74.6454 207.7 76.0948 207.7 77.5881C207.744 80.1794 207.436 82.8146 206.47 85.2302C205.679 87.1627 204.098 90.1054 201.683 90.1054C200.892 90.1054 200.102 89.798 199.487 89.3148C199.267 91.2913 198.696 93.2238 198.213 95.1123C197.642 97.3523 197.115 99.5922 196.544 101.832C196.676 101.964 196.764 102.096 196.72 102.359C196.676 103.677 196.983 104.994 196.895 106.312C196.851 107.498 196.412 108.552 195.578 109.386C198.564 112.988 201.595 116.985 202.342 121.684C202.693 123.968 202.385 126.12 201.814 128.36C201.243 130.6 200.541 132.928 201.156 135.212C201.727 137.32 203.044 139.121 204.186 140.921C205.284 142.634 206.163 144.391 206.777 146.323C209.237 153.878 207.568 162.574 202.429 168.635C201.815 169.338 200.804 168.328 201.419 167.625C204.186 164.375 205.855 160.246 206.338 156.03C206.734 152.253 206.25 148.388 204.713 144.918C203.088 141.185 199.706 138.066 199.487 133.806C199.355 131.522 200.102 129.326 200.629 127.13C201.112 124.978 201.244 122.87 200.673 120.762C199.662 116.853 197.115 113.515 194.568 110.484C194.524 110.484 194.48 110.528 194.436 110.528C192.284 111.275 190 111.495 187.76 111.495C185.52 111.495 183.236 111.363 181.04 111.055C177.307 110.572 173.793 109.035 170.895 106.663C170.675 107.454 170.192 108.157 169.445 108.728C168.391 109.562 167.249 110.089 166.547 111.275C164.965 113.998 165.844 117.336 165.624 120.279C165.405 123.485 163.736 126.164 162.506 129.063C161.276 131.874 160.793 134.904 160.969 137.935C161.012 138.066 161.056 138.242 161.012 138.33C161.012 138.55 161.056 138.769 161.056 139.033C161.144 139.955 159.739 139.955 159.607 139.033C159.563 138.769 159.563 138.506 159.519 138.242C159.212 137.495 158.904 136.749 158.553 136.046C155.918 130.38 152.141 125.373 147.661 121.025C143.971 117.424 139.843 114.349 135.539 111.539C134.353 110.748 133.123 110.001 131.893 109.255C131.674 109.562 131.278 109.606 130.971 109.474C130.62 110.836 130.268 112.241 129.609 113.471C128.248 116.15 125.481 117.995 122.582 118.522C119.288 119.137 115.862 118.127 113.183 116.15C112.92 115.974 112.832 115.711 112.876 115.447C112.656 115.447 112.437 115.491 112.173 115.491L112.129 115.535C109.582 118.258 105.234 118.566 101.764 117.687C99.6997 117.16 98.2942 115.843 97.1962 114.086C96.0543 112.285 95.132 110.353 94.2536 108.42C91.9258 109.211 89.5541 109.957 87.3142 110.924C83.2735 112.637 79.672 115.184 76.2902 117.951C72.9961 120.63 69.9217 123.573 66.8473 126.559C66.8912 127.482 66.8912 128.404 66.8034 129.326C66.7595 130.029 66.6277 130.776 66.8473 131.434C67.023 132.005 67.3743 132.401 67.7696 132.796C68.648 133.587 69.6582 134.245 70.5366 134.992C71.415 135.739 72.2934 136.529 73.084 137.364C74.2259 138.55 75.28 139.867 76.1145 141.317C76.9929 140.438 77.9592 139.604 79.0133 138.857C79.7599 138.286 80.5065 139.56 79.7599 140.087C78.7058 140.833 77.7396 141.712 76.8611 142.634C77.9152 144.786 78.3983 147.158 78.0031 149.661C77.6517 151.726 76.3341 153.834 74.0941 154.097C73.1279 154.229 72.0299 153.966 71.3272 153.219C70.5366 152.428 70.3609 151.286 70.4927 150.232C70.6684 149.047 71.2393 147.905 71.8542 146.85C72.4252 145.796 73.084 144.83 73.8306 143.908C74.2259 143.381 74.6651 142.854 75.1482 142.371C73.6989 139.735 71.3711 137.495 69.0872 135.651C68.2527 134.992 67.3743 134.421 66.6277 133.674C65.7932 132.884 65.354 131.918 65.3101 130.82C65.2222 129.765 65.4858 128.755 65.4858 127.701C65.4858 127.306 65.4858 126.911 65.4419 126.515C65.3979 126.384 65.354 126.252 65.3979 126.12C65.354 125.725 65.3101 125.373 65.2223 124.978C64.5634 121.728 62.631 118.61 59.4687 117.292C58.3707 118.302 57.1848 119.181 55.999 120.059C53.0563 122.123 49.7184 124.012 46.1169 124.451C41.9445 124.978 37.6403 124.275 33.8192 122.563C33.7753 122.65 33.7753 122.694 33.7313 122.782C33.2043 124.1 32.3259 125.242 31.711 126.515C31.184 127.613 31.0083 128.931 31.0522 130.161C31.0961 130.776 31.2279 131.391 31.4475 131.962C31.6671 132.532 32.0624 133.016 32.282 133.63C32.4577 134.201 32.4577 134.816 32.1063 135.299C31.7989 135.739 31.2718 135.914 30.8326 136.222C29.9542 136.837 29.2515 137.715 28.8123 138.725C28.3731 139.691 28.2413 140.789 28.417 141.844C28.6366 143.161 29.1636 144.391 29.515 145.665C30.2616 148.432 29.7346 151.111 29.0758 153.834C28.5048 156.162 28.1974 158.445 28.2853 160.861C28.3292 163.101 28.7683 165.297 29.5589 167.405ZM29.2954 79.9598C29.3393 81.2335 29.5589 82.5072 29.9103 83.737C30.086 83.6491 30.2617 83.6052 30.4813 83.5613C31.6671 83.166 32.8969 83.0782 34.1705 83.0782C34.1266 81.9362 34.1267 80.7943 34.2584 79.6524C34.3463 78.9057 34.4341 78.1591 34.6097 77.4124C34.6097 77.3685 34.5658 77.3246 34.5658 77.2807C34.4341 76.3144 34.0827 75.3482 33.2921 74.7772C32.5894 74.2502 31.4914 74.0745 30.7887 74.6015C30.086 75.1286 29.8225 76.1827 29.6468 76.9732C29.3833 77.9395 29.2954 78.9496 29.2954 79.9598ZM29.9542 95.4637C29.8224 95.4198 29.6907 95.3319 29.6029 95.2441C26.8798 93.3555 25.1669 90.2811 24.3324 87.1188C23.8493 85.3181 23.6297 83.4295 23.6297 81.5409C23.6297 81.1017 23.6297 80.6625 23.6297 80.2233C23.3222 80.7943 23.3223 81.6288 23.2783 82.1997C22.8831 86.2404 22.5756 90.5885 24.2885 94.3657C24.6838 95.2002 25.1669 96.0346 25.7379 96.7374C26.2649 97.3523 26.8798 98.0989 27.7582 98.0989C29.2515 98.0989 29.9103 96.7813 29.9542 95.4637ZM31.3157 93.8386C31.4475 93.2677 31.3597 92.6967 31.2718 92.1257C31.2279 91.5987 31.1401 91.0716 31.0522 90.5446C29.9103 90.1932 28.9001 89.6223 28.1974 88.656C27.4947 87.7337 27.0994 86.3722 27.7582 85.3181C27.9778 84.9667 28.2852 84.6593 28.6366 84.4397C28.0217 82.4193 27.7143 80.3551 27.9339 78.2469C27.9778 77.8516 28.0217 77.4563 28.1096 77.0171C27.1872 76.6219 26.4845 77.0171 26.221 77.2367C25.0351 78.1152 25.0791 79.872 25.0791 81.2335C25.123 84.1322 25.5183 87.1188 26.8359 89.7101C27.4068 90.8521 28.1096 91.9061 28.988 92.8285C29.4272 93.3116 29.9542 93.7947 30.5252 94.1461C30.9644 94.4096 31.184 94.3657 31.3157 93.8386ZM34.3462 110.572C34.5658 110.66 34.7854 110.836 34.8294 111.055C35.6199 111.275 36.674 111.055 37.4207 110.924C38.2991 110.792 39.2214 110.616 40.0998 110.397C41.8127 109.957 43.5256 109.386 45.1067 108.64C48.3568 107.103 51.2995 104.994 53.7591 102.359C53.803 102.315 53.8469 102.271 53.8908 102.227C53.1002 100.427 52.7489 98.4503 52.5293 96.4739C52.2657 94.19 52.134 91.9061 51.8705 89.6223C51.6069 87.2945 50.992 85.0106 50.2015 82.8146C49.4109 80.5308 48.269 78.203 46.5561 76.4462C45.1067 74.9529 43.0864 73.7231 40.9343 73.6792C38.6065 73.6353 37.0693 75.2603 36.1031 77.2367C36.0591 77.3246 36.0152 77.4124 35.9713 77.5003C35.4882 79.301 35.4882 81.2335 35.5321 83.0342C35.5321 83.0781 35.5321 83.0782 35.5321 83.0782C35.9713 83.1221 36.3666 83.1221 36.8058 83.166C38.4308 83.2978 40.0998 83.5613 41.637 84.0444C42.2519 82.2876 42.4276 80.399 42.0762 78.5983C41.9884 78.203 42.1641 77.8077 42.6033 77.7199C42.9546 77.632 43.4378 77.8516 43.4817 78.2469C43.877 80.3551 43.7013 82.5511 42.9986 84.5714C43.3499 84.7032 43.7013 84.8789 44.0087 85.0106C46.6439 86.3283 48.5764 88.7 50.0697 91.1595C50.5529 91.9501 49.3231 92.6967 48.8399 91.9061C47.3467 89.4905 45.4581 87.2067 42.779 86.0208C40.8465 85.1863 38.7822 84.791 36.7179 84.6154C34.9611 84.4836 33.2043 84.3079 31.4475 84.7032C30.613 84.8789 29.515 85.1863 28.9441 85.933C28.3731 86.6796 29.2075 87.8215 29.7785 88.3047C30.7887 89.1392 32.1502 89.3588 33.4239 89.4466C34.9172 89.5784 36.4105 89.6223 37.9477 89.6662C38.6944 89.7101 38.914 90.6324 38.2991 91.0277C36.8936 91.994 36.2788 93.7508 36.2348 95.4198C36.2348 97.5719 37.1133 99.6361 37.9477 101.613C38.0795 101.964 37.772 102.403 37.4207 102.491C37.0254 102.579 36.674 102.359 36.5423 101.964C35.6199 99.724 34.6098 97.3523 34.7854 94.8927C34.7854 94.6292 34.8294 94.4096 34.8733 94.1461C34.0388 94.19 33.2483 93.8826 32.6773 93.2237C32.6773 93.4873 32.6773 93.7069 32.6333 93.9704C32.5455 94.5853 32.2381 95.2002 31.711 95.5076C31.6232 95.5515 31.4914 95.5954 31.4036 95.6394C31.4036 95.7272 31.3597 95.8151 31.3597 95.9029C31.3597 96.0786 31.3157 96.2543 31.2718 96.386C31.184 97.3083 31.2279 98.2307 31.4036 99.153C31.755 101.173 32.3699 103.15 32.8969 105.17C33.4239 107.015 33.907 108.772 34.3462 110.572ZM33.3361 91.5109C33.6875 92.2136 34.2145 93.0041 35.0929 92.7406C35.2247 92.6967 35.3125 92.6528 35.4442 92.6089C35.6638 92.0818 35.9274 91.5987 36.2787 91.1595V91.1156C35.1807 91.0717 34.1266 91.0277 33.0286 90.896C33.1604 91.1156 33.2483 91.3352 33.3361 91.5109ZM57.8875 108.991C56.9652 107.103 55.6476 105.434 54.5935 103.633C52.0022 106.4 48.8399 108.64 45.3263 110.177C43.5256 110.968 41.637 111.582 39.7485 112.022C38.7822 112.241 37.8599 112.373 36.8936 112.505C35.9274 112.637 34.9611 112.68 34.0388 112.329C32.5894 114.13 33.38 116.809 33.7753 118.917C33.951 119.664 34.0388 120.41 33.9949 121.157C36.0592 122.123 38.343 122.782 40.6269 123.046C42.6033 123.265 44.7114 123.309 46.6878 122.958C48.3129 122.65 49.8501 121.992 51.2995 121.245C53.8029 119.927 56.2186 118.302 58.3267 116.37C58.3267 116.326 58.3267 116.282 58.3267 116.238C59.0734 113.778 58.9855 111.319 57.8875 108.991ZM75.7192 143.776C75.28 144.259 74.8847 144.786 74.5333 145.313C73.8306 146.28 73.1718 147.334 72.6008 148.432C72.1177 149.354 71.5468 150.54 71.8981 151.594C72.1616 152.428 73.0401 152.78 73.8745 152.692C74.7969 152.56 75.4557 151.945 75.8949 151.155C76.8611 149.442 76.7733 147.202 76.2902 145.357C76.1145 144.786 75.9388 144.259 75.7192 143.776ZM110.065 115.404C109.582 115.36 109.099 115.272 108.616 115.14C106.068 114.525 103.653 113.295 101.325 112.153C99.6119 111.319 97.9429 110.441 96.3178 109.474C96.8888 110.616 97.5037 111.758 98.1186 112.9C99.0409 114.481 100.095 115.755 101.94 116.282C104.487 116.985 107.781 116.941 110.065 115.404ZM129.302 110.001C129.258 110.001 129.258 110.045 129.214 110.045C128.643 110.397 128.028 110.748 127.413 111.055C126.184 111.67 124.91 112.197 123.636 112.637C121.265 113.471 118.805 114.262 116.389 114.876C115.731 115.052 115.072 115.184 114.369 115.272C117.312 117.204 121.133 117.951 124.383 116.37C125.92 115.667 127.238 114.525 128.072 113.076C128.687 112.153 129.039 111.099 129.302 110.001ZM129.829 107.717C129.785 107.63 129.785 107.498 129.741 107.366C129.653 107.015 129.609 106.619 129.522 106.268C129.346 105.346 129.17 104.423 128.995 103.501C128.116 98.8456 127.282 94.19 126.403 89.4905C125.92 86.8553 125.437 84.2201 124.91 81.5849C124.866 81.2774 124.954 80.9261 125.261 80.7504C128.907 78.73 132.552 76.6658 136.198 74.6015C134.441 73.3278 132.684 72.0102 130.971 70.6926C127.15 67.8378 123.329 64.8951 119.508 62.0403C115.95 59.3612 112.305 56.1989 107.605 56.155C104.97 57.0334 102.818 57.6922 102.467 62.216C102.203 65.51 103.96 69.3311 100.534 72.9765L99.7436 73.1521C99.8754 73.1961 100.007 73.24 100.139 73.2839C100.49 73.4157 100.666 73.8549 100.534 74.2502C100.402 74.6015 99.9632 74.7772 99.5679 74.6454C97.1523 73.6353 94.034 74.6894 92.7164 76.9732C91.3988 79.2132 92.0576 82.4633 94.0779 84.0883C96.1422 85.6695 99.4362 85.4938 101.281 83.6491C101.544 83.3856 102.028 83.3856 102.291 83.6491C102.555 83.9126 102.555 84.3958 102.291 84.6593C101.325 85.6255 100.007 86.2404 98.6895 86.46C98.6895 86.5039 98.6895 86.5918 98.6895 86.6357C97.7672 93.4873 96.3178 100.207 95.0002 106.971C95.0441 106.971 95.0442 106.971 95.0881 107.015C97.8111 108.684 100.666 110.221 103.565 111.582C106.024 112.724 108.659 113.998 111.426 114.086C114.237 114.174 116.96 113.295 119.596 112.505C122.055 111.758 124.471 110.968 126.799 109.826C127.897 109.255 128.863 108.552 129.873 107.893C129.829 107.805 129.829 107.761 129.829 107.717ZM199.618 85.8451C199.487 85.933 199.399 86.0208 199.267 86.0647C199.355 87.3823 200.014 88.7 201.551 88.7C202.429 88.7 203.044 87.9533 203.527 87.3384C204.098 86.5918 204.581 85.7573 204.933 84.9228C206.602 81.1017 206.206 76.7536 205.767 72.7129C205.723 72.142 205.679 71.3075 205.372 70.7365C205.372 71.1757 205.372 71.6149 205.372 72.0541C205.372 73.9427 205.196 75.8313 204.713 77.632C203.967 80.8382 202.298 83.9126 199.618 85.8451ZM200.453 75.0407C200.804 75.2603 201.112 75.5678 201.331 75.9191C202.034 76.9732 201.639 78.3348 200.98 79.301C200.277 80.2672 199.267 80.8821 198.125 81.2335C198.037 81.7605 197.993 82.2876 197.95 82.8146C197.906 83.3856 197.818 83.9566 197.95 84.5275C198.081 85.0546 198.301 85.0985 198.74 84.791C199.311 84.4397 199.794 83.9566 200.233 83.4734C201.112 82.5511 201.815 81.497 202.342 80.3551C203.615 77.7199 204.01 74.7333 204.01 71.8345C204.01 70.473 204.01 68.7162 202.825 67.8817C202.517 67.6621 201.814 67.3107 200.936 67.706C201.024 68.1452 201.068 68.5405 201.112 68.9358L200.453 75.0407ZM194.392 68.1013C194.568 68.848 194.699 69.5946 194.787 70.3413C194.919 71.4832 194.963 72.6251 194.919 73.767C196.149 73.7231 197.379 73.811 198.608 74.2062C198.784 74.2502 198.96 74.338 199.179 74.3819C199.487 73.1522 199.706 71.8785 199.75 70.6048C199.75 69.5946 199.662 68.5844 199.443 67.6182C199.223 66.8276 198.96 65.7735 198.257 65.2465C197.51 64.7194 196.412 64.8951 195.754 65.4222C194.963 66.0371 194.656 67.0033 194.524 67.9695C194.392 68.0135 194.392 68.0574 194.392 68.1013ZM174.233 95.4637C175.462 96.6935 176.736 97.8354 178.185 98.8016C180.952 100.734 184.027 102.227 187.277 103.15C189.605 103.809 193.03 104.248 194.787 102.096C194.831 102.052 194.875 102.008 194.919 101.964C194.919 101.92 194.919 101.876 194.919 101.876C195.402 99.8557 195.929 97.8354 196.412 95.859C196.895 93.8826 197.51 91.8622 197.818 89.8419C197.95 88.9196 197.993 87.9972 197.906 87.0749C197.862 86.8992 197.862 86.7235 197.818 86.5918C197.818 86.5039 197.774 86.4161 197.774 86.3283C197.686 86.2843 197.554 86.2404 197.466 86.1965C196.895 85.889 196.632 85.2742 196.5 84.6593C196.456 84.3958 196.456 84.1762 196.456 83.9126C195.885 84.5714 195.095 84.9228 194.26 84.8789C194.304 85.1424 194.348 85.362 194.348 85.6255C194.568 88.0851 193.601 90.5007 192.723 92.7406C192.591 93.092 192.24 93.3555 191.845 93.2677C191.493 93.1798 191.186 92.7406 191.318 92.3893C192.108 90.4128 192.986 88.3486 192.943 86.1965C192.899 84.5275 192.284 82.7707 190.834 81.8484C190.219 81.4531 190.439 80.5308 191.186 80.4868C192.679 80.399 194.172 80.3112 195.71 80.1794C196.983 80.0476 198.345 79.828 199.311 78.9936C199.882 78.5104 200.716 77.3685 200.102 76.6219C199.531 75.9191 198.433 75.6117 197.598 75.436C195.885 75.0407 194.085 75.2603 192.328 75.3921C190.263 75.6117 188.199 76.007 186.267 76.8854C183.631 78.0712 181.743 80.399 180.293 82.8586C179.81 83.6491 178.537 82.9464 179.02 82.1558C180.513 79.6524 182.402 77.2807 184.993 75.9191C185.344 75.7435 185.652 75.6117 186.003 75.436C185.3 73.4157 185.081 71.2636 185.432 69.1115C185.476 68.7162 185.959 68.4966 186.311 68.5844C186.706 68.6723 186.882 69.0676 186.838 69.4628C186.53 71.3075 186.75 73.1961 187.365 74.909C188.946 74.4258 190.571 74.1184 192.196 73.9427C192.635 73.8988 193.03 73.8549 193.47 73.811V73.767C193.514 71.9663 193.47 70.0338 192.987 68.2331C192.943 68.1452 192.899 68.0574 192.855 67.9695C191.889 65.9931 190.307 64.412 187.98 64.4559C185.827 64.4998 183.807 65.7735 182.402 67.3107C180.733 69.1115 179.635 71.4393 178.844 73.7231C178.098 75.9191 177.527 78.2469 177.263 80.5747C177 82.8586 176.956 85.1424 176.692 87.4263C176.472 89.5344 176.121 91.6865 175.199 93.619C174.935 94.2778 174.584 94.8927 174.233 95.4637ZM192.899 81.8484C193.25 82.3315 193.514 82.8146 193.733 83.2978C193.821 83.3417 193.953 83.3856 194.085 83.4295C195.007 83.6491 195.49 82.8585 195.841 82.1558C195.929 81.9801 196.061 81.7605 196.149 81.5849C195.051 81.7166 193.953 81.8045 192.899 81.8484ZM195.314 105.873C195.314 105.17 195.226 104.467 195.183 103.765C194.172 104.643 192.767 105.038 191.449 105.126C188.067 105.39 184.642 104.028 181.655 102.579C178.625 101.085 175.814 99.153 173.442 96.7374C172.739 97.7915 172.08 98.8456 171.553 99.9875L171.378 100.031C171.334 100.119 171.334 100.207 171.29 100.295C170.807 101.832 170.807 103.238 170.939 104.819C170.982 104.863 171.026 104.863 171.114 104.95C173.925 107.586 177.614 109.167 181.435 109.65C183.5 109.913 185.652 110.001 187.76 110.001C189.824 110.001 191.889 109.782 193.865 109.167C193.909 109.035 193.953 108.903 194.041 108.815C194.919 108.025 195.358 107.103 195.314 105.873ZM108.967 135.958C108.176 136.046 107.386 136.485 107.166 137.32C107.078 137.671 107.298 138.11 107.693 138.198C107.737 138.198 107.825 138.198 107.869 138.198C107.957 138.857 108.308 139.428 108.835 139.779C109.274 140.087 109.845 140.175 110.328 139.911C110.724 139.691 110.943 139.252 111.031 138.857C111.251 138.198 111.163 137.364 110.768 136.793C110.372 136.266 109.714 135.914 108.967 135.958ZM109.626 138.593C109.538 138.769 109.582 138.681 109.626 138.593V138.593ZM109.67 138.506C109.67 138.55 109.67 138.55 109.626 138.593C109.67 138.593 109.67 138.593 109.626 138.593C109.626 138.593 109.626 138.593 109.582 138.593C109.582 138.593 109.538 138.593 109.538 138.55C109.538 138.55 109.538 138.55 109.582 138.55C109.538 138.506 109.494 138.462 109.494 138.418V138.462C109.494 138.462 109.494 138.462 109.494 138.418C109.45 138.33 109.494 138.374 109.494 138.418L109.45 138.374C109.406 138.33 109.406 138.286 109.362 138.242V138.198C109.362 138.154 109.362 138.154 109.362 138.11C109.362 138.023 109.362 137.891 109.362 137.803C109.362 137.671 109.318 137.539 109.23 137.408H109.274H109.23H109.274H109.318C109.318 137.408 109.318 137.408 109.362 137.452C109.406 137.495 109.45 137.539 109.406 137.495C109.45 137.539 109.45 137.539 109.494 137.583C109.494 137.583 109.494 137.583 109.494 137.539C109.494 137.539 109.494 137.583 109.538 137.583C109.582 137.671 109.582 137.671 109.582 137.627C109.582 137.671 109.626 137.671 109.626 137.715C109.626 137.715 109.626 137.759 109.67 137.759C109.67 137.803 109.67 137.803 109.714 137.847C109.714 137.891 109.714 137.935 109.757 137.979C109.757 138.066 109.757 138.198 109.757 138.286C109.67 138.374 109.67 138.462 109.67 138.506ZM109.757 138.681C109.714 138.681 109.714 138.637 109.714 138.637C109.714 138.637 109.714 138.637 109.757 138.681ZM114.589 143.117C114.325 141.931 114.413 140.789 114.501 139.604C114.589 138.462 114.633 137.232 114.325 136.134C114.193 135.651 113.974 135.168 113.666 134.772C113.359 134.333 112.744 133.938 112.656 133.367C112.524 132.796 112.656 132.137 112.7 131.566C112.744 130.907 112.832 130.293 112.964 129.634C113.227 128.36 113.842 127.438 114.545 126.384C115.247 125.286 115.423 124.144 114.896 122.958C114.457 122.035 113.579 121.201 113.622 120.103C113.666 119.181 112.217 119.181 112.173 120.103C112.129 121.113 112.656 121.948 113.183 122.782C113.754 123.748 114.062 124.451 113.447 125.505C112.832 126.515 112.129 127.394 111.778 128.58C111.426 129.765 111.295 131.039 111.251 132.269C111.207 132.84 111.163 133.411 111.339 133.938C111.558 134.553 111.997 134.948 112.393 135.431C113.095 136.31 113.183 137.408 113.183 138.462C113.139 139.604 113.008 140.746 113.052 141.888C113.095 143.205 113.491 144.435 113.974 145.665C115.028 148.3 116.829 151.199 115.906 154.141C115.599 155.02 117.004 155.415 117.312 154.537C118.146 151.945 117.18 149.354 116.126 146.982C115.467 145.665 114.852 144.435 114.589 143.117ZM101.72 78.4665C99.7876 77.0611 97.2402 76.6658 94.9563 77.2807C94.0779 77.5442 94.4293 78.9057 95.3516 78.6861C97.2841 78.1591 99.3484 78.5544 100.973 79.7402C101.281 79.9598 101.764 79.7841 101.984 79.4767C102.203 79.1253 102.071 78.73 101.72 78.4665ZM109.494 125.769C109.933 125.593 110.328 125.286 110.592 124.89C110.812 124.495 110.943 124.056 110.987 123.617C111.031 123.177 110.943 122.782 110.768 122.387C110.548 121.904 110.065 121.64 109.538 121.596C109.055 121.552 108.484 121.772 108.176 122.167C107.913 122.431 107.781 122.782 107.693 123.09C107.649 123.134 107.649 123.134 107.605 123.177C107.43 123.353 107.342 123.529 107.254 123.792C107.122 124.144 107.166 124.583 107.298 124.934C107.649 125.725 108.659 126.076 109.494 125.769ZM108.616 124.275C108.659 124.232 108.747 124.188 108.791 124.144C108.835 124.056 108.879 124.012 108.923 123.924C108.923 123.88 108.967 123.88 108.967 123.836C109.055 123.704 109.099 123.529 109.055 123.397C109.055 123.353 109.055 123.353 109.099 123.309C109.099 123.265 109.143 123.221 109.143 123.177C109.143 123.177 109.143 123.134 109.187 123.134L109.23 123.09C109.274 123.09 109.274 123.046 109.318 123.046C109.362 123.046 109.362 123.046 109.406 123.002H109.45C109.494 123.09 109.494 123.134 109.494 123.221C109.494 123.353 109.494 123.441 109.494 123.573C109.45 123.704 109.45 123.792 109.406 123.924C109.362 123.968 109.362 124.012 109.318 124.056C109.274 124.1 109.274 124.144 109.23 124.188C109.23 124.188 109.23 124.144 109.274 124.144C109.274 124.144 109.274 124.144 109.23 124.188C109.186 124.232 109.187 124.232 109.143 124.275C109.099 124.319 109.055 124.319 109.011 124.319C108.967 124.319 108.923 124.363 108.835 124.363C108.791 124.363 108.747 124.363 108.703 124.363C108.659 124.363 108.659 124.363 108.616 124.319H108.572C108.616 124.319 108.616 124.319 108.616 124.275ZM112.305 59.5808C112.656 59.4929 112.92 59.0537 112.832 58.7024C112.7 58.3071 112.349 58.1314 111.954 58.1753C111.822 58.2192 111.69 58.2192 111.558 58.2632C111.47 58.2632 111.426 58.3071 111.339 58.3071C111.339 58.3071 111.295 58.3071 111.251 58.3071C110.987 58.351 110.724 58.351 110.46 58.3949C109.933 58.4388 109.362 58.3949 108.835 58.351C108.44 58.3071 108.088 58.7024 108.132 59.0537C108.132 59.4929 108.44 59.7564 108.835 59.7564C109.977 59.8882 111.163 59.8004 112.305 59.5808ZM109.67 63.7532C109.45 63.4458 109.055 63.2701 108.659 63.4897C108.352 63.6654 108.132 64.1485 108.396 64.4998C109.362 65.7735 110.328 67.0033 111.251 68.277C111.47 68.5844 111.866 68.7601 112.261 68.5405C112.568 68.3648 112.788 67.8817 112.524 67.5303C111.602 66.2567 110.636 65.0269 109.67 63.7532ZM115.555 64.939C114.589 63.841 113.622 62.743 112.612 61.6889C112.349 61.4254 111.822 61.4254 111.602 61.6889C111.339 61.9964 111.339 62.3917 111.602 62.6991C112.568 63.7971 113.535 64.8951 114.545 65.9492C114.808 66.2127 115.335 66.2127 115.555 65.9492C115.818 65.6418 115.818 65.2465 115.555 64.939ZM106.068 59.7125C105.673 59.8443 105.497 60.1957 105.541 60.5909C105.673 61.5133 105.849 62.4795 105.629 63.3579C105.453 64.0606 105.102 64.5877 104.443 64.8951C104.092 65.0708 104.004 65.5539 104.18 65.9053C104.399 66.2567 104.794 66.3445 105.19 66.1688C106.112 65.7296 106.727 64.8073 106.99 63.841C107.298 62.6552 107.122 61.4254 106.947 60.2396C106.859 59.8004 106.376 59.5808 106.068 59.7125Z" fill="black"/>
<path d="M91.4865 25.3666C91.7061 25.6741 91.5304 26.2011 91.223 26.3768C90.8716 26.5964 90.4764 26.4207 90.2128 26.1133C88.2803 23.6098 89.9932 19.7448 92.0575 17.8563C93.1115 16.89 94.6048 16.0995 96.0981 16.5826C96.8008 16.8022 97.284 17.3292 97.811 17.8123C98.4259 18.3833 98.953 18.5151 99.6996 18.0759C100.842 17.4171 101.676 16.2751 102.818 15.5724C104.004 14.8258 105.321 14.3866 106.727 14.2109C109.362 13.8595 112.085 14.7379 113.886 16.7143C115.511 18.559 116.389 21.1503 115.774 23.6098C115.116 26.3329 112.788 28.3532 110.24 29.2756C108.747 29.8026 107.078 30.0222 105.497 29.9344C104.707 29.8904 103.916 29.7148 103.169 29.7587C102.379 29.8026 101.983 30.2857 101.632 30.9006C100.929 32.0865 100.358 33.3162 99.4361 34.3703C98.5138 35.4244 97.284 36.1711 95.9225 36.3907C94.4292 36.6103 92.9359 36.1711 91.6183 35.5562C90.8277 35.2048 90.125 34.7656 89.3783 34.2825C88.8074 33.9311 88.2364 33.5798 87.7532 33.0966C86.6552 31.9986 86.7431 30.6371 87.4019 29.2756C88.1486 27.7383 89.1148 26.3329 90.1689 24.9714C90.3885 24.6639 90.7838 24.4882 91.1791 24.7078C91.4865 24.8835 91.6622 25.3666 91.4426 25.718C90.4324 27.0356 89.5101 28.4411 88.7195 29.9344C88.3682 30.5932 88.1046 31.252 88.6317 31.9108C89.0269 32.4378 89.6419 32.7453 90.2128 33.0966C91.5304 33.9311 92.9798 34.7656 94.5609 34.9852C96.0103 35.1609 97.284 34.5899 98.2502 33.5798C99.0408 32.7453 99.6118 31.6912 100.183 30.681C100.754 29.583 101.5 28.5289 102.818 28.3532C103.521 28.2654 104.223 28.3972 104.97 28.4411C105.673 28.485 106.375 28.485 107.078 28.4411C108.396 28.3532 109.757 28.0458 110.943 27.387C113.007 26.289 114.632 24.3126 114.632 21.8969C114.632 19.7448 113.403 17.6367 111.602 16.5387C109.582 15.265 107.034 15.3089 104.882 16.1873C103.784 16.6704 102.862 17.3731 101.983 18.1637C101.149 18.9543 100.139 19.8327 98.909 19.7888C98.2941 19.7888 97.7671 19.5252 97.284 19.1739C96.8448 18.8225 96.4934 18.2955 95.9664 18.0319C94.9562 17.5049 93.7704 18.2955 93.0677 18.9982C91.4426 20.4915 89.9932 23.4342 91.4865 25.3666ZM136.197 38.5427C137.822 37.5326 139.843 38.8063 140.106 40.5631C140.238 41.6172 139.887 42.5395 139.316 43.374C138.789 44.1646 138.789 45.0869 139.579 45.6578C140.194 46.0971 141.204 46.141 141.512 46.9755C141.819 47.766 141.512 48.6883 141.029 49.3032C140.018 50.5769 138.13 51.1479 136.637 50.533C134.748 49.7864 133.694 47.5464 133.957 45.57C134.001 45.1747 133.782 44.6038 133.255 44.6477C132.376 44.7355 131.454 44.7355 130.576 44.6038C130.005 44.5159 128.775 44.4281 128.467 43.8132C128.204 43.2861 128.38 42.276 128.467 41.705C128.599 41.0023 128.775 40.2556 129.126 39.5968C129.741 38.411 130.707 37.4447 132.025 37.1812C133.211 36.9177 134.441 37.2251 135.231 38.1914C135.802 38.8941 136.856 37.8839 136.241 37.1812C135.187 35.8636 133.386 35.4683 131.761 35.7758C129.961 36.1271 128.511 37.4447 127.765 39.0698C127.369 39.9482 127.106 40.8705 126.974 41.8368C126.886 42.7152 126.755 43.8571 127.238 44.6477C127.765 45.5261 128.819 45.7896 129.741 45.9653C130.883 46.1849 132.069 46.2727 133.211 46.141C132.991 45.8335 132.728 45.5261 132.508 45.2186C132.201 47.5464 133.079 49.9181 135.012 51.3236C136.856 52.6412 139.404 52.4655 141.16 51.1479C142.785 49.9181 143.971 46.9755 142.039 45.3943C141.644 45.0869 141.16 44.9112 140.721 44.6916C140.633 44.6477 140.326 44.472 140.326 44.472C140.282 44.2963 140.721 43.8132 140.809 43.6814C141.424 42.6713 141.644 41.3976 141.468 40.2117C140.985 37.5326 137.866 35.8636 135.451 37.313C134.66 37.7961 135.407 39.0259 136.197 38.5427ZM94.4731 29.7148C94.3413 29.7148 94.2535 29.7148 94.1217 29.7148C94.0339 29.7148 93.946 29.7148 93.8582 29.7587C93.7703 29.8026 93.6825 29.8465 93.6386 29.8904C93.5507 29.9344 93.5069 30.0222 93.5069 30.11C93.4629 30.1979 93.419 30.2857 93.4629 30.3736C93.4629 30.4175 93.4629 30.5053 93.5069 30.5492C93.5508 30.681 93.5947 30.7689 93.6825 30.8567C93.7264 30.9006 93.7704 30.9445 93.8143 30.9885C93.946 31.0324 94.0339 31.0763 94.1657 31.0763C94.2974 31.0763 94.3852 31.0763 94.517 31.0763C94.6048 31.0763 94.6927 31.0763 94.7805 31.0324C94.8683 30.9885 94.9562 30.9445 95.0001 30.9006C95.0879 30.8567 95.1319 30.7689 95.1319 30.681C95.1758 30.5932 95.2197 30.5053 95.1758 30.4175C95.1758 30.3736 95.1758 30.2857 95.1319 30.2418C95.088 30.11 95.044 30.0222 94.9562 29.9344C94.9123 29.8904 94.8684 29.8465 94.8245 29.8026C94.7366 29.7587 94.6048 29.7148 94.4731 29.7148ZM106.244 19.9644C106.112 20.0962 106.024 20.184 105.892 20.3158C105.805 20.3597 105.761 20.4476 105.761 20.5354C105.717 20.6233 105.673 20.7111 105.717 20.7989C105.717 20.8868 105.717 20.9746 105.761 21.0625C105.805 21.1503 105.848 21.2381 105.892 21.2821C105.936 21.326 105.98 21.3699 106.024 21.4138C106.156 21.4577 106.244 21.5017 106.375 21.5017C106.419 21.5017 106.507 21.5017 106.551 21.4577C106.683 21.4138 106.771 21.3699 106.859 21.2821C106.99 21.1503 107.078 21.0625 107.21 20.9307C107.298 20.8868 107.342 20.7989 107.342 20.7111C107.386 20.6233 107.43 20.5354 107.386 20.4476C107.386 20.3597 107.386 20.2719 107.342 20.184C107.298 20.0962 107.254 20.0084 107.21 19.9644C107.166 19.9205 107.122 19.8766 107.078 19.8327C106.946 19.7888 106.859 19.7448 106.727 19.7448C106.683 19.7448 106.595 19.7448 106.551 19.7888C106.419 19.8327 106.332 19.8766 106.244 19.9644ZM99.6117 23.6538C99.7435 23.522 99.8314 23.4342 99.9631 23.3024C100.051 23.2585 100.095 23.1706 100.095 23.0828C100.139 22.9949 100.183 22.9071 100.139 22.8193C100.139 22.7314 100.139 22.6436 100.095 22.5557C100.051 22.4679 100.007 22.3801 99.9631 22.3361C99.9192 22.2922 99.8753 22.2483 99.8313 22.2044C99.6996 22.1605 99.6118 22.1165 99.48 22.1165C99.4361 22.1165 99.3482 22.1165 99.3043 22.1605C99.1726 22.2044 99.0847 22.2483 98.9969 22.3361C98.8651 22.4679 98.7773 22.5557 98.6455 22.6875C98.5577 22.7314 98.5137 22.8193 98.5137 22.9071C98.4698 22.995 98.4259 23.0828 98.4698 23.1706C98.4698 23.2585 98.4698 23.3463 98.5137 23.4342C98.5577 23.522 98.6016 23.6098 98.6455 23.6538C98.6894 23.6977 98.7334 23.7416 98.7773 23.7855C98.9091 23.8294 98.9969 23.8734 99.1286 23.8734C99.1725 23.8734 99.2604 23.8734 99.3043 23.8294C99.4361 23.8294 99.5239 23.7416 99.6117 23.6538ZM138.701 58.3947C138.833 58.263 138.92 58.1751 139.052 58.0434C139.14 57.9995 139.184 57.9116 139.184 57.8238C139.228 57.7359 139.272 57.6481 139.228 57.5603C139.228 57.4724 139.228 57.3846 139.184 57.2967C139.14 57.2089 139.096 57.1211 139.052 57.0771C139.008 57.0332 138.964 56.9893 138.92 56.9454C138.789 56.9015 138.701 56.8575 138.569 56.8575C138.525 56.8575 138.437 56.8575 138.393 56.9015C138.262 56.9454 138.174 56.9893 138.086 57.0771C137.954 57.2089 137.866 57.2967 137.735 57.4285C137.647 57.4724 137.603 57.5603 137.603 57.6481C137.559 57.7359 137.515 57.8238 137.559 57.9116C137.559 57.9995 137.559 58.0873 137.603 58.1751C137.647 58.263 137.691 58.3508 137.735 58.3947C137.779 58.4387 137.822 58.4826 137.866 58.5265C137.998 58.5704 138.086 58.6143 138.218 58.6143C138.262 58.6143 138.35 58.6143 138.393 58.5704C138.525 58.5704 138.613 58.4826 138.701 58.3947ZM95.7907 9.20396C95.9225 9.0722 96.0103 8.98436 96.1421 8.8526C96.2299 8.80868 96.2738 8.72084 96.2738 8.633C96.3177 8.54516 96.3616 8.45731 96.3177 8.36947C96.3177 8.28163 96.3177 8.19379 96.2738 8.10595C96.2299 8.01811 96.186 7.93027 96.1421 7.88635C96.0982 7.84243 96.0542 7.79851 96.0103 7.75459C95.8785 7.71067 95.7907 7.66675 95.6589 7.66675C95.615 7.66675 95.5272 7.66675 95.4833 7.71067C95.3515 7.75459 95.2636 7.79851 95.1758 7.88635C95.044 8.01811 94.9562 8.10595 94.8245 8.23771C94.7366 8.28163 94.6927 8.36947 94.6927 8.45732C94.6488 8.54516 94.6049 8.633 94.6488 8.72084C94.6488 8.80868 94.6488 8.89652 94.6927 8.98436C94.7366 9.0722 94.7805 9.16004 94.8245 9.20396C94.8684 9.24788 94.9123 9.2918 94.9562 9.33572C95.088 9.37964 95.1758 9.42356 95.3076 9.42356C95.3515 9.42356 95.4394 9.42356 95.4833 9.37964C95.5711 9.33572 95.7029 9.2918 95.7907 9.20396ZM134.66 40.2117C134.66 40.1678 134.66 40.1678 134.66 40.1239C134.66 40.1678 134.66 40.2556 134.704 40.2996C134.66 40.2556 134.66 40.2556 134.66 40.2117C134.66 40.2556 134.66 40.2996 134.66 40.3874C134.66 40.3435 134.66 40.2996 134.66 40.2117C134.66 40.2996 134.616 40.3435 134.616 40.4313C134.616 40.3874 134.66 40.3435 134.704 40.2996C134.66 40.3435 134.616 40.3874 134.572 40.4313C134.616 40.3874 134.616 40.3874 134.66 40.3435C134.616 40.3874 134.572 40.4313 134.528 40.4752C134.572 40.4313 134.616 40.4313 134.616 40.4313C134.572 40.4752 134.485 40.4752 134.441 40.5192H134.485C134.572 40.4752 134.66 40.4753 134.748 40.3874C134.836 40.3435 134.88 40.2556 134.924 40.1678C134.968 40.08 135.012 39.9921 135.012 39.9043C135.012 39.8164 135.012 39.7286 135.012 39.5968C134.968 39.5529 134.968 39.4651 134.924 39.4212C134.88 39.3333 134.792 39.2455 134.66 39.1576C134.616 39.1137 134.528 39.1137 134.485 39.0698C134.353 39.0259 134.221 39.0259 134.089 39.0698C134.001 39.1137 133.914 39.1137 133.826 39.2016C133.826 39.2016 133.782 39.2016 133.782 39.2455C133.738 39.2894 133.65 39.3333 133.606 39.3772C133.562 39.4212 133.562 39.4212 133.518 39.4651C133.474 39.5529 133.387 39.5968 133.343 39.6847C133.299 39.7725 133.299 39.8164 133.255 39.9043V39.9482C133.211 40.036 133.211 40.1239 133.211 40.2556C133.211 40.2996 133.211 40.3435 133.211 40.3435C133.211 40.4313 133.211 40.5192 133.255 40.5631V40.607C133.299 40.6949 133.299 40.7827 133.387 40.8705C133.43 40.9584 133.518 41.0023 133.606 41.0462C133.694 41.0901 133.782 41.1341 133.87 41.1341C133.957 41.1341 134.045 41.1341 134.177 41.1341C134.221 41.0901 134.309 41.0901 134.353 41.0462C134.441 41.0023 134.528 40.9144 134.616 40.7827C134.66 40.7388 134.66 40.6509 134.704 40.607C134.704 40.4753 134.704 40.3435 134.66 40.2117ZM144.586 35.4683C144.718 35.4683 144.806 35.4683 144.938 35.4683C145.025 35.4683 145.113 35.4683 145.201 35.4244C145.289 35.3805 145.377 35.3366 145.421 35.2926C145.509 35.2487 145.552 35.1609 145.552 35.073C145.596 34.9852 145.64 34.8974 145.596 34.8095C145.596 34.7656 145.596 34.6778 145.552 34.6338C145.509 34.5021 145.465 34.4142 145.377 34.3264C145.333 34.2825 145.289 34.2386 145.245 34.1946C145.113 34.1507 145.025 34.1068 144.894 34.1068C144.762 34.1068 144.674 34.1068 144.542 34.1068C144.454 34.1068 144.367 34.1068 144.279 34.1507C144.191 34.1946 144.103 34.2386 144.059 34.2825C143.971 34.3264 143.927 34.4142 143.927 34.5021C143.884 34.5899 143.84 34.6778 143.883 34.7656C143.883 34.8095 143.884 34.8974 143.927 34.9413C143.971 35.073 144.015 35.1609 144.103 35.2487C144.147 35.2926 144.191 35.3366 144.235 35.3805C144.323 35.4683 144.454 35.4683 144.586 35.4683Z" fill="black"/>
</svg>
