<svg width="64" height="64" viewBox="0 0 64 64" fill="none" xmlns="http://www.w3.org/2000/svg">
<rect x="0.5" y="0.5" width="63" height="63" rx="13.5" fill="#F3F8EC"/>
<rect x="0.5" y="0.5" width="63" height="63" rx="13.5" stroke="#E7EEDD"/>
<path opacity="0.2" fill-rule="evenodd" clip-rule="evenodd" d="M45.3334 32C45.3334 39.3638 39.3639 45.3333 32.0001 45.3333C24.6363 45.3333 18.6667 39.3638 18.6667 32C18.6667 24.6362 24.6363 18.6667 32.0001 18.6667C39.3639 18.6667 45.3334 24.6362 45.3334 32Z" fill="#00673A"/>
<path d="M33 24C33 23.4477 32.5523 23 32 23C31.4477 23 31 23.4477 31 24V24.4223C28.8261 24.8116 27 26.4448 27 28.6667C27 31.2229 29.417 33 32 33C33.8353 33 35 34.2076 35 35.3333C35 36.459 33.8353 37.6667 32 37.6667C30.1647 37.6667 29 36.459 29 35.3333C29 34.781 28.5523 34.3333 28 34.3333C27.4477 34.3333 27 34.781 27 35.3333C27 37.5552 28.8261 39.1884 31 39.5777V40C31 40.5523 31.4477 41 32 41C32.5523 41 33 40.5523 33 40V39.5777C35.1739 39.1884 37 37.5552 37 35.3333C37 32.7771 34.583 31 32 31C30.1647 31 29 29.7924 29 28.6667C29 27.541 30.1647 26.3333 32 26.3333C33.8353 26.3333 35 27.541 35 28.6667C35 29.219 35.4477 29.6667 36 29.6667C36.5523 29.6667 37 29.219 37 28.6667C37 26.4448 35.1739 24.8116 33 24.4223V24Z" fill="#00673A"/>
</svg>
