<svg width="67" height="66" viewBox="0 0 67 66" fill="none" xmlns="http://www.w3.org/2000/svg">
<rect x="1.16" y="0.66" width="64.68" height="64.68" rx="12.54" fill="#F3F8EC"/>
<rect x="1.16" y="0.66" width="64.68" height="64.68" rx="12.54" stroke="#E7EEDD" stroke-width="1.32"/>
<path d="M34.1112 15.6037C24.5349 15.6037 16.7312 23.3936 16.7312 32.9837C16.7312 42.5739 24.521 50.3637 34.1112 50.3637C43.7014 50.3637 51.4912 42.5739 51.4912 32.9837C51.4912 23.3936 43.6875 15.6037 34.1112 15.6037ZM39.9345 39.3541C39.5606 40.0604 39.0482 40.6489 38.432 41.1198C37.8088 41.5768 37.1164 41.9161 36.3408 42.1515C36.1262 42.2138 35.9046 42.2761 35.683 42.3108V43.3563C35.683 44.2288 34.9767 44.9351 34.1043 44.9351C33.2318 44.9351 32.5117 44.2288 32.5117 43.3425V42.3869C32.027 42.3108 31.5423 42.2138 31.0784 42.0753C30.1574 41.7984 29.3611 41.3413 28.641 40.829C28.3294 40.6143 27.9209 40.1296 27.9209 40.1296C27.7616 39.9703 27.547 39.7072 27.547 39.1463C27.547 38.3362 28.2048 37.6645 29.0011 37.6784C29.5342 37.6784 30.0466 38.1146 30.0466 38.1146C30.566 38.537 30.8568 38.8001 31.3761 39.0217C32.1378 39.361 33.0172 39.5203 33.9866 39.5203C34.5821 39.5203 35.1429 39.4095 35.6692 39.1948C36.1677 38.9802 36.5763 38.6824 36.9017 38.3016C37.1994 37.9277 37.3518 37.4776 37.3518 36.9306C37.3518 36.2243 37.0887 35.615 36.5693 35.0541C36.0362 34.4932 35.1291 34.147 33.855 33.9947C32.6363 33.87 31.5423 33.5584 30.6214 33.0737C29.6866 32.589 28.9387 31.9381 28.4333 31.1557C27.9209 30.3733 27.6647 29.4662 27.6647 28.4691C27.6647 27.3889 27.9763 26.4402 28.5718 25.6578C29.1672 24.8961 29.9635 24.3006 30.9606 23.906C31.4592 23.7051 31.9716 23.5459 32.5186 23.4489V22.3895C32.5186 21.5171 33.2249 20.8108 34.0974 20.8108C34.9698 20.8108 35.6899 21.5171 35.6899 22.4034V23.4213C36.0846 23.4836 36.4516 23.5805 36.784 23.7051C37.5318 23.9821 38.1758 24.3768 38.7089 24.8754C39.0067 25.1593 39.2837 25.4708 39.5329 25.8101C39.5676 25.8586 39.6229 25.9071 39.6576 25.9625C39.8168 26.184 39.9068 26.4749 39.9068 26.7865C39.9068 27.5966 39.0967 28.1782 38.4389 28.2406C37.8157 28.3029 37.2341 27.5966 37.2341 27.5966C36.9709 27.2573 36.6732 26.9734 36.327 26.738C35.8077 26.3918 35.0737 26.2048 34.1389 26.191C33.1418 26.1771 32.3247 26.3779 31.6738 26.8003C31.0784 27.1881 30.7875 27.7351 30.7875 28.5037C30.7875 28.8984 30.8776 29.3 31.0645 29.6739C31.2376 30.0201 31.5838 30.3456 32.0962 30.6295C32.6294 30.9272 33.4534 31.1418 34.5197 31.2665C36.3131 31.4396 37.7534 32.0143 38.8336 32.9699C39.9415 33.9393 40.5023 35.2618 40.5023 36.889C40.4954 37.8238 40.3085 38.6478 39.9345 39.3541Z" fill="#009EAA"/>
</svg>
