<svg width="1142" height="149" viewBox="0 0 1142 149" fill="none" xmlns="http://www.w3.org/2000/svg">
<mask id="mask0_167_5490" style="mask-type:luminance" maskUnits="userSpaceOnUse" x="4" y="-63" width="1231" height="308">
<path d="M4.67188 -63H1234.32V244.413H4.67188V-63Z" fill="url(#paint0_radial_167_5490)"/>
</mask>
<g mask="url(#mask0_167_5490)">
<path d="M944.085 -63L961.92 -52.7033V-32.1083L944.085 -21.8117L926.25 -32.1083V-52.7033L944.085 -63ZM1087.42 -63L1105.25 -52.7033V-32.1083L1087.42 -21.8117L1069.58 -32.1083V-52.7033L1087.42 -63ZM1123.25 -63L1141.09 -52.7033V-32.1083L1123.25 -21.8117L1105.42 -32.1083V-52.7033L1123.25 -63ZM173.668 -32.1092L191.503 -21.8125V-1.21833L173.668 9.07834L155.833 -1.21833V-21.8125L173.668 -32.1092ZM245.335 -32.1092L263.17 -21.8125V-1.21833L245.335 9.07834L227.5 -1.21833V-21.8125L245.335 -32.1092ZM281.168 -32.1092L299.003 -21.8125V-1.21833L281.168 9.07834L263.333 -1.21833V-21.8125L281.168 -32.1092ZM424.502 -32.1092L442.337 -21.8125V-1.21833L424.502 9.07834L406.667 -1.21833V-21.8125L424.502 -32.1092ZM460.335 -32.1092L478.17 -21.8125V-1.21833L460.335 9.07834L442.5 -1.21833V-21.8125L460.335 -32.1092Z" stroke="#DDDDDD" stroke-width="0.296556"/>
<path d="M496.168 -32.1094L514.003 -21.8127V-1.21854L496.168 9.07812L478.333 -1.21854V-21.8127L496.168 -32.1094Z" fill="#DDDDDD" stroke="#DDDDDD" stroke-width="0.296556"/>
<path d="M532.002 -32.1094L549.837 -21.8127V-1.21854L532.002 9.07812L514.167 -1.21854V-21.8127L532.002 -32.1094Z" fill="#DDDDDD" fill-opacity="0.211765" stroke="#DDDDDD" stroke-width="0.296556"/>
<path d="M567.835 -32.1094L585.67 -21.8127V-1.21854L567.835 9.07812L550 -1.21854V-21.8127L567.835 -32.1094Z" fill="#DDDDDD" fill-opacity="0.576471" stroke="#DDDDDD" stroke-width="0.296556"/>
<path d="M747.001 -32.1094L764.837 -21.8127V-1.21854L747.001 9.07812L729.167 -1.21854V-21.8127L747.001 -32.1094ZM782.835 -32.1094L800.67 -21.8127V-1.21854L782.835 9.07812L765 -1.21854V-21.8127L782.835 -32.1094ZM818.668 -32.1094L836.503 -21.8127V-1.21854L818.668 9.07812L800.833 -1.21854V-21.8127L818.668 -32.1094ZM854.501 -32.1094L872.337 -21.8127V-1.21854L854.501 9.07812L836.667 -1.21854V-21.8127L854.501 -32.1094ZM890.335 -32.1094L908.17 -21.8127V-1.21854L890.335 9.07812L872.5 -1.21854V-21.8127L890.335 -32.1094Z" stroke="#DDDDDD" stroke-width="0.296556"/>
<path d="M962.001 -32.1094L979.836 -21.8127V-1.21854L962.001 9.07812L944.167 -1.21854V-21.8127L962.001 -32.1094Z" fill="#DDDDDD" fill-opacity="0.905882" stroke="#DDDDDD" stroke-width="0.296556"/>
<path d="M1069.5 -32.1094L1087.34 -21.8127V-1.21854L1069.5 9.07813L1051.67 -1.21854V-21.8127L1069.5 -32.1094ZM191.585 -1.21854L209.42 9.07813V29.6723L191.585 39.969L173.75 29.6723V9.07813L191.585 -1.21854ZM227.418 -1.21854L245.253 9.07813V29.6723L227.418 39.969L209.583 29.6723V9.07813L227.418 -1.21854ZM263.252 -1.21854L281.087 9.07813V29.6723L263.252 39.969L245.417 29.6723V9.07813L263.252 -1.21854Z" stroke="#DDDDDD" stroke-width="0.296556"/>
<path d="M299.085 -1.21826L316.92 9.07841V29.6726L299.085 39.9692L281.25 29.6726V9.07841L299.085 -1.21826Z" fill="#DDDDDD" fill-opacity="0.0470588" stroke="#DDDDDD" stroke-width="0.296556"/>
<path d="M334.918 -1.21826L352.753 9.07841V29.6726L334.918 39.9692L317.083 29.6726V9.07841L334.918 -1.21826Z" fill="#DDDDDD" fill-opacity="0.811765" stroke="#DDDDDD" stroke-width="0.296556"/>
<path d="M370.752 -1.21826L388.586 9.07841V29.6726L370.752 39.9692L352.917 29.6726V9.07841L370.752 -1.21826ZM406.585 -1.21826L424.42 9.07841V29.6726L406.585 39.9692L388.75 29.6726V9.07841L406.585 -1.21826Z" stroke="#DDDDDD" stroke-width="0.296556"/>
<path d="M478.252 -1.21826L496.086 9.07841V29.6726L478.252 39.9692L460.417 29.6726V9.07841L478.252 -1.21826Z" fill="#DDDDDD" fill-opacity="0.737255" stroke="#DDDDDD" stroke-width="0.296556"/>
<path d="M585.751 -1.21826L603.587 9.07841V29.6726L585.751 39.9692L567.917 29.6726V9.07841L585.751 -1.21826ZM657.418 -1.21826L675.253 9.07841V29.6726L657.418 39.9692L639.583 29.6726V9.07841L657.418 -1.21826Z" stroke="#DDDDDD" stroke-width="0.296556"/>
<path d="M693.251 -1.21826L711.087 9.07841V29.6726L693.251 39.9692L675.417 29.6726V9.07841L693.251 -1.21826Z" fill="#DDDDDD" fill-opacity="0.839216" stroke="#DDDDDD" stroke-width="0.296556"/>
<path d="M729.085 -1.21826L746.92 9.07841V29.6726L729.085 39.9692L711.25 29.6726V9.07841L729.085 -1.21826ZM764.918 -1.21826L782.753 9.07841V29.6726L764.918 39.9692L747.083 29.6726V9.07841L764.918 -1.21826Z" stroke="#DDDDDD" stroke-width="0.296556"/>
<path d="M836.585 -1.21826L854.42 9.07841V29.6726L836.585 39.9692L818.75 29.6726V9.07841L836.585 -1.21826Z" fill="#DDDDDD" fill-opacity="0.760784" stroke="#DDDDDD" stroke-width="0.296556"/>
<path d="M872.418 -1.21826L890.253 9.07841V29.6726L872.418 39.9692L854.583 29.6726V9.07841L872.418 -1.21826ZM944.085 -1.21826L961.92 9.07841V29.6726L944.085 39.9692L926.25 29.6726V9.07841L944.085 -1.21826Z" stroke="#DDDDDD" stroke-width="0.296556"/>
<path d="M1015.75 -1.21826L1033.59 9.07841V29.6726L1015.75 39.9692L997.917 29.6726V9.07841L1015.75 -1.21826Z" fill="#DDDDDD" fill-opacity="0.968627" stroke="#DDDDDD" stroke-width="0.296556"/>
<path d="M1051.58 -1.21826L1069.42 9.07841V29.6726L1051.58 39.9692L1033.75 29.6726V9.07841L1051.58 -1.21826Z" stroke="#DDDDDD" stroke-width="0.296556"/>
<path d="M1087.42 -1.21826L1105.25 9.07841V29.6726L1087.42 39.9692L1069.58 29.6726V9.07841L1087.42 -1.21826Z" fill="#DDDDDD" fill-opacity="0.443137" stroke="#DDDDDD" stroke-width="0.296556"/>
<path d="M1123.25 -1.21826L1141.09 9.07841V29.6726L1123.25 39.9692L1105.42 29.6726V9.07841L1123.25 -1.21826Z" stroke="#DDDDDD" stroke-width="0.296556"/>
<path d="M209.502 29.6724L227.337 39.969V60.5632L209.502 70.8599L191.667 60.5632V39.969L209.502 29.6724Z" fill="#DDDDDD" fill-opacity="0.898039" stroke="#DDDDDD" stroke-width="0.296556"/>
<path d="M281.168 29.6724L299.003 39.969V60.5632L281.168 70.8599L263.333 60.5632V39.969L281.168 29.6724ZM352.835 29.6724L370.67 39.969V60.5632L352.835 70.8599L335 60.5632V39.969L352.835 29.6724ZM460.335 29.6724L478.17 39.969V60.5632L460.335 70.8599L442.5 60.5632V39.969L460.335 29.6724Z" stroke="#DDDDDD" stroke-width="0.296556"/>
<path d="M496.168 29.6724L514.003 39.969V60.5632L496.168 70.8599L478.333 60.5632V39.969L496.168 29.6724Z" fill="#DDDDDD" fill-opacity="0.886275" stroke="#DDDDDD" stroke-width="0.296556"/>
<path d="M567.835 29.6724L585.67 39.969V60.5632L567.835 70.8599L550 60.5632V39.969L567.835 29.6724Z" fill="#DDDDDD" fill-opacity="0.309804" stroke="#DDDDDD" stroke-width="0.296556"/>
<path d="M603.668 29.6724L621.503 39.969V60.5632L603.668 70.8599L585.833 60.5632V39.969L603.668 29.6724ZM639.501 29.6724L657.337 39.969V60.5632L639.501 70.8599L621.666 60.5632V39.969L639.501 29.6724ZM782.835 29.6724L800.67 39.969V60.5632L782.835 70.8599L765 60.5632V39.969L782.835 29.6724ZM818.668 29.6724L836.503 39.969V60.5632L818.668 70.8599L800.833 60.5632V39.969L818.668 29.6724ZM854.501 29.6724L872.336 39.969V60.5632L854.501 70.8599L836.666 60.5632V39.969L854.501 29.6724ZM890.335 29.6724L908.17 39.969V60.5632L890.335 70.8599L872.5 60.5632V39.969L890.335 29.6724ZM926.168 29.6724L944.003 39.969V60.5632L926.168 70.8599L908.333 60.5632V39.969L926.168 29.6724ZM962.001 29.6724L979.836 39.969V60.5632L962.001 70.8599L944.166 60.5632V39.969L962.001 29.6724ZM1069.5 29.6724L1087.34 39.969V60.5632L1069.5 70.8599L1051.67 60.5632V39.969L1069.5 29.6724ZM1105.33 29.6724L1123.17 39.969V60.5632L1105.33 70.8599L1087.5 60.5632V39.969L1105.33 29.6724ZM155.752 60.5632L173.587 70.8599V91.454L155.752 101.75L137.917 91.454V70.8599L155.752 60.5632ZM227.418 60.5632L245.253 70.8599V91.454L227.418 101.75L209.583 91.454V70.8599L227.418 60.5632ZM263.251 60.5632L281.087 70.8599V91.454L263.251 101.75L245.417 91.454V70.8599L263.251 60.5632Z" stroke="#DDDDDD" stroke-width="0.296556"/>
<path d="M299.085 60.5635L316.92 70.8601V91.4543L299.085 101.75L281.25 91.4543V70.8601L299.085 60.5635Z" fill="#DDDDDD" fill-opacity="0.184314" stroke="#DDDDDD" stroke-width="0.296556"/>
<path d="M406.585 60.5635L424.42 70.8601V91.4543L406.585 101.75L388.75 91.4543V70.8601L406.585 60.5635Z" fill="#DDDDDD" fill-opacity="0.0470588" stroke="#DDDDDD" stroke-width="0.296556"/>
<path d="M442.418 60.5635L460.253 70.8601V91.4543L442.418 101.75L424.583 91.4543V70.8601L442.418 60.5635ZM514.085 60.5635L531.92 70.8601V91.4543L514.085 101.75L496.25 91.4543V70.8601L514.085 60.5635ZM549.918 60.5635L567.753 70.8601V91.4543L549.918 101.75L532.083 91.4543V70.8601L549.918 60.5635Z" stroke="#DDDDDD" stroke-width="0.296556"/>
<path d="M621.585 60.5635L639.42 70.8601V91.4543L621.585 101.75L603.75 91.4543V70.8601L621.585 60.5635Z" fill="#DDDDDD" fill-opacity="0.403922" stroke="#DDDDDD" stroke-width="0.296556"/>
<path d="M657.418 60.5635L675.253 70.8601V91.4543L657.418 101.75L639.583 91.4543V70.8601L657.418 60.5635ZM693.252 60.5635L711.087 70.8601V91.4543L693.252 101.75L675.417 91.4543V70.8601L693.252 60.5635Z" stroke="#DDDDDD" stroke-width="0.296556"/>
<path d="M729.085 60.5635L746.92 70.8601V91.4543L729.085 101.75L711.25 91.4543V70.8601L729.085 60.5635Z" fill="#DDDDDD" fill-opacity="0.427451" stroke="#DDDDDD" stroke-width="0.296556"/>
<path d="M800.751 60.5635L818.587 70.8601V91.4543L800.751 101.75L782.917 91.4543V70.8601L800.751 60.5635Z" fill="#DDDDDD" fill-opacity="0.403922" stroke="#DDDDDD" stroke-width="0.296556"/>
<path d="M836.585 60.5635L854.42 70.8601V91.4543L836.585 101.75L818.75 91.4543V70.8601L836.585 60.5635ZM944.085 60.5635L961.92 70.8601V91.4543L944.085 101.75L926.25 91.4543V70.8601L944.085 60.5635ZM1051.58 60.5635L1069.42 70.8601V91.4543L1051.58 101.751L1033.75 91.4543V70.8601L1051.58 60.5635ZM1087.42 60.5635L1105.25 70.8601V91.4543L1087.42 101.751L1069.58 91.4543V70.8601L1087.42 60.5635Z" stroke="#DDDDDD" stroke-width="0.296556"/>
<path d="M137.835 91.4541L155.67 101.75V122.344L137.835 132.642L120 122.345V101.75L137.835 91.4541Z" fill="#DDDDDD" fill-opacity="0.223529" stroke="#DDDDDD" stroke-width="0.296556"/>
<path d="M173.668 91.4541L191.503 101.75V122.344L173.668 132.642L155.833 122.345V101.75L173.668 91.4541ZM209.502 91.4541L227.337 101.751V122.345L209.502 132.642L191.667 122.345V101.75L209.502 91.4541ZM281.168 91.4541L299.003 101.751V122.345L281.168 132.642L263.333 122.345V101.75L281.168 91.4541ZM424.502 91.4541L442.337 101.751V122.345L424.502 132.642L406.667 122.345V101.75L424.502 91.4541Z" stroke="#DDDDDD" stroke-width="0.296556"/>
<path d="M460.335 91.4541L478.17 101.751V122.345L460.335 132.642L442.5 122.345V101.75L460.335 91.4541Z" fill="#DDDDDD" fill-opacity="0.623529" stroke="#DDDDDD" stroke-width="0.296556"/>
<path d="M532.002 91.4541L549.837 101.751V122.345L532.002 132.642L514.167 122.345V101.75L532.002 91.4541ZM603.668 91.4541L621.503 101.751V122.345L603.668 132.642L585.833 122.345V101.75L603.668 91.4541ZM675.335 91.4541L693.17 101.751V122.345L675.335 132.642L657.5 122.345V101.75L675.335 91.4541ZM711.168 91.4541L729.003 101.751V122.345L711.168 132.642L693.333 122.345V101.75L711.168 91.4541Z" stroke="#DDDDDD" stroke-width="0.296556"/>
<path d="M782.835 91.4541L800.67 101.751V122.345L782.835 132.642L765 122.345V101.75L782.835 91.4541Z" fill="#DDDDDD" fill-opacity="0.270588" stroke="#DDDDDD" stroke-width="0.296556"/>
<path d="M818.668 91.4541L836.503 101.751V122.345L818.668 132.642L800.833 122.345V101.75L818.668 91.4541Z" fill="#DDDDDD" fill-opacity="0.596078" stroke="#DDDDDD" stroke-width="0.296556"/>
<path d="M854.501 91.4541L872.337 101.751V122.345L854.501 132.642L836.667 122.345V101.75L854.501 91.4541Z" fill="#DDDDDD" fill-opacity="0.772549" stroke="#DDDDDD" stroke-width="0.296556"/>
<path d="M926.168 91.4541L944.003 101.751V122.345L926.168 132.642L908.333 122.345V101.75L926.168 91.4541Z" fill="#DDDDDD" fill-opacity="0.141176" stroke="#DDDDDD" stroke-width="0.296556"/>
<path d="M962.002 91.4541L979.837 101.751V122.345L962.002 132.642L944.167 122.345V101.75L962.002 91.4541ZM997.835 91.4541L1015.67 101.751V122.345L997.835 132.642L980 122.345V101.75L997.835 91.4541ZM1033.67 91.4541L1051.5 101.751V122.345L1033.67 132.642L1015.83 122.345V101.75L1033.67 91.4541ZM1069.5 91.4541L1087.34 101.751V122.345L1069.5 132.642L1051.67 122.345V101.75L1069.5 91.4541ZM191.585 122.345L209.42 132.642V153.236L191.585 163.532L173.75 153.236V132.642L191.585 122.345ZM227.418 122.345L245.253 132.642V153.236L227.418 163.532L209.583 153.236V132.642L227.418 122.345ZM299.085 122.345L316.92 132.642V153.236L299.085 163.532L281.25 153.236V132.642L299.085 122.345ZM334.918 122.345L352.753 132.642V153.236L334.918 163.532L317.083 153.236V132.642L334.918 122.345ZM370.752 122.345L388.587 132.642V153.236L370.752 163.532L352.917 153.236V132.642L370.752 122.345ZM406.585 122.345L424.42 132.642V153.236L406.585 163.532L388.75 153.236V132.642L406.585 122.345ZM442.418 122.345L460.253 132.642V153.236L442.418 163.532L424.583 153.236V132.642L442.418 122.345ZM478.252 122.345L496.087 132.642V153.236L478.252 163.532L460.417 153.236V132.642L478.252 122.345ZM514.085 122.345L531.92 132.642V153.236L514.085 163.532L496.25 153.236V132.642L514.085 122.345ZM657.418 122.345L675.253 132.642V153.236L657.418 163.532L639.583 153.236V132.642L657.418 122.345ZM693.252 122.345L711.087 132.642V153.236L693.252 163.532L675.417 153.236V132.642L693.252 122.345ZM729.085 122.345L746.92 132.642V153.236L729.085 163.532L711.25 153.236V132.642L729.085 122.345Z" stroke="#DDDDDD" stroke-width="0.296556"/>
<path d="M836.585 122.345L854.42 132.642V153.236L836.585 163.533L818.75 153.236V132.642L836.585 122.345Z" fill="#DDDDDD" fill-opacity="0.607843" stroke="#DDDDDD" stroke-width="0.296556"/>
<path d="M872.418 122.345L890.253 132.642V153.236L872.418 163.533L854.583 153.236V132.642L872.418 122.345Z" fill="#DDDDDD" fill-opacity="0.478431" stroke="#DDDDDD" stroke-width="0.296556"/>
<path d="M908.251 122.345L926.087 132.642V153.236L908.251 163.533L890.417 153.236V132.642L908.251 122.345Z" stroke="#DDDDDD" stroke-width="0.296556"/>
<path d="M1015.75 122.345L1033.59 132.642V153.236L1015.75 163.533L997.917 153.236V132.642L1015.75 122.345Z" fill="#DDDDDD" fill-opacity="0.419608" stroke="#DDDDDD" stroke-width="0.296556"/>
<path d="M1087.42 122.345L1105.25 132.642V153.236L1087.42 163.533L1069.58 153.236V132.642L1087.42 122.345Z" stroke="#DDDDDD" stroke-width="0.296556"/>
<path d="M1123.25 122.345L1141.09 132.642V153.236L1123.25 163.533L1105.42 153.236V132.642L1123.25 122.345Z" fill="#DDDDDD" fill-opacity="0.921569" stroke="#DDDDDD" stroke-width="0.296556"/>
</g>
<defs>
<radialGradient id="paint0_radial_167_5490" cx="0" cy="0" r="1" gradientUnits="userSpaceOnUse" gradientTransform="translate(619.498 90.7065) scale(614.826 153.706)">
<stop stop-color="white"/>
<stop offset="1" stop-color="white" stop-opacity="0"/>
</radialGradient>
</defs>
</svg>
