<svg width="17" height="16" viewBox="0 0 17 16" fill="none" xmlns="http://www.w3.org/2000/svg">
<path d="M12.3268 14.1665H4.67342C3.78937 14.1665 2.94152 13.8153 2.3164 13.1902C1.69128 12.5651 1.34009 11.7172 1.34009 10.8332V5.17318C1.34009 4.28912 1.69128 3.44128 2.3164 2.81615C2.94152 2.19103 3.78937 1.83984 4.67342 1.83984H12.3268C13.2108 1.83984 14.0587 2.19103 14.6838 2.81615C15.3089 3.44128 15.6601 4.28912 15.6601 5.17318V10.8265C15.661 11.2648 15.5754 11.699 15.4083 12.1042C15.2411 12.5094 14.9958 12.8776 14.6861 13.1878C14.3765 13.4981 14.0088 13.7442 13.6039 13.9121C13.1991 14.0801 12.7651 14.1665 12.3268 14.1665ZM4.67342 2.83318C4.05281 2.83318 3.45763 3.07971 3.01879 3.51855C2.57996 3.95738 2.33342 4.55257 2.33342 5.17318V10.8265C2.33342 11.4471 2.57996 12.0423 3.01879 12.4811C3.45763 12.92 4.05281 13.1665 4.67342 13.1665H12.3268C12.9474 13.1665 13.5425 12.92 13.9814 12.4811C14.4202 12.0423 14.6668 11.4471 14.6668 10.8265V5.17318C14.6668 4.55257 14.4202 3.95738 13.9814 3.51855C13.5425 3.07971 12.9474 2.83318 12.3268 2.83318H4.67342ZM9.96009 8.12651L12.1534 6.26651C12.2524 6.17906 12.3139 6.05682 12.3251 5.9252C12.3363 5.79359 12.2963 5.66273 12.2134 5.55984C12.126 5.46034 12.003 5.39904 11.871 5.38907C11.7389 5.37911 11.6081 5.42126 11.5068 5.50651L9.31342 7.36651C9.08387 7.55973 8.79347 7.66569 8.49342 7.66569C8.19338 7.66569 7.90297 7.55973 7.67342 7.36651L5.42009 5.49984C5.31842 5.41144 5.1858 5.36704 5.0514 5.37642C4.917 5.38579 4.79183 5.44818 4.70342 5.54984C4.61502 5.65151 4.57062 5.78413 4.57999 5.91853C4.58937 6.05293 4.65175 6.1781 4.75342 6.26651L7.03342 8.13984C7.44139 8.48824 7.96027 8.67965 8.49675 8.67965C9.03324 8.67965 9.55212 8.48824 9.96009 8.13984V8.12651Z" fill="#0F100B"/>
</svg>
