<svg width="16" height="16" viewBox="0 0 16 16" fill="none" xmlns="http://www.w3.org/2000/svg">
<path opacity="0.1" d="M13.1999 7.43326C13.1999 10.6549 10.5882 13.2666 7.36654 13.2666C4.14488 13.2666 1.5332 10.6549 1.5332 7.43326C1.5332 4.2116 4.14488 1.59993 7.36654 1.59993C10.5882 1.59993 13.1999 4.2116 13.1999 7.43326Z" fill="#0F100B"/>
<path d="M7.37988 1.37996C10.6936 1.37996 13.3799 4.06625 13.3799 7.37996C13.3799 8.83263 12.8629 10.1642 12.0039 11.2022L14.4473 13.6456C14.6686 13.8669 14.6686 14.226 14.4473 14.4473C14.226 14.6686 13.8668 14.6686 13.6455 14.4473L11.2021 12.004C10.1641 12.863 8.83256 13.38 7.37988 13.38C4.06617 13.38 1.37988 10.6937 1.37988 7.37996C1.37988 4.06625 4.06617 1.37996 7.37988 1.37996ZM7.37988 2.49226C4.68033 2.49226 2.49219 4.6804 2.49219 7.37996C2.49219 10.0795 4.68033 12.2677 7.37988 12.2677C10.0794 12.2677 12.2676 10.0795 12.2676 7.37996C12.2676 4.6804 10.0794 2.49226 7.37988 2.49226Z" fill="#0F100B"/>
</svg>
