<svg width="64" height="64" viewBox="0 0 64 64" fill="none" xmlns="http://www.w3.org/2000/svg">
<rect x="0.5" y="0.5" width="63" height="63" rx="13.5" fill="#F3F8EC"/>
<rect x="0.5" y="0.5" width="63" height="63" rx="13.5" stroke="#E7EEDD"/>
<path opacity="0.2" d="M45.3334 32C45.3334 39.3638 39.3639 45.3333 32.0001 45.3333C24.6363 45.3333 18.6667 39.3638 18.6667 32C18.6667 24.6362 24.6363 18.6667 32.0001 18.6667C39.3639 18.6667 45.3334 24.6362 45.3334 32Z" fill="#00673A"/>
<path d="M33 28C33 27.4477 32.5523 27 32 27C31.4477 27 31 27.4477 31 28L31 31H28C27.4477 31 27 31.4477 27 32C27 32.5523 27.4477 33 28 33H31V36C31 36.5523 31.4477 37 32 37C32.5523 37 33 36.5523 33 36L33 33H36C36.5523 33 37 32.5523 37 32C37 31.4477 36.5523 31 36 31H33V28Z" fill="#00673A"/>
</svg>
