<svg width="16" height="16" viewBox="0 0 16 16" fill="none" xmlns="http://www.w3.org/2000/svg">
<path d="M12.6341 12.8281C12.5873 12.8281 12.5373 12.8187 12.4935 12.7968C11.1404 12.125 9.16852 11.7625 7.99977 11.7625C6.83102 11.7625 4.85915 12.125 3.50602 12.7968C3.46227 12.8187 3.4154 12.8281 3.36852 12.8281C3.22477 12.8281 3.09665 12.7281 3.0654 12.5843L1.53415 5.85934C1.49665 5.69059 1.6029 5.52497 1.76852 5.48434C1.85602 5.46559 1.94665 5.48122 2.01852 5.53434L4.70915 7.43122C4.8654 7.54059 5.0779 7.50309 5.18727 7.34997C5.1904 7.34684 5.19352 7.34059 5.19665 7.33747L7.73727 3.37497C7.83102 3.22809 8.02477 3.18747 8.16852 3.28122C8.20602 3.30622 8.23727 3.33747 8.26227 3.37497L10.7998 7.33747C10.9029 7.49684 11.1154 7.54372 11.2748 7.44059C11.2779 7.43747 11.2841 7.43434 11.2873 7.43122L13.9779 5.53434C14.1185 5.43434 14.3123 5.46872 14.4123 5.60934C14.4623 5.68122 14.481 5.77184 14.4623 5.85934L12.9373 12.5875C12.906 12.7281 12.7779 12.8312 12.6341 12.8281Z" fill="#F48D05"/>
<path d="M8 3.54376L5.4625 7.50626C5.26563 7.81251 4.85938 7.90001 4.55625 7.70314C4.54688 7.69689 4.54063 7.69376 4.53438 7.68751L1.84375 5.79064L3.36875 12.5156C4.79063 11.8094 6.82813 11.4469 8.00313 11.4469C9.17813 11.4469 11.2156 11.8094 12.6375 12.5156L14.1656 5.78751L11.4688 7.68751C11.1719 7.89689 10.7625 7.82501 10.5531 7.52814C10.5469 7.51876 10.5406 7.51251 10.5375 7.50314L8 3.54376Z" fill="#FFC943"/>
<path d="M12.8751 11.4562L12.6345 12.5156C11.2126 11.8125 9.17202 11.45 8.00015 11.45C6.82827 11.45 4.78765 11.8125 3.36577 12.5156L3.12515 11.4562L1.83765 5.79059C2.57202 6.98434 3.16265 7.94059 4.06265 8.97184C5.06577 10.1187 6.63765 10.4281 8.4689 10.4593C10.2283 10.4843 12.1814 11.0281 12.8751 11.4562Z" fill="#FFAA39"/>
<path d="M12.3281 14.2969C12.1875 14.2969 12.0469 14.275 11.9125 14.2312C10.3656 13.7312 8.84063 13.5531 8.00313 13.5531C7.16563 13.5531 5.63751 13.7312 4.09376 14.2312C3.38126 14.4562 2.62188 14.0625 2.39688 13.35C2.18126 12.6719 2.52813 11.9469 3.18751 11.6844C4.85626 11.0219 6.85313 10.7188 8.00313 10.7188C9.15313 10.7188 11.15 11.0219 12.8188 11.6844C13.5156 11.9594 13.8563 12.7438 13.5813 13.4406C13.3781 13.9531 12.8813 14.2938 12.3281 14.2969Z" fill="#F48D05"/>
<path d="M2.63745 12.9406C2.63745 12.5125 2.89995 12.1281 3.29995 11.9719C4.8687 11.3469 6.81558 11.0281 7.99995 11.0281C9.18433 11.0281 11.1312 11.3469 12.7031 11.9719C13.1 12.1281 13.3625 12.5125 13.3625 12.9406C13.3625 13.6438 12.6781 14.1469 12.0062 13.9313C10.5875 13.4719 9.01245 13.2375 7.99995 13.2375C6.98745 13.2375 5.40933 13.4719 3.9937 13.9313C3.32183 14.15 2.63745 13.6438 2.63745 12.9406Z" fill="#FFC943"/>
<path d="M13.2937 13.3188C13.0969 13.8313 12.5312 14.1031 12.0094 13.9313C10.5906 13.4719 9.01562 13.2375 8.00313 13.2375C6.99063 13.2375 5.4125 13.4719 3.99688 13.9313C3.32813 14.15 2.64062 13.6438 2.64062 12.9406C2.64062 12.6375 2.77187 12.35 3.00312 12.1531C2.99375 12.2063 2.9875 12.2594 2.9875 12.3156C2.975 13.0188 3.65312 13.5344 4.325 13.3313C5.75312 12.8969 7.33125 12.6906 8.34375 12.7063C9.35625 12.7219 10.9281 12.9875 12.3375 13.4719C12.6594 13.5813 13.0188 13.525 13.2937 13.3188Z" fill="#FFAA39"/>
<path d="M8.00005 5.38437C9.0166 5.38437 9.84067 4.5603 9.84067 3.54375C9.84067 2.5272 9.0166 1.70312 8.00005 1.70312C6.9835 1.70312 6.15942 2.5272 6.15942 3.54375C6.15942 4.5603 6.9835 5.38437 8.00005 5.38437Z" fill="#F48D05"/>
<path d="M8.00005 5.07187C8.84401 5.07187 9.52817 4.38771 9.52817 3.54375C9.52817 2.69979 8.84401 2.01562 8.00005 2.01562C7.15609 2.01562 6.47192 2.69979 6.47192 3.54375C6.47192 4.38771 7.15609 5.07187 8.00005 5.07187Z" fill="#FAF180"/>
<path d="M14.1592 7.63126C13.1436 7.63126 12.3186 6.80939 12.3186 5.79064C12.3186 4.77189 13.1405 3.95001 14.1592 3.95001C15.1749 3.95001 15.9999 4.77189 15.9999 5.79064C15.9999 6.80626 15.1749 7.62814 14.1592 7.63126Z" fill="#F48D05"/>
<path d="M14.1595 7.31563C15.0018 7.31563 15.6845 6.63286 15.6845 5.79063C15.6845 4.94839 15.0018 4.26562 14.1595 4.26562C13.3173 4.26562 12.6345 4.94839 12.6345 5.79063C12.6345 6.63286 13.3173 7.31563 14.1595 7.31563Z" fill="#FAF180"/>
<path d="M1.8375 7.62812C2.85232 7.62812 3.675 6.80545 3.675 5.79062C3.675 4.7758 2.85232 3.95312 1.8375 3.95312C0.822677 3.95312 0 4.7758 0 5.79062C0 6.80545 0.822677 7.62812 1.8375 7.62812Z" fill="#F48D05"/>
<path d="M1.8375 7.31563C2.67973 7.31563 3.3625 6.63286 3.3625 5.79063C3.3625 4.94839 2.67973 4.26562 1.8375 4.26562C0.995266 4.26562 0.3125 4.94839 0.3125 5.79063C0.3125 6.63286 0.995266 7.31563 1.8375 7.31563Z" fill="#FAF180"/>
<path d="M9.32492 4.29999C8.90617 5.03124 7.97492 5.28749 7.24054 4.86874C6.50929 4.44999 6.25304 3.51874 6.67179 2.78436C6.75617 2.63749 6.86242 2.50624 6.99054 2.39374C6.57179 3.12499 6.82804 4.05936 7.55929 4.47811C8.12804 4.80311 8.83429 4.73124 9.32492 4.29999ZM15.4874 6.54686C15.0687 7.27811 14.1343 7.53124 13.403 7.10936C12.6718 6.69061 12.4187 5.75624 12.8405 5.02499C12.9249 4.88124 13.0312 4.74999 13.1562 4.63749C12.7374 5.36874 12.9874 6.30311 13.7187 6.72186C14.2843 7.04999 14.9968 6.98124 15.4874 6.54686ZM3.16554 6.54686C2.74679 7.27811 1.81242 7.53124 1.08117 7.10936C0.349918 6.69061 0.0967929 5.75624 0.518668 5.02499C0.603043 4.88124 0.709293 4.74999 0.834293 4.63749C0.415543 5.36874 0.665543 6.30311 1.39679 6.72186C1.96242 7.04999 2.67492 6.98124 3.16554 6.54686Z" fill="#ED9928"/>
</svg>
