<svg width="67" height="66" viewBox="0 0 67 66" fill="none" xmlns="http://www.w3.org/2000/svg">
<rect x="1.16" y="0.66" width="64.68" height="64.68" rx="12.54" fill="#F3F8EC"/>
<rect x="1.16" y="0.66" width="64.68" height="64.68" rx="12.54" stroke="#E7EEDD" stroke-width="1.32"/>
<path fill-rule="evenodd" clip-rule="evenodd" d="M34.1111 15.6292C31.8076 15.6292 29.5984 16.5442 27.9696 18.1731C26.3407 19.8019 25.4257 22.0111 25.4257 24.3146C25.4257 26.6181 26.3407 28.8273 27.9696 30.4561C29.5984 32.0849 31.8076 33 34.1111 33C36.4146 33 38.6238 32.0849 40.2526 30.4561C41.8814 28.8273 42.7965 26.6181 42.7965 24.3146C42.7965 22.0111 41.8814 19.8019 40.2526 18.1731C38.6238 16.5442 36.4146 15.6292 34.1111 15.6292ZM28.8998 34.7371C26.0111 34.7371 23.2335 36.0538 21.6058 38.0376C20.7807 39.0451 20.1988 40.2906 20.1484 41.6715C20.0963 43.082 20.6053 44.4578 21.6562 45.6581C24.2132 48.5851 28.2971 50.3708 34.1111 50.3708C39.9251 50.3708 44.009 48.5851 46.566 45.6581C47.6169 44.4578 48.1259 43.082 48.0738 41.6715C48.0216 40.2906 47.4432 39.0451 46.6146 38.0376C44.9904 36.0573 42.2128 34.7371 39.3223 34.7371H28.8998Z" fill="#FFAD4C"/>
</svg>
