<svg width="36" height="36" viewBox="0 0 36 36" fill="none" xmlns="http://www.w3.org/2000/svg">
<path fill-rule="evenodd" clip-rule="evenodd" d="M18 33C26.2843 33 33 26.2843 33 18C33 9.71576 26.2843 3.00003 18 3.00003C9.71573 3.00003 3 9.71576 3 18C3 26.2843 9.71573 33 18 33ZM21.0455 12.7045C21.4848 13.1439 21.4848 13.8562 21.0455 14.2955L17.341 18L21.0455 21.7045C21.4848 22.1439 21.4848 22.8562 21.0455 23.2955C20.6062 23.7349 19.8938 23.7349 19.4545 23.2955L14.9545 18.7955C14.5152 18.3562 14.5152 17.6439 14.9545 17.2045L19.4545 12.7045C19.8938 12.2652 20.6062 12.2652 21.0455 12.7045Z" fill="#0F100B" fill-opacity="0.3"/>
</svg>
