<svg width="36" height="36" viewBox="0 0 36 36" fill="none" xmlns="http://www.w3.org/2000/svg">
<path fill-rule="evenodd" clip-rule="evenodd" d="M18 33C26.2843 33 33 26.2843 33 18C33 9.71576 26.2843 3.00003 18 3.00003C9.71573 3.00003 3 9.71576 3 18C3 26.2843 9.71573 33 18 33ZM14.9545 12.7045C15.3938 12.2652 16.1062 12.2652 16.5455 12.7045L21.0455 17.2045C21.4848 17.6439 21.4848 18.3562 21.0455 18.7955L16.5455 23.2955C16.1062 23.7349 15.3938 23.7349 14.9545 23.2955C14.5152 22.8562 14.5152 22.1439 14.9545 21.7045L18.659 18L14.9545 14.2955C14.5152 13.8562 14.5152 13.1439 14.9545 12.7045Z" fill="#0F100B"/>
</svg>
