<svg width="66" height="66" viewBox="0 0 66 66" fill="none" xmlns="http://www.w3.org/2000/svg">
<rect x="0.66" y="0.66" width="64.68" height="64.68" rx="12.54" fill="#F3F8EC"/>
<rect x="0.66" y="0.66" width="64.68" height="64.68" rx="12.54" stroke="#E7EEDD" stroke-width="1.32"/>
<path d="M50.3708 27.2155C49.876 26.8802 49.2921 26.701 48.6945 26.701C48.0968 26.701 47.5129 26.8802 47.0182 27.2155L41.8069 30.4465C41.7551 30.47 41.6988 30.4822 41.6419 30.4822C41.585 30.4822 41.5287 30.47 41.4769 30.4465C41.361 30.4151 41.2615 30.3405 41.199 30.238L35.6403 20.2324C35.3701 19.7828 34.9881 19.4107 34.5315 19.1524C34.0749 18.8941 33.5593 18.7583 33.0347 18.7583C32.5101 18.7583 31.9944 18.8941 31.5378 19.1524C31.0812 19.4107 30.6993 19.7828 30.4291 20.2324L24.6619 30.2207C24.5994 30.3232 24.4999 30.3978 24.384 30.4291C24.3322 30.4526 24.2759 30.4648 24.219 30.4648C24.1621 30.4648 24.1058 30.4526 24.054 30.4291L18.9296 27.146C18.4335 26.832 17.8558 26.6712 17.2689 26.6835C16.6819 26.6959 16.1116 26.8809 15.6291 27.2155C15.134 27.5538 14.7507 28.0318 14.5279 28.5886C14.3052 29.1453 14.2532 29.7558 14.3784 30.3423L17.2967 44.0478C17.4401 44.7298 17.8134 45.3418 18.3541 45.7814C18.8949 46.2209 19.5702 46.4614 20.2671 46.4624H45.7849C46.4817 46.4614 47.1571 46.2209 47.6979 45.7814C48.2386 45.3418 48.6119 44.7298 48.7553 44.0478L51.6736 30.3423C51.7935 29.7506 51.7335 29.1365 51.5013 28.5792C51.2691 28.0219 50.8754 27.547 50.3708 27.2155Z" fill="#FF5757"/>
</svg>
