<svg width="240" height="234" viewBox="0 0 240 234" fill="none" xmlns="http://www.w3.org/2000/svg">
<path d="M166.042 139.67C175.158 150.179 193.505 131.658 204.943 123.704C216.381 115.749 226.774 102.628 223.464 89.0994C219.4 72.4941 196.873 64.0753 196.176 47.0054C195.886 39.2834 200.356 32.3161 202.737 25.0004C205.117 17.6848 204.362 7.75641 197.337 4.62113C195.247 3.69216 192.866 3.51797 190.544 3.34379C179.745 2.64706 168.945 1.89226 158.146 1.19554C143.921 0.266565 129.232 -0.604359 115.82 4.15662C96.7761 10.9497 83.4221 27.9035 66.5845 39.2253C64.2621 40.7929 61.7655 42.3025 58.9786 42.4186C50.6179 42.767 46.96 31.6774 39.6444 27.5551C32.5029 23.4909 22.6906 27.439 18.5102 34.5224C14.3299 41.6058 14.7363 50.6052 17.4071 58.3853C20.0779 66.1655 24.7228 73.0747 28.7871 80.2161C32.8513 87.3576 36.393 95.1378 36.5672 103.324C36.7413 112.208 32.8512 120.684 28.6708 128.523C24.4905 136.361 143.399 113.543 166.042 139.67Z" fill="#F3F8EC"/>
<path d="M227.761 216.775C224.742 208.937 230.664 199.473 226.948 191.983C223.871 185.77 215.859 184.145 210.517 179.732C206.917 176.713 204.595 172.533 201.866 168.701C199.137 164.869 195.537 161.269 190.892 160.456L190.95 160.108C187.467 154.302 182.416 148.902 179.861 144.199C177.887 140.657 193.795 132.587 193.795 132.587C182.009 120.917 154.895 99.5504 139.276 93.9185C138.696 85.79 137.941 65.8171 137.941 65.8171C144.154 64.2495 156.695 60.94 156.695 60.94C149.379 51.8826 141.425 41.4316 133.18 31.1549C130.451 27.7293 126.793 24.7101 122.613 23.5489L109.317 20.8201L103.569 45.2056C100.318 43.696 96.0793 44.3347 93.5247 46.8893C90.5055 49.8504 90.1571 55.134 92.7117 58.5015C94.3374 60.6497 96.9502 61.8109 99.621 61.927L99.5629 62.1593C95.0923 72.7263 91.028 81.4935 86.4993 90.6671L86.4412 90.4349C71.6357 96.9957 57.7592 102.686 44.2311 111.743C30.761 120.743 18.6263 132.355 11.3107 146.87C11.3107 146.87 20.5423 144.083 29.1353 147.567C28.4966 148.263 27.974 149.018 27.5095 149.831C25.4774 153.373 25.1291 157.611 23.9679 161.501C19.7295 175.552 5.0982 184.551 0.743652 198.602C0.743652 198.602 7.59476 213.93 55.2626 221.594C56.8302 221.826 56.8303 218.865 57.1786 217.414C57.4689 215.962 57.2367 214.394 56.1335 213.291C55.669 212.827 55.0884 212.536 54.3917 212.304C55.4948 211.259 56.54 210.156 57.3528 208.937C59.2688 206.324 60.2559 203.189 59.2689 200.344C58.6302 198.544 57.2947 197.034 56.1335 195.467C49.6888 186.699 62.1138 184.145 68.3844 178.861C70.1262 177.352 71.6357 175.436 72.6808 173.462C75.4677 176.829 79.0094 179.616 82.9575 181.532C86.3831 184.203 89.9829 185.538 92.8859 186.061C93.3504 186.235 93.873 186.409 94.3956 186.525L94.1633 186.235C94.3374 186.235 94.5697 186.293 94.7439 186.293L98.4598 164.52C98.4598 164.52 119.187 165.391 120.697 143.212C120.929 139.612 120.581 136.651 119.826 134.097C126.271 133.284 131.903 133.516 136.954 134.038C138.231 135.025 139.567 136.361 140.67 138.045C140.728 138.509 140.96 138.974 141.309 139.38C141.425 139.496 141.483 139.554 141.599 139.67C143.515 143.502 144.444 148.902 142.644 156.566C141.076 163.301 138.231 168.294 135.038 172.068C134.922 172.01 134.864 171.894 134.748 171.836L134.864 172.3C127.722 180.603 119.013 182.519 119.013 182.519L115.762 205.685L167.204 194.073L160.411 167.191C162.152 166.959 163.894 166.494 165.636 165.972C165.462 167.075 165.462 168.236 165.578 169.397C165.926 172.068 167.087 174.623 168.887 176.597H169.352C169.642 190.473 171.21 204.35 174.113 217.878C175.274 223.336 176.9 229.2 181.428 232.451C181.428 232.451 190.022 215.788 209.762 223.916C229.503 232.045 239.025 223.916 239.025 223.916C234.148 224.323 229.445 221.246 227.761 216.775ZM154.256 143.212L152.863 137.696C153.095 137.638 153.385 137.522 153.617 137.464C156.346 136.825 159.656 137.232 161.223 139.554C161.281 139.67 161.34 139.786 161.398 139.903C158.901 140.773 156.52 141.877 154.256 143.212ZM158.204 158.888C161.456 157.553 164.881 156.45 168.191 155.521C165.462 156.508 161.688 158.366 158.553 160.34L158.204 158.888Z" fill="#FBFFF5"/>
<path d="M105.021 121.033L106.879 102.511C106.879 102.511 92.364 104.892 81.5647 115.982C82.3195 116.156 83.1324 116.388 83.8872 116.62C86.0354 117.259 88.4159 117.898 90.2738 119.291C91.8415 120.51 92.8866 122.542 92.3641 124.575C91.7835 126.607 89.6933 127.478 87.7192 127.361C85.3968 127.245 83.1905 126.142 81.0422 125.329C79.2424 124.633 77.3843 124.052 75.4102 124.226C75.0038 124.981 74.5974 125.678 74.249 126.491C74.8877 126.781 75.5264 127.071 76.1651 127.361C79.2423 128.929 82.1453 130.903 84.7581 133.284C86.8483 135.2 91.1448 138.916 88.0095 141.76C87.3128 142.341 86.5579 142.689 85.7451 142.806C86.7902 144.025 87.7192 145.534 87.3708 147.218C87.0224 148.96 85.3387 149.947 83.655 149.889C81.6809 149.831 79.8229 148.612 78.0811 147.741C77.0941 147.276 76.107 146.812 75.1199 146.405C75.2941 146.521 75.5264 146.638 75.7005 146.812C76.7456 147.509 77.7327 148.263 78.6617 149.134C79.3004 149.773 79.9971 150.47 80.2293 151.341C81.0422 154.069 77.1521 154.418 75.4684 154.476C73.7265 154.534 72.0427 154.36 70.359 154.011C70.5332 155.985 69.8364 158.308 71.0557 159.643C72.0427 160.746 73.9008 161.443 74.3653 163.069C74.8878 164.927 73.4362 168.468 74.1329 170.036C79.5326 182.287 89.1707 186.293 94.9187 186.583L98.6345 164.811C98.6345 164.811 119.362 165.681 120.872 143.502C122.207 123.355 105.021 121.033 105.021 121.033Z" fill="#FFE945"/>
<path d="M68.5009 154.012C68.5009 153.837 68.5008 153.663 68.4427 153.431H68.3848C68.4428 153.605 68.4428 153.779 68.5009 154.012Z" fill="black"/>
<path d="M74.0166 114.472C79.8807 107.853 87.5447 102.918 96.0216 100.305C96.1957 100.247 96.3119 100.189 96.37 100.073C99.1569 100.421 101.944 101.06 104.615 101.931C95.6732 104.95 87.3706 109.595 80.113 115.575C80.8097 115.749 81.5645 115.924 82.2612 116.098C89.5769 110.234 97.9957 105.763 106.995 103.034C107.227 102.976 107.344 102.86 107.46 102.744C108.098 102.512 108.272 101.35 107.402 101.06C103.744 99.7827 100.028 98.7957 96.1378 98.3893C95.8475 98.3312 95.6151 98.5054 95.441 98.7377C86.4996 101.525 78.4293 106.808 72.3329 113.891C72.2168 114.008 72.1586 114.182 72.1006 114.298C72.6812 114.298 73.3779 114.356 74.0166 114.472Z" fill="black"/>
<path d="M97.7634 167.772C95.3829 166.785 93.8153 164.579 92.4218 162.546C91.667 161.501 90.9704 160.398 90.1575 159.411C89.4027 158.424 88.4738 157.321 87.4287 156.682C86.2675 155.986 84.6417 155.869 83.8288 157.205C83.074 158.424 83.5966 160.05 83.8288 161.327C84.4675 164.346 85.3965 167.307 86.6739 170.152C88.1254 173.462 90.0414 176.481 92.3057 179.326C93.0024 180.197 94.2218 178.978 93.5251 178.107C89.9253 173.636 87.3706 168.411 85.9772 162.895C85.6288 161.617 85.2223 160.166 85.2223 158.831C85.1643 157.147 86.7319 158.192 87.3706 158.831C89.0543 160.456 90.2735 162.546 91.667 164.404C93.1766 166.495 94.9184 168.411 97.357 169.398C97.8215 169.572 98.286 169.223 98.4021 168.817C98.5182 168.353 98.1698 167.946 97.7634 167.772Z" fill="black"/>
<path d="M107.75 136.477C106.647 135.025 105.66 133.516 104.673 131.948C100.376 124.923 97.5311 117.085 96.2538 108.956C96.0796 107.853 94.3957 108.318 94.5699 109.421C95.615 116.33 97.8795 123.007 101.073 129.161C102.699 132.239 104.556 135.2 106.647 137.987C107.517 139.09 108.853 140.715 108.098 142.225C107.866 142.689 107.401 143.154 106.821 143.038C106.124 142.922 105.718 142.051 105.427 141.47C104.44 139.728 103.511 137.987 102.582 136.303C101.769 134.793 101.015 133.109 99.9116 131.774C99.0407 130.671 97.7053 129.8 96.2538 130.148C94.8022 130.497 93.9314 131.89 93.8152 133.284C93.6411 134.967 94.512 136.535 95.2668 137.987C96.1377 139.67 96.9505 141.354 97.7053 143.096C99.2149 146.58 100.434 150.179 101.363 153.837C101.537 154.534 101.77 155.231 101.653 155.985C101.537 156.914 100.84 156.566 100.26 156.101C98.8084 154.824 97.531 153.315 96.3117 151.805C93.8151 148.728 91.783 145.302 90.2154 141.702C89.7509 140.657 88.2414 141.586 88.7059 142.573C90.2154 145.883 92.0733 149.076 94.2796 151.979C95.3828 153.431 96.6021 154.882 97.8795 156.218C98.9246 157.321 100.434 159.063 102.176 158.134C103.453 157.437 103.511 155.869 103.279 154.592C102.989 152.734 102.35 150.876 101.77 149.134C100.55 145.36 99.0406 141.644 97.2408 138.103C96.544 136.651 95.1506 134.851 95.5571 133.168C95.6732 132.587 96.0795 132.006 96.6602 131.89C97.4149 131.774 98.0537 132.413 98.4601 132.935C98.9246 133.516 99.2729 134.155 99.6213 134.793C100.144 135.78 100.724 136.767 101.247 137.754C102.176 139.496 103.105 141.296 104.15 142.98C104.905 144.257 106.24 145.302 107.808 144.722C109.143 144.199 110.072 142.689 109.956 141.238C110.014 139.322 108.795 137.87 107.75 136.477Z" fill="black"/>
<path d="M71.8685 158.54C71.6943 157.089 71.6362 155.579 71.6943 154.128C71.1137 154.07 70.5331 153.954 69.9525 153.837C69.8944 155.231 69.9524 156.624 70.0686 158.018" fill="black"/>
<path d="M73.7266 172.184C83.0163 184.958 91.1448 186.003 94.222 186.932C95.3252 187.222 95.7897 185.538 94.6865 185.248C85.6871 182.635 78.2553 176.074 74.4814 167.656" fill="black"/>
<path d="M139.916 136.941C140.032 136.07 140.38 135.199 140.903 134.502C142.412 132.528 145.025 131.716 147.289 131.019C148.567 130.612 149.844 130.264 151.121 129.974L145.548 107.969L136.258 110.291L131.148 131.135C131.148 131.135 136.2 132.238 139.916 136.941Z" fill="#9ED5F0"/>
<path d="M144.618 150.237C145.78 148.902 147.057 147.624 148.392 146.463C150.192 144.954 152.108 143.56 154.198 142.399L153.211 138.567C151.353 139.089 149.553 140.018 147.754 140.599C146.07 141.18 143.98 141.644 142.238 141.005C143.341 143.792 143.922 147.392 143.457 151.921C143.805 151.398 144.212 150.76 144.618 150.237Z" fill="#9ED5F0"/>
<path d="M155.069 168.236C154.082 168.119 152.921 167.829 152.34 166.958C151.876 166.261 152.05 165.391 152.399 164.694C153.386 162.894 155.418 161.559 157.159 160.455C155.824 161.036 154.489 161.617 153.211 162.313C151.528 163.184 149.728 164.171 147.754 163.765C145.954 163.416 144.793 161.849 144.967 160.049C145.083 158.83 145.78 157.785 146.592 156.798C145.431 156.623 144.444 156.101 143.689 154.94C143.457 154.591 143.341 154.243 143.283 153.895C143.167 154.765 142.993 155.694 142.76 156.623C137.651 178.396 119.13 182.577 119.13 182.577L115.878 205.743L167.32 194.131L160.759 168.119C158.843 168.468 156.985 168.526 155.069 168.236Z" fill="#9ED5F0"/>
<path d="M114.253 178.455C113.962 178.048 114.195 177.526 114.543 177.235C114.949 176.945 115.472 177.177 115.762 177.526C116.865 179.209 118.027 180.835 119.13 182.519C119.42 182.925 119.188 183.448 118.839 183.738C118.433 184.028 117.91 183.796 117.62 183.448C116.517 181.764 115.414 180.138 114.253 178.455ZM142.993 179.79C144.386 181.706 147.579 185.48 144.967 187.686C143.805 188.673 142.122 188.209 141.135 187.164C140.032 186.002 139.335 184.435 138.348 183.158C137.419 181.938 136.316 180.603 135.038 179.732C134.574 179.384 133.645 178.919 133.064 179.5C132.6 180.022 133.122 180.893 133.413 181.358C134.284 182.867 135.329 184.319 136.316 185.828C137.361 187.396 138.406 189.022 139.451 190.589C140.09 191.518 138.58 192.389 137.941 191.46C136.78 189.718 135.677 187.977 134.516 186.235C133.935 185.364 133.355 184.493 132.774 183.622C132.251 182.867 131.729 182.112 131.381 181.241C130.916 179.906 131.206 178.397 132.6 177.816C133.993 177.177 135.387 177.816 136.49 178.687C137.767 179.732 138.87 181.009 139.857 182.287C140.38 182.983 140.844 183.622 141.309 184.377C141.715 185.015 142.064 185.828 142.644 186.293C143.167 186.699 143.864 186.757 144.096 186.061C144.328 185.422 144.038 184.783 143.689 184.203C142.935 182.809 141.948 181.474 140.961 180.138C139.045 177.526 136.896 175.145 134.516 172.939C130.8 177.526 126.039 181.242 120.639 183.622C119.478 191.17 118.317 198.718 117.156 206.266C116.981 207.311 115.53 206.962 115.472 205.975C115.356 205.917 115.24 205.801 115.182 205.685C113.788 203.537 112.22 201.563 110.421 199.705C110.13 199.415 110.13 199.066 110.246 198.834C111.466 191.576 112.743 184.319 113.962 177.003C114.078 176.481 114.485 176.306 114.833 176.422C119.943 175.552 124.762 173.577 129 170.558C134.051 166.959 138.232 161.791 140.554 155.927C140.67 155.404 140.728 154.882 140.786 154.359C140.844 154.127 141.019 153.895 141.251 153.779C141.657 152.56 141.948 151.34 142.122 150.063C142.76 146.115 142.238 141.992 140.148 138.567C138.115 135.315 134.632 133.109 130.858 132.529C130.626 132.587 130.335 132.587 130.103 132.471C129.871 132.471 129.639 132.412 129.465 132.412C128.652 132.412 128.419 131.483 128.768 131.019C127.607 129.8 126.445 128.58 125.226 127.361C124.645 127.419 124.065 127.013 124.239 126.316C126.561 118.942 128.071 111.336 128.768 103.614C128.536 103.092 128.826 102.395 129.523 102.395C129.639 102.337 129.813 102.337 129.929 102.395C132.193 102.337 134.4 101.931 136.548 101.176C136.722 101.002 137.012 100.886 137.245 100.944C137.593 100.886 137.999 101.176 138.115 101.466C140.38 103.382 142.702 105.298 144.967 107.156C144.967 107.156 144.967 107.214 145.025 107.214C145.141 107.214 145.257 107.214 145.373 107.214C145.838 107.272 146.244 107.562 146.244 108.085C146.244 108.491 145.838 109.014 145.373 108.956C142.702 108.666 140.032 109.13 137.651 110.407C137.245 110.64 136.896 110.524 136.664 110.233C136.606 110.291 136.548 110.349 136.432 110.407C135.038 117.317 133.413 124.168 131.555 130.961C135.967 131.774 139.857 134.561 142.006 138.567C144.967 144.083 144.328 150.527 142.064 156.217C141.657 158.598 140.961 160.92 140.032 163.185C138.812 166.146 137.245 168.933 135.329 171.487C138.348 173.984 140.786 176.771 142.993 179.79ZM142.644 107.214C140.844 105.705 139.103 104.253 137.303 102.743C135.329 103.44 133.297 103.847 131.264 103.963C133.122 105.646 135.038 107.272 136.896 108.956C136.954 108.898 137.012 108.898 137.071 108.84C138.754 107.911 140.67 107.388 142.644 107.214ZM126.561 126.026C127.781 127.303 129.058 128.58 130.277 129.858C132.077 123.181 133.645 116.504 135.038 109.711C135.038 109.653 135.038 109.653 135.096 109.595C133.587 108.259 132.077 106.924 130.568 105.588C129.813 112.44 128.419 119.233 126.445 125.852C126.445 125.91 126.503 125.968 126.561 126.026ZM138.058 163.881C132.716 171.255 124.529 176.364 115.588 177.932C114.427 184.841 113.208 191.809 112.046 198.718C113.44 200.169 114.717 201.737 115.878 203.421C116.865 197.034 117.852 190.647 118.839 184.261C117.794 184.667 117.33 182.983 118.375 182.577C118.665 182.461 118.956 182.345 119.188 182.229C119.362 181.88 119.71 181.822 120.001 181.88C121.975 181.009 123.891 179.906 125.691 178.687C131.09 174.971 135.387 169.804 138.058 163.881ZM134.516 191.925C134.284 191.518 133.703 191.344 133.297 191.634C132.89 191.867 132.716 192.389 133.006 192.854C133.993 194.421 134.98 196.047 136.025 197.615C136.258 198.021 136.838 198.195 137.245 197.905C137.651 197.673 137.825 197.15 137.535 196.686C136.548 195.118 135.561 193.492 134.516 191.925ZM147.986 123.413C146.767 121.439 145.373 119.639 143.805 117.955C142.993 117.084 142.122 116.272 141.251 115.459C140.438 114.762 139.567 113.891 138.58 113.601C137.593 113.369 136.548 113.833 136.258 114.878C135.967 115.865 136.374 117.026 136.664 118.013C137.303 120.336 138.116 122.6 139.161 124.807C140.322 127.245 141.657 129.626 143.225 131.832C143.864 132.761 145.373 131.89 144.735 130.961C141.715 126.781 139.509 122.078 138.232 117.084C138.116 116.736 137.767 115.865 137.941 115.459C138.174 115.052 138.87 115.691 139.103 115.923C140.09 116.678 140.961 117.549 141.831 118.42C143.631 120.22 145.141 122.194 146.476 124.342C147.057 125.271 148.566 124.4 147.986 123.413Z" fill="black"/>
<path d="M171.965 163.069C173.01 162.72 173.474 164.404 172.429 164.753C166.914 166.61 160.991 169.107 155.069 168.236C154.082 168.12 152.921 167.83 152.34 166.959C151.876 166.262 152.05 165.391 152.398 164.694C153.443 162.72 155.708 161.327 157.566 160.166C160.004 158.598 162.617 157.205 165.288 155.985C167.146 155.172 169.236 154.069 171.326 153.953C172.429 153.895 172.429 155.637 171.326 155.695C171.268 155.695 171.036 155.753 171.152 155.695C171.268 155.695 170.978 155.695 170.978 155.753C170.804 155.811 170.571 155.811 170.397 155.869C169.933 155.985 169.41 156.16 168.946 156.334C167.726 156.74 166.565 157.263 165.462 157.843C162.965 159.004 160.585 160.34 158.263 161.791C157.334 162.43 156.405 163.069 155.534 163.824C154.837 164.404 154.314 164.927 153.908 165.623C153.792 165.798 153.85 165.74 153.85 165.681C153.85 165.74 153.792 165.798 153.792 165.856C153.676 166.146 153.792 165.914 153.792 165.856C153.792 165.914 153.792 165.972 153.792 166.03C153.792 165.972 153.792 166.03 153.792 166.03C153.676 165.914 153.966 166.146 153.792 166.088C153.85 166.146 153.908 166.204 154.024 166.204C154.14 166.262 154.082 166.262 154.082 166.262C154.256 166.32 154.43 166.378 154.663 166.436C155.65 166.668 156.637 166.727 157.624 166.669C162.617 166.61 167.378 164.636 171.965 163.069ZM120 39.3995C120.581 40.7349 121.22 42.0703 121.8 43.4057C121.975 43.8121 122.613 43.9282 123.02 43.696C123.426 43.4057 123.542 42.9412 123.31 42.4767C122.729 41.1413 122.091 39.8059 121.51 38.4705C121.336 38.0641 120.697 37.948 120.291 38.1802C119.884 38.4705 119.826 38.935 120 39.3995ZM124.297 38.2383C124.065 37.8318 124.239 37.3093 124.587 37.019C124.994 36.7867 125.574 36.9609 125.807 37.3093C126.736 38.8769 127.374 40.6768 127.664 42.4767C127.723 42.9412 127.548 43.4057 127.084 43.5218C126.677 43.6379 126.097 43.3476 126.039 42.9412C125.923 42.0703 125.69 41.2574 125.4 40.4445C125.342 40.2123 125.226 40.0381 125.168 39.8059C125.226 39.922 125.11 39.6898 125.11 39.6898C125.052 39.5736 124.994 39.4575 124.936 39.3414C124.761 38.9931 124.529 38.5866 124.297 38.2383ZM115.994 35.9739C115.762 36.3803 115.24 36.4965 114.775 36.2642C114.369 36.032 114.252 35.4513 114.485 35.0449C115.181 33.8256 116.168 32.8386 117.388 32.0838C117.794 31.8516 118.317 32.0258 118.607 32.3741C118.839 32.7806 118.665 33.3031 118.317 33.5934C118.085 33.7095 117.91 33.8837 117.678 34.0579C117.736 33.9998 117.794 33.9418 117.852 33.9418C117.33 34.3482 116.865 34.8127 116.459 35.3352C116.517 35.2772 116.575 35.2191 116.575 35.161C116.343 35.4513 116.169 35.7417 115.994 35.9739ZM123.6 30.7484C123.716 31.2129 123.484 31.6774 123.02 31.7935C122.613 31.9096 122.033 31.6193 121.975 31.2129C121.8 30.4581 122.381 29.9356 123.078 29.9356C123.426 29.9356 123.833 29.9936 124.239 30.0517C125.052 30.1678 125.923 30.284 126.736 30.4581C127.2 30.5743 127.432 31.0968 127.316 31.5032C127.2 31.9677 126.677 32.2 126.271 32.0838C125.69 31.9677 125.11 31.8516 124.471 31.7354C124.413 31.7354 124.413 31.7354 124.529 31.7354C124.471 31.7354 124.413 31.7354 124.413 31.7354C124.355 31.7354 124.297 31.7354 124.181 31.7354C124.065 31.7354 123.891 31.6774 123.774 31.6774C123.6 31.6774 123.484 31.6774 123.31 31.6194C123.252 31.6194 123.194 31.6194 123.136 31.6194C123.078 31.6194 123.136 31.6194 123.252 31.6194C123.484 31.5613 123.6 31.3871 123.716 31.1548C123.6 30.9807 123.6 30.8646 123.6 30.7484C123.6 30.6904 123.6 30.6904 123.6 30.7484ZM239.141 225.019C235.948 225.136 232.87 223.916 230.432 221.826C227.993 219.678 226.6 216.717 226.252 213.523C225.613 207.659 228.11 201.911 227.413 196.105C227.064 193.376 225.845 191.054 223.813 189.196C221.897 187.396 219.517 186.177 217.252 184.9C214.872 183.622 212.491 182.345 210.343 180.661C207.846 178.687 205.93 176.074 204.131 173.404C200.937 168.701 197.512 163.069 191.705 161.559C190.893 163.243 189.906 164.869 188.744 166.378C184.274 172.242 177.655 176.249 170.397 177.468C170.513 181.764 170.746 186.119 171.094 190.415C171.733 198.486 172.894 206.498 174.403 214.452C175.565 220.491 176.668 227.923 182.009 231.871C182.88 232.509 182.009 234.019 181.138 233.38C178.177 231.232 176.377 228.039 175.158 224.671C173.939 221.304 173.3 217.762 172.662 214.278C171.849 210.156 171.21 206.034 170.629 201.911C169.526 193.899 168.888 185.829 168.714 177.758C168.423 177.7 168.307 177.468 168.249 177.177C167.494 176.307 166.855 175.436 166.333 174.391C165.056 171.894 164.533 169.107 164.881 166.378C165.462 166.204 166.101 166.03 166.681 165.856C166.043 169.397 167.088 173.171 169.468 175.958C169.468 175.958 169.468 175.958 169.526 175.958C171.442 175.668 173.358 175.203 175.158 174.565C181.719 172.126 187.235 167.133 190.254 160.804C190.254 160.688 190.254 160.63 190.254 160.514C189.848 159.817 189.383 159.121 188.919 158.424C186.538 154.882 183.983 151.457 181.545 147.973C180.442 146.405 179.339 144.838 178.294 143.212C177.306 141.644 176.436 139.961 175.332 138.451C172.836 134.967 169.236 131.716 165.114 130.439C163.14 129.8 160.875 130.09 158.843 130.323C156.579 130.613 154.373 131.077 152.166 131.6C149.67 132.18 147.057 132.819 144.676 133.922C143.689 134.387 142.702 135.025 142.122 135.954C141.657 136.767 141.425 137.987 142.064 138.799C143.399 140.657 146.65 139.38 148.276 138.741C150.54 137.87 152.689 136.825 155.069 136.535C157.043 136.303 159.25 136.593 160.875 137.812C161.34 138.161 161.746 138.567 162.037 139.032C163.894 138.451 165.752 137.987 167.668 137.696C168.772 137.522 169.236 139.206 168.133 139.38C164.591 139.903 161.107 141.006 157.856 142.515C155.011 143.909 152.282 145.592 149.902 147.683C148.682 148.728 147.521 149.831 146.476 150.992C145.489 152.037 144.328 153.605 145.954 154.708C146.708 155.231 147.579 155.231 148.45 155.056C153.85 149.831 160.817 146.173 168.249 144.838C169.352 144.605 169.817 146.289 168.714 146.521C164.882 147.218 161.224 148.496 157.798 150.353C154.779 151.979 151.992 154.011 149.495 156.45C148.392 157.495 146.592 159.004 146.824 160.746C147.115 162.662 149.612 162.198 150.831 161.617C152.515 160.862 154.14 159.992 155.824 159.237C157.566 158.482 159.249 157.785 161.049 157.147C164.649 155.811 168.307 154.766 172.081 153.953C173.184 153.721 173.649 155.405 172.545 155.637C167.959 156.624 163.43 158.017 159.075 159.759C157.159 160.514 155.243 161.385 153.385 162.314C151.702 163.185 149.902 164.172 147.928 163.765C146.128 163.417 144.967 161.849 145.141 160.05C145.257 158.83 145.954 157.785 146.767 156.798C145.605 156.624 144.618 156.101 143.863 154.94C142.818 153.315 143.689 151.573 144.85 150.237C146.012 148.902 147.289 147.625 148.624 146.463C152.108 143.502 156.114 141.122 160.411 139.554C159.133 138.219 156.985 137.987 155.185 138.219C152.689 138.509 150.366 139.844 147.986 140.657C145.896 141.354 143.225 141.935 141.309 140.425C139.509 138.974 139.741 136.245 141.077 134.503C142.586 132.529 145.199 131.716 147.463 131.019C150.018 130.206 152.631 129.626 155.243 129.103C157.508 128.697 159.772 128.29 162.094 128.232C164.301 128.174 166.275 128.697 168.249 129.684C172.429 131.774 175.797 135.316 178.235 139.322C180.268 142.748 182.474 145.941 184.796 149.134C187.235 152.56 189.79 155.927 191.938 159.527C192.054 159.585 192.17 159.701 192.286 159.875C198.963 161.501 202.737 168.004 206.395 173.287C208.137 175.842 210.111 178.223 212.607 180.022C214.814 181.59 217.252 182.751 219.633 184.087C221.897 185.364 224.219 186.699 226.019 188.615C227.935 190.648 229.039 193.144 229.387 195.873C230.142 201.679 227.761 207.311 228.226 213.059C228.458 215.904 229.619 218.517 231.767 220.433C233.858 222.291 236.586 223.336 239.373 223.22C240.244 223.278 240.244 225.019 239.141 225.019ZM169.062 112.672C171.675 114.936 174.171 117.317 176.61 119.755C177.423 120.568 178.642 119.291 177.829 118.536C169.352 110.117 160.12 102.569 149.379 97.286C146.418 95.8345 143.341 94.5571 140.264 93.3959C139.683 85.0932 139.393 76.7906 139.044 68.5459C139.044 67.9073 138.986 67.2686 138.986 66.6299C144.444 65.2365 149.96 63.785 155.418 62.3915C155.94 62.2754 156.521 62.1012 157.043 61.9851C157.74 61.8109 157.798 60.9981 157.45 60.5336C153.153 55.192 148.973 49.8504 144.734 44.4507C142.47 41.6058 140.264 38.7608 137.999 35.9158C135.909 33.3031 133.935 30.4581 131.497 28.1357C129.929 26.6261 128.245 25.3488 126.329 24.3037C127.607 24.0134 129 23.5489 130.393 22.736C134.109 20.5297 137.941 11.3562 133.238 4.96948C124.936 16.6397 117.446 8.10477 105.485 13.7947C96.2537 18.1493 96.6021 35.3352 100.608 43.754C97.8214 43.5798 94.9763 44.5088 93.0023 46.4829C89.6928 49.7923 89.2864 55.4823 92.1313 59.1982C93.6409 61.2303 96.0214 62.4496 98.518 62.856C94.686 71.9715 90.5056 80.9709 86.1511 89.8542C86.1511 89.8542 86.1512 89.8542 86.0931 89.8542C74.0165 95.1958 61.8236 100.305 50.4437 107.04C39.9348 113.253 30.0644 120.801 21.994 130.032C17.5814 135.083 13.7494 140.599 10.7303 146.58C10.2077 147.567 11.7174 148.437 12.2399 147.45C17.5815 136.825 25.5358 127.826 34.5933 120.22C44.3475 112.091 55.379 105.821 66.817 100.363C73.2617 97.286 79.8225 94.4991 86.3834 91.596C86.3834 91.596 86.3833 91.596 86.4414 91.596C86.3253 91.9444 86.4415 92.2928 86.8479 92.4669C99.6793 97.9827 113.962 99.8407 127.781 97.8085C131.671 97.2279 135.503 96.357 139.219 95.1958C139.335 95.1377 139.451 95.0797 139.509 95.0216C144.967 97.0537 150.308 99.4923 155.301 102.511C160.179 105.414 164.765 108.898 169.062 112.672ZM98.6341 94.6152C94.9182 93.6862 91.2605 92.4669 87.7188 90.9573C87.6608 90.9573 87.6027 90.8993 87.5446 90.8993C92.0733 81.6676 96.3698 72.3779 100.318 62.914C101.828 62.856 103.279 62.5076 104.614 61.7528C105.021 61.5206 105.195 60.998 104.963 60.5916C104.731 60.1852 104.208 60.011 103.802 60.2433C100.55 62.1012 95.8473 61.1142 93.5249 58.1531C91.2605 55.1339 91.5508 50.3729 94.2216 47.7021C96.8924 45.0313 101.653 44.7411 104.673 47.0054C105.079 47.2957 105.601 47.2376 105.892 46.8312C106.182 46.4248 106.124 45.9023 105.718 45.612C105.485 45.4378 105.253 45.3217 105.079 45.1475L106.53 45.2055C112.569 41.4896 111.582 35.5675 113.149 31.1548C115.414 24.8262 118.781 24.9424 122.846 24.6521C128.884 26.51 132.658 31.8516 136.374 36.5545C140.728 42.0122 144.967 47.528 149.321 53.0437C151.295 55.5403 153.269 58.037 155.243 60.5336C151.063 61.6367 146.825 62.7399 142.644 63.843C141.018 64.2495 139.393 64.6559 137.767 65.0623C137.419 65.1784 137.128 65.5268 137.128 65.8752C137.419 72.9586 137.709 80.042 138.057 87.1254C138.174 89.2155 138.29 91.3638 138.406 93.454C125.632 97.5182 111.698 97.9247 98.6341 94.6152ZM106.182 53.334C106.472 53.6824 106.53 54.205 106.182 54.5533C105.892 54.8436 105.253 54.9017 104.963 54.5533C103.163 52.289 100.376 50.9535 97.4729 51.0116C96.3698 51.0116 96.3698 49.2698 97.4729 49.2698C100.782 49.2117 104.034 50.7213 106.182 53.334ZM115.53 77.7776C114.949 78.6485 114.02 79.2291 112.975 79.4033C111.001 79.6936 109.027 78.7646 107.924 77.0809C106.646 75.1649 106.53 72.6683 106.472 70.4039C106.472 69.3007 108.214 69.3007 108.214 70.4039C108.272 72.6102 108.272 75.281 109.956 76.8486C110.479 77.3712 111.466 77.6615 112.162 77.7195C112.278 77.7195 112.336 77.7195 112.453 77.7195C112.511 77.7195 112.569 77.7195 112.627 77.7195C112.743 77.7195 112.859 77.6615 112.975 77.6615L113.207 77.6034C113.614 77.4292 113.788 77.255 113.962 76.9647C114.194 76.5583 114.717 76.3841 115.181 76.6744C115.588 76.8486 115.762 77.3712 115.53 77.7776ZM90.2734 119.233C88.4736 117.839 86.035 117.201 83.8868 116.562C81.6224 115.865 79.3 115.401 76.9776 114.994C74.9455 114.588 72.8552 114.24 70.765 114.182C68.7909 114.124 66.9911 114.414 65.1912 115.227C63.3333 116.04 61.6495 117.143 60.0819 118.478C58.4562 119.872 57.0047 121.497 55.7273 123.239C54.508 124.923 53.579 126.781 52.4759 128.523C49.9793 132.413 47.2505 136.187 44.6958 140.019C44.1732 140.831 43.6506 141.644 43.1862 142.457C41.6766 141.993 39.9348 141.993 38.4252 142.167C34.9996 142.573 31.6901 144.083 29.2516 146.521C26.3486 149.366 25.2455 153.256 24.3745 157.147C23.5617 160.862 22.4585 164.346 20.6006 167.656C18.8588 170.733 16.7687 173.578 14.5623 176.365C10.1497 181.938 5.21452 187.222 2.02118 193.667C1.26639 195.234 0.569722 196.86 0.0471762 198.486C-0.301188 199.531 1.38252 199.995 1.73088 198.95C5.96931 185.48 18.975 177.177 24.1424 164.172C25.5939 160.514 26.0002 156.566 27.2776 152.85C28.4969 149.483 30.7612 146.812 33.9546 145.186C35.4641 144.431 37.0899 143.967 38.7736 143.793C39.8187 143.676 41.1541 143.676 42.1992 143.909C40.9799 146.173 40.4573 148.728 41.4443 151.224C42.4314 153.663 44.4055 155.521 46.6118 156.798C48.8762 158.134 51.3728 158.946 53.9855 159.411C56.7724 159.933 59.6174 160.224 62.4624 159.817C64.6687 159.527 67.0491 158.772 68.1523 156.856C68.5006 157.03 68.791 157.263 69.0813 157.495C71.8101 159.817 73.7261 163.243 73.7261 166.901C73.6681 170.442 71.9262 173.984 69.6038 176.597C67.6297 178.861 65.0171 180.371 62.4624 181.88C58.7465 184.029 52.7663 186.874 53.5791 192.099C54.1597 195.583 57.5271 197.615 58.5722 200.924C59.8496 204.93 56.8885 208.762 54.2177 211.433C52.6501 211.085 50.7921 211.317 49.5728 212.536C48.4116 213.698 48.1214 215.672 49.5149 216.775C49.9213 217.123 50.3276 217.123 50.734 216.775C52.0114 215.73 53.4049 214.627 54.6822 213.465C54.7403 213.523 54.8565 213.523 54.9145 213.582C57.9917 215.323 55.9016 219.097 54.6242 221.304C54.0436 222.291 55.5531 223.162 56.1337 222.174C57.2369 220.317 58.4561 218.284 58.2819 216.02C58.1658 214.394 57.295 213.059 56.0176 212.188C57.4111 210.795 58.6304 209.227 59.5013 207.485C60.3722 205.685 60.8947 203.653 60.6044 201.621C60.3141 199.531 59.0948 197.905 57.8755 196.279C56.424 194.363 54.5661 191.925 55.7273 189.486C56.7724 187.338 59.1529 186.003 61.0689 184.783C63.5074 183.332 66.0041 182.055 68.2685 180.313C71.2296 178.048 73.4939 174.971 74.7131 171.488C75.9324 168.004 75.7583 164.288 74.0746 160.979C73.2037 159.237 71.9262 157.727 70.4747 156.45C70.0683 156.101 69.6619 155.695 69.1394 155.463C68.9072 155.347 68.7329 155.231 68.5007 155.172C68.5587 154.592 68.5007 154.011 68.3846 153.489C70.707 154.069 73.0294 154.476 75.4098 154.36C77.0936 154.302 81.0418 153.953 80.1709 151.224C79.8806 150.353 79.2419 149.599 78.6032 149.018C77.6742 148.147 76.6873 147.392 75.6422 146.696C75.468 146.579 75.2357 146.463 75.0616 146.289C76.0486 146.696 77.0355 147.16 78.0226 147.625C79.7644 148.437 81.5643 149.715 83.5965 149.773C85.2802 149.831 86.9639 148.844 87.3123 147.102C87.6607 145.418 86.7899 143.909 85.6867 142.689C86.4995 142.573 87.3123 142.283 87.951 141.644C91.0863 138.799 86.7897 135.083 84.6996 133.167C82.1449 130.845 79.242 128.813 76.1067 127.245C74.7713 126.607 73.4358 126.026 72.1004 125.503C72.7971 124.749 73.7843 124.342 74.9455 124.168C77.0357 123.878 79.0677 124.516 80.9837 125.271C83.132 126.084 85.2802 127.187 87.6607 127.303C89.6348 127.419 91.725 126.607 92.3056 124.516C92.9442 122.484 91.8411 120.452 90.2734 119.233ZM50.4437 214.859C50.3857 214.336 50.7921 213.756 51.3147 213.465C51.663 213.233 52.1276 213.117 52.534 213.059C51.8373 213.698 51.1405 214.278 50.4437 214.859ZM86.3253 125.271C84.119 124.691 82.0289 123.646 79.8806 122.949C76.7454 121.962 72.4488 122.02 70.3586 124.865C68.5587 124.284 66.6428 123.82 64.7849 123.529C63.6817 123.355 63.2172 125.039 64.3203 125.213C70.6489 126.2 76.6872 128.813 81.6804 132.761C82.8997 133.748 84.119 134.793 85.2222 135.954C86.0931 136.825 88.009 138.451 87.1962 139.844C86.5575 141.006 85.2221 141.064 84.0029 140.89C81.6804 138.625 79.0096 136.651 76.1647 135.025C72.4488 132.935 68.3846 131.426 64.2042 130.671C63.1011 130.439 62.6366 132.122 63.7397 132.355C70.5328 133.632 76.9194 136.767 81.9707 141.412C82.6094 141.993 83.1901 142.573 83.7707 143.154C84.4093 143.851 85.1641 144.547 85.4544 145.476C86.093 147.218 84.5834 148.263 82.9577 147.973C82.0288 147.799 81.216 147.334 80.4031 146.928C79.5903 146.521 78.7193 146.115 77.9065 145.709C76.1647 144.896 74.4229 144.141 72.623 143.502C69.8361 142.399 66.9331 141.47 64.03 140.715C63.972 140.715 63.9138 140.657 63.7977 140.657C62.8687 140.309 61.9398 140.019 60.9528 139.903C60.8947 139.903 60.7787 139.903 60.7206 139.903C60.6045 139.903 60.4883 139.844 60.3722 139.786C59.269 139.554 58.8045 141.238 59.9077 141.47C61.1269 141.702 62.2881 141.993 63.5074 142.341C64.3203 142.631 65.1912 142.98 66.004 143.386C68.4426 144.489 70.8812 145.767 73.1455 147.218C74.1906 147.857 75.1776 148.554 76.1647 149.308C76.5711 149.599 76.9775 149.947 77.3259 150.295C77.5581 150.528 78.0226 150.992 78.0807 151.108C78.1968 151.224 78.2549 151.399 78.371 151.515C78.371 151.515 78.4291 151.573 78.4291 151.631C78.4291 151.689 78.4871 151.747 78.4871 151.805C78.4871 151.805 78.4871 151.805 78.4871 151.863C78.4871 151.863 78.4871 151.921 78.4871 151.979L78.4291 152.037C78.3711 152.095 78.1968 152.153 78.1968 152.153C77.6162 152.386 76.9775 152.444 76.3389 152.502C70.8231 153.024 65.4235 150.702 60.3722 148.96C59.3271 148.612 58.8626 150.295 59.9077 150.644C62.0559 151.399 64.2622 152.153 66.4686 152.85C66.5266 152.966 66.5266 153.082 66.5846 153.198C66.8169 154.069 66.933 154.998 66.5846 155.869C66.5266 156.043 66.5267 156.16 66.5267 156.276C65.6558 157.437 63.8558 157.901 62.5204 158.076C60.0818 158.424 57.5853 158.25 55.1467 157.843C50.8502 157.147 45.857 155.463 43.5346 151.457C42.025 148.844 42.7217 146.057 44.3474 143.735C46.7279 139.844 49.3987 136.129 51.9534 132.355C53.0565 130.729 54.1597 129.045 55.1467 127.303C56.1918 125.503 57.295 123.762 58.6304 122.194C59.9658 120.684 61.4172 119.349 63.101 118.246C64.6686 117.259 66.4105 116.214 68.2685 115.923C70.1845 115.633 72.2166 115.865 74.0746 116.156C76.1067 116.446 78.0807 116.852 80.1128 117.317C82.4352 117.839 84.7577 118.478 86.964 119.349C88.7058 120.046 90.7379 121.265 90.6798 123.413C90.7379 125.794 87.951 125.736 86.3253 125.271Z" fill="black"/>
<path d="M35.6381 61.3466C34.7672 60.7079 35.6381 59.1984 36.509 59.8371C42.6634 64.4238 48.8179 69.0687 55.0304 73.6555C55.9014 74.2942 55.0304 75.8038 54.1595 75.1651C48.0051 70.5202 41.7925 65.9334 35.6381 61.3466ZM54.624 61.9853C57.9335 65.0625 61.2429 68.1397 64.6105 71.2169C65.4233 71.9717 66.6425 70.7525 65.8296 69.9977C62.5202 66.9205 59.2108 63.8432 55.8432 60.766C55.0304 60.0112 53.8112 61.2305 54.624 61.9853ZM185.551 84.3967C191.125 80.2744 196.757 76.1521 202.33 72.0298C203.201 71.3911 202.33 69.8816 201.459 70.5202C195.886 74.6425 190.254 78.7648 184.68 82.8871C183.751 83.5839 184.622 85.0934 185.551 84.3967ZM191.531 90.435C194.202 89.2158 196.873 88.0545 199.543 86.8353C199.95 86.6611 200.066 86.0224 199.834 85.616C199.601 85.1515 199.079 85.0935 198.615 85.3257C195.944 86.545 193.273 87.7062 190.602 88.9254C190.196 89.0996 190.08 89.7383 190.312 90.1447C190.602 90.5512 191.125 90.6092 191.531 90.435ZM42.4893 79.6357C43.8247 80.2744 45.1602 80.9711 46.4955 81.6098C46.902 81.8421 47.4825 81.7259 47.7147 81.3195C47.947 80.9131 47.8309 80.3325 47.4244 80.1002C46.089 79.4616 44.7537 78.7648 43.4183 78.1262C43.0119 77.8939 42.4312 78.01 42.199 78.4165C41.9667 78.8229 42.0248 79.4035 42.4893 79.6357Z" fill="black"/>
</svg>
