<svg width="20" height="20" viewBox="0 0 20 20" fill="none" xmlns="http://www.w3.org/2000/svg">
<path d="M15.4165 4.58337L4.58319 15.4165" stroke="#0F100B" stroke-width="1.25" stroke-linecap="round"/>
<path d="M18.3332 9.04073V10.9592C18.3332 11.9811 18.3332 12.492 18.1429 12.9514C17.9526 13.4109 17.5913 13.7722 16.8687 14.4947L14.4946 16.8688C13.772 17.5914 13.4107 17.9527 12.9513 18.143C12.4919 18.3333 11.9809 18.3333 10.9591 18.3333H9.0406C8.01873 18.3333 7.50779 18.3333 7.04836 18.143C6.58893 17.9527 6.22764 17.5914 5.50507 16.8688L3.13097 14.4947C2.40839 13.7722 2.04711 13.4109 1.85681 12.9514C1.6665 12.492 1.6665 11.9811 1.6665 10.9592V9.04073C1.6665 8.01885 1.6665 7.50791 1.85681 7.04848C2.04711 6.58905 2.40839 6.22777 3.13097 5.50519L5.50507 3.13109C6.22764 2.40852 6.58893 2.04723 7.04836 1.85693C7.50779 1.66663 8.01873 1.66663 9.0406 1.66663H10.9591C11.9809 1.66663 12.4919 1.66663 12.9513 1.85693C13.4107 2.04723 13.772 2.40852 14.4946 3.13109L16.8687 5.50519C17.5913 6.22777 17.9526 6.58905 18.1429 7.04848C18.3332 7.50791 18.3332 8.01885 18.3332 9.04073Z" stroke="#0F100B" stroke-width="1.25"/>
</svg>
