<svg width="66" height="66" viewBox="0 0 66 66" fill="none" xmlns="http://www.w3.org/2000/svg">
<rect x="0.66" y="0.66" width="64.68" height="64.68" rx="12.54" fill="#F3F8EC"/>
<rect x="0.66" y="0.66" width="64.68" height="64.68" rx="12.54" stroke="#E7EEDD" stroke-width="1.32"/>
<path fill-rule="evenodd" clip-rule="evenodd" d="M28.7899 30.4626C30.1549 31.7651 30.1549 33.9133 28.7899 35.2176L28.6023 35.3947C25.1029 38.736 22.3989 41.315 21.5862 46.7212C21.2944 48.6264 22.9269 50.2067 24.8928 50.2067H40.7833C42.7492 50.2067 44.3816 48.6264 44.0934 46.7212C43.2771 41.315 40.5749 38.736 37.0755 35.3947L36.8897 35.2176C36.5662 34.9118 36.3086 34.5432 36.1325 34.1344C35.9564 33.7256 35.8656 33.2852 35.8656 32.8401C35.8656 32.3949 35.9564 31.9545 36.1325 31.5457C36.3086 31.1369 36.5662 30.7684 36.8897 30.4626L37.0755 30.2854C40.5749 26.9441 43.2789 24.3651 44.0934 18.9589C44.3834 17.0538 42.7509 15.4734 40.785 15.4734H24.8945C22.9286 15.4734 21.2961 17.0538 21.5844 18.9589C22.4007 24.3651 25.1029 26.9441 28.6023 30.2854L28.7899 30.4626ZM29.976 27.5137L29.9621 27.5033C27.2963 25.1188 25.3113 23.344 25.0525 18.9537C25.0449 18.8263 25.0673 18.699 25.118 18.5819C25.1687 18.4649 25.2462 18.3614 25.3443 18.2798C25.4998 18.1488 25.6968 18.0774 25.9 18.0784H39.7795C40.0296 18.0784 40.2553 18.1826 40.4099 18.3528C40.5558 18.5091 40.6391 18.721 40.6252 18.9537C40.3665 23.344 38.3832 25.1188 35.7174 27.5033C35.0123 28.1337 34.2586 28.8075 33.4771 29.5838C33.3071 29.7517 33.0778 29.8458 32.8389 29.8458C32.6 29.8458 32.3707 29.7517 32.2007 29.5838C31.4244 28.8127 30.6759 28.1424 29.976 27.5137Z" fill="#00673A"/>
</svg>
