<svg width="14" height="14" viewBox="0 0 14 14" fill="none" xmlns="http://www.w3.org/2000/svg">
<g clip-path="url(#clip0_167_3690)">
<path d="M13.6 1.91425C13.3941 1.70794 13.0599 1.70759 12.854 1.91338L6.52407 8.22656L4.24027 5.74612C4.04293 5.53191 3.70928 5.51802 3.49471 5.71533C3.28031 5.91267 3.26658 6.24649 3.46392 6.46089L6.11971 9.34513C6.16782 9.39743 6.22601 9.43946 6.29079 9.46868C6.35556 9.49791 6.42557 9.51374 6.49662 9.51521C6.50047 9.51538 6.50419 9.51538 6.50788 9.51538C6.64751 9.51533 6.78144 9.46 6.88039 9.36149L13.599 2.66049C13.8055 2.45473 13.8058 2.12056 13.6 1.91425Z" fill="#0F100B"/>
<path d="M13.4723 6.47235C13.1809 6.47235 12.9447 6.70854 12.9447 7C12.9447 10.2781 10.2781 12.9447 7 12.9447C3.72214 12.9447 1.05528 10.2781 1.05528 7C1.05528 3.72214 3.72214 1.05528 7 1.05528C7.29143 1.05528 7.52765 0.819082 7.52765 0.527652C7.52765 0.236195 7.29143 0 7 0C3.14016 0 0 3.14016 0 7C0 10.8597 3.14016 14 7 14C10.8597 14 14 10.8597 14 7C14 6.70857 13.7638 6.47235 13.4723 6.47235Z" fill="#0F100B"/>
</g>
<defs>
<clipPath id="clip0_167_3690">
<rect width="14" height="14" fill="white"/>
</clipPath>
</defs>
</svg>
