<svg width="23" height="22" viewBox="0 0 23 22" fill="none" xmlns="http://www.w3.org/2000/svg">
<path opacity="0.2" d="M20.6663 14.6665V13.7498C20.6663 11.1571 20.6661 9.86113 19.8607 9.05567C19.0552 8.25021 17.7589 8.25021 15.1661 8.25021H7.8328C5.24008 8.25021 3.94371 8.25021 3.13826 9.05567C2.33301 9.86092 2.33301 11.1564 2.33301 13.7478V13.7498V14.6665C2.33301 17.2592 2.33301 18.5555 3.13846 19.361C3.94392 20.1665 5.24028 20.1665 7.83301 20.1665H15.1663H15.1664C17.7591 20.1665 19.0554 20.1665 19.8609 19.361C20.6663 18.5556 20.6663 17.2592 20.6663 14.6665Z" fill="#00673A"/>
<path fill-rule="evenodd" clip-rule="evenodd" d="M11.5 14.4375C11.8797 14.4375 12.1875 14.1297 12.1875 13.75L12.1875 3.69182L13.728 5.48909C13.9751 5.77737 14.4091 5.81076 14.6974 5.56366C14.9857 5.31655 15.0191 4.88254 14.772 4.59425L12.022 1.38592C11.8914 1.23353 11.7007 1.14583 11.5 1.14583C11.2993 1.14583 11.1086 1.23353 10.978 1.38592L8.22802 4.59425C7.98092 4.88254 8.01431 5.31655 8.30259 5.56366C8.59088 5.81076 9.0249 5.77737 9.272 5.48909L10.8125 3.69182L10.8125 13.75C10.8125 14.1297 11.1203 14.4375 11.5 14.4375Z" fill="#00673A"/>
</svg>
