<svg width="65" height="64" viewBox="0 0 65 64" fill="none" xmlns="http://www.w3.org/2000/svg">
<rect x="1" y="0.5" width="63" height="63" rx="13.5" fill="#F3F8EC"/>
<rect x="1" y="0.5" width="63" height="63" rx="13.5" stroke="#E7EEDD"/>
<path opacity="0.5" d="M46.6668 37.6664V36.2497C46.6668 32.2428 46.6665 30.2399 45.4217 28.9951C44.1769 27.7503 42.1734 27.7503 38.1665 27.7503H26.8332C22.8262 27.7503 20.8228 27.7503 19.578 28.9951C18.3335 30.2396 18.3335 32.2417 18.3335 36.2466V36.2497V37.6664C18.3335 41.6733 18.3335 43.6768 19.5783 44.9216C20.8231 46.1664 22.8266 46.1664 26.8335 46.1664H38.1668H38.1668C42.1738 46.1664 44.1772 46.1664 45.422 44.9216C46.6668 43.6768 46.6668 41.6733 46.6668 37.6664V37.6664Z" fill="#00673A"/>
<path fill-rule="evenodd" clip-rule="evenodd" d="M32.5 37.3125C33.0868 37.3125 33.5625 36.8368 33.5625 36.25L33.5625 20.7055L35.9433 23.4831C36.3252 23.9287 36.996 23.9803 37.4415 23.5984C37.887 23.2165 37.9386 22.5457 37.5567 22.1002L33.3067 17.1419C33.1049 16.9064 32.8102 16.7708 32.5 16.7708C32.1898 16.7708 31.8952 16.9064 31.6933 17.1419L27.4433 22.1002C27.0614 22.5457 27.113 23.2165 27.5586 23.5984C28.0041 23.9803 28.6748 23.9287 29.0567 23.4831L31.4375 20.7055L31.4375 36.25C31.4375 36.8368 31.9132 37.3125 32.5 37.3125Z" fill="#00673A"/>
</svg>
